<svg version="1.1" xmlns="http://www.w3.org/2000/svg" viewBox="0 0 459.91958165151993 507.12890625" width="1379.75874495456" height="1521.38671875">
  <!-- svg-source:excalidraw -->
  
  <defs>
    <style class="style-fonts">
      @font-face {
        font-family: "Virgil";
        src: url("https://excalidraw.com/Virgil.woff2");
      }
      @font-face {
        font-family: "Cascadia";
        src: url("https://excalidraw.com/Cascadia.woff2");
      }
    </style>
  </defs>
  <g transform="translate(12.79296875 48.6796875) rotate(0 12.12799072265625 9.599999999999994)"><text x="0" y="0" font-family="Virgil, Segoe UI Emoji" font-size="16px" fill="#343a40" text-anchor="start" style="white-space: pre;" direction="ltr" dominant-baseline="text-before-edge">16&lt;</text></g><g transform="translate(73.8099136352539 11.097656250000028) rotate(0 6.471992492675781 9.599999999999994)"><text x="0" y="0" font-family="Virgil, Segoe UI Emoji" font-size="16px" fill="#343a40" text-anchor="start" style="white-space: pre;" direction="ltr" dominant-baseline="text-before-edge">17</text></g><g transform="translate(123.85716247558594 10.972656250000028) rotate(0 8.287994384765625 9.599999999999994)"><text x="0" y="0" font-family="Virgil, Segoe UI Emoji" font-size="16px" fill="#343a40" text-anchor="start" style="white-space: pre;" direction="ltr" dominant-baseline="text-before-edge">18</text></g><g transform="translate(177.68719482421875 10.972656250000028) rotate(0 7.0399932861328125 9.599999999999994)"><text x="0" y="0" font-family="Virgil, Segoe UI Emoji" font-size="16px" fill="#343a40" text-anchor="start" style="white-space: pre;" direction="ltr" dominant-baseline="text-before-edge">19</text></g><g transform="translate(232.6458610534669 10.972656250000028) rotate(0 11.199996948242188 9.599999999999994)"><text x="0" y="0" font-family="Virgil, Segoe UI Emoji" font-size="16px" fill="#343a40" text-anchor="start" style="white-space: pre;" direction="ltr" dominant-baseline="text-before-edge">20</text></g><g transform="translate(288.4488739013673 10.972656250000028) rotate(0 7.8639984130859375 9.599999999999994)"><text x="0" y="0" font-family="Virgil, Segoe UI Emoji" font-size="16px" fill="#343a40" text-anchor="start" style="white-space: pre;" direction="ltr" dominant-baseline="text-before-edge">21</text></g><g transform="translate(340.3306770324708 10.972656250000028) rotate(0 11.391998291015625 9.599999999999994)"><text x="0" y="0" font-family="Virgil, Segoe UI Emoji" font-size="16px" fill="#343a40" text-anchor="start" style="white-space: pre;" direction="ltr" dominant-baseline="text-before-edge">22</text></g><g transform="translate(14.80169677734375 92.03787667410717) rotate(0 6.471992492675781 9.599999999999994)"><text x="0" y="0" font-family="Virgil, Segoe UI Emoji" font-size="16px" fill="#343a40" text-anchor="start" style="white-space: pre;" direction="ltr" dominant-baseline="text-before-edge">17</text></g><g transform="translate(14.735038757324219 133.5891810825894) rotate(0 8.287994384765625 9.599999999999994)"><text x="0" y="0" font-family="Virgil, Segoe UI Emoji" font-size="16px" fill="#343a40" text-anchor="start" style="white-space: pre;" direction="ltr" dominant-baseline="text-before-edge">18</text></g><g transform="translate(74.82591247558594 49.08406575520834) rotate(0 5.45599365234375 9.599999999999994)"><text x="0" y="0" font-family="Virgil, Segoe UI Emoji" font-size="16px" fill="#c92a2a" text-anchor="start" style="white-space: pre;" direction="ltr" dominant-baseline="text-before-edge">-1</text></g><g transform="translate(126.68916320800781 48.4375) rotate(0 5.45599365234375 9.599999999999994)"><text x="0" y="0" font-family="Virgil, Segoe UI Emoji" font-size="16px" fill="#c92a2a" text-anchor="start" style="white-space: pre;" direction="ltr" dominant-baseline="text-before-edge">-1</text></g><g transform="translate(179.2711944580078 49.730631510416686) rotate(0 5.45599365234375 9.599999999999994)"><text x="0" y="0" font-family="Virgil, Segoe UI Emoji" font-size="16px" fill="#c92a2a" text-anchor="start" style="white-space: pre;" direction="ltr" dominant-baseline="text-before-edge">-1</text></g><g transform="translate(126.68916320800781 92.03787667410711) rotate(0 5.45599365234375 9.599999999999994)"><text x="0" y="0" font-family="Virgil, Segoe UI Emoji" font-size="16px" fill="#c92a2a" text-anchor="start" style="white-space: pre;" direction="ltr" dominant-baseline="text-before-edge">-1</text></g><g transform="translate(238.38986434936533 52.31689453125003) rotate(0 5.45599365234375 9.599999999999994)"><text x="0" y="0" font-family="Virgil, Segoe UI Emoji" font-size="16px" fill="#c92a2a" text-anchor="start" style="white-space: pre;" direction="ltr" dominant-baseline="text-before-edge">-1</text></g><g transform="translate(179.2711944580078 92.03787667410717) rotate(0 5.45599365234375 9.599999999999994)"><text x="0" y="0" font-family="Virgil, Segoe UI Emoji" font-size="16px" fill="#c92a2a" text-anchor="start" style="white-space: pre;" direction="ltr" dominant-baseline="text-before-edge">-1</text></g><g transform="translate(290.85687866210947 50.37719726562503) rotate(0 5.45599365234375 9.599999999999994)"><text x="0" y="0" font-family="Virgil, Segoe UI Emoji" font-size="16px" fill="#c92a2a" text-anchor="start" style="white-space: pre;" direction="ltr" dominant-baseline="text-before-edge">-1</text></g><g transform="translate(74.77790832519531 92.03787667410717) rotate(0 5.503997802734375 9.599999999999994)"><text x="0" y="0" font-family="Virgil, Segoe UI Emoji" font-size="16px" fill="#e67700" text-anchor="start" style="white-space: pre;" direction="ltr" dominant-baseline="text-before-edge">0</text></g><g transform="translate(126.64115905761719 133.58918108258933) rotate(0 5.503997802734375 9.599999999999994)"><text x="0" y="0" font-family="Virgil, Segoe UI Emoji" font-size="16px" fill="#e67700" text-anchor="start" style="white-space: pre;" direction="ltr" dominant-baseline="text-before-edge">0</text></g><g transform="translate(179.2231903076172 174.5712890625) rotate(0 5.503997802734375 9.599999999999994)"><text x="0" y="0" font-family="Virgil, Segoe UI Emoji" font-size="16px" fill="#e67700" text-anchor="start" style="white-space: pre;" direction="ltr" dominant-baseline="text-before-edge">0</text></g><g transform="translate(12.114349365234375 174.57128906250006) rotate(0 7.0399932861328125 9.599999999999994)"><text x="0" y="0" font-family="Virgil, Segoe UI Emoji" font-size="16px" fill="#343a40" text-anchor="start" style="white-space: pre;" direction="ltr" dominant-baseline="text-before-edge">19</text></g><g transform="translate(10.143600463867188 213.24340820312506) rotate(0 11.199996948242188 9.599999999999994)"><text x="0" y="0" font-family="Virgil, Segoe UI Emoji" font-size="16px" fill="#343a40" text-anchor="start" style="white-space: pre;" direction="ltr" dominant-baseline="text-before-edge">20</text></g><g transform="translate(13.300003051757812 259.0580357142857) rotate(0 7.8639984130859375 9.599999999999994)"><text x="0" y="0" font-family="Virgil, Segoe UI Emoji" font-size="16px" fill="#343a40" text-anchor="start" style="white-space: pre;" direction="ltr" dominant-baseline="text-before-edge">21</text></g><g transform="translate(10.964126586914062 296.826171875) rotate(0 11.391998291015625 9.599999999999994)"><text x="0" y="0" font-family="Virgil, Segoe UI Emoji" font-size="16px" fill="#343a40" text-anchor="start" style="white-space: pre;" direction="ltr" dominant-baseline="text-before-edge">22</text></g><g transform="translate(10 353.6950334821428) rotate(0 11.991996765136719 9.600000000000023)"><text x="0" y="0" font-family="Virgil, Segoe UI Emoji" font-size="16px" fill="#343a40" text-anchor="start" style="white-space: pre;" direction="ltr" dominant-baseline="text-before-edge">21*</text></g><g transform="translate(238.38986434936533 92.03787667410714) rotate(0 5.45599365234375 9.600000000000009)"><text x="0" y="0" font-family="Virgil, Segoe UI Emoji" font-size="16px" fill="#c92a2a" text-anchor="start" style="white-space: pre;" direction="ltr" dominant-baseline="text-before-edge">-1</text></g><g transform="translate(290.85687866210947 92.03787667410711) rotate(0 5.45599365234375 9.599999999999994)"><text x="0" y="0" font-family="Virgil, Segoe UI Emoji" font-size="16px" fill="#c92a2a" text-anchor="start" style="white-space: pre;" direction="ltr" dominant-baseline="text-before-edge">-1</text></g><g transform="translate(179.2711944580078 133.5891810825894) rotate(0 5.45599365234375 9.599999999999994)"><text x="0" y="0" font-family="Virgil, Segoe UI Emoji" font-size="16px" fill="#c92a2a" text-anchor="start" style="white-space: pre;" direction="ltr" dominant-baseline="text-before-edge">-1</text></g><g transform="translate(238.38986434936533 133.58918108258933) rotate(0 5.45599365234375 9.599999999999994)"><text x="0" y="0" font-family="Virgil, Segoe UI Emoji" font-size="16px" fill="#c92a2a" text-anchor="start" style="white-space: pre;" direction="ltr" dominant-baseline="text-before-edge">-1</text></g><g transform="translate(290.85687866210947 133.58918108258933) rotate(0 5.45599365234375 9.599999999999994)"><text x="0" y="0" font-family="Virgil, Segoe UI Emoji" font-size="16px" fill="#c92a2a" text-anchor="start" style="white-space: pre;" direction="ltr" dominant-baseline="text-before-edge">-1</text></g><g transform="translate(238.3418601989747 213.243408203125) rotate(0 5.503997802734375 9.599999999999994)"><text x="0" y="0" font-family="Virgil, Segoe UI Emoji" font-size="16px" fill="#e67700" text-anchor="start" style="white-space: pre;" direction="ltr" dominant-baseline="text-before-edge">0</text></g><g transform="translate(290.67996826171884 259.0580357142857) rotate(0 5.503997802734375 9.599999999999994)"><text x="0" y="0" font-family="Virgil, Segoe UI Emoji" font-size="16px" fill="#e67700" text-anchor="start" style="white-space: pre;" direction="ltr" dominant-baseline="text-before-edge">0</text></g><g transform="translate(238.38986434936533 174.5712890625) rotate(0 5.45599365234375 9.599999999999994)"><text x="0" y="0" font-family="Virgil, Segoe UI Emoji" font-size="16px" fill="#c92a2a" text-anchor="start" style="white-space: pre;" direction="ltr" dominant-baseline="text-before-edge">-1</text></g><g transform="translate(290.85687866210947 174.5712890625) rotate(0 5.45599365234375 9.599999999999994)"><text x="0" y="0" font-family="Virgil, Segoe UI Emoji" font-size="16px" fill="#c92a2a" text-anchor="start" style="white-space: pre;" direction="ltr" dominant-baseline="text-before-edge">-1</text></g><g transform="translate(290.85687866210947 213.243408203125) rotate(0 5.45599365234375 9.599999999999994)"><text x="0" y="0" font-family="Virgil, Segoe UI Emoji" font-size="16px" fill="#c92a2a" text-anchor="start" style="white-space: pre;" direction="ltr" dominant-baseline="text-before-edge">-1</text></g><g transform="translate(344.6796760559083 51.02376302083337) rotate(0 7.167999267578125 9.599999999999994)"><text x="0" y="0" font-family="Virgil, Segoe UI Emoji" font-size="16px" fill="#5c940d" text-anchor="start" style="white-space: pre;" direction="ltr" dominant-baseline="text-before-edge">+1</text></g><g transform="translate(344.6796760559083 92.03787667410717) rotate(0 7.167999267578125 9.599999999999994)"><text x="0" y="0" font-family="Virgil, Segoe UI Emoji" font-size="16px" fill="#5c940d" text-anchor="start" style="white-space: pre;" direction="ltr" dominant-baseline="text-before-edge">+1</text></g><g transform="translate(344.6796760559083 133.5891810825894) rotate(0 7.167999267578125 9.599999999999994)"><text x="0" y="0" font-family="Virgil, Segoe UI Emoji" font-size="16px" fill="#5c940d" text-anchor="start" style="white-space: pre;" direction="ltr" dominant-baseline="text-before-edge">+1</text></g><g transform="translate(344.6796760559083 174.57128906250006) rotate(0 7.167999267578125 9.599999999999994)"><text x="0" y="0" font-family="Virgil, Segoe UI Emoji" font-size="16px" fill="#5c940d" text-anchor="start" style="white-space: pre;" direction="ltr" dominant-baseline="text-before-edge">+1</text></g><g transform="translate(344.6796760559083 213.24340820312506) rotate(0 7.167999267578125 9.599999999999994)"><text x="0" y="0" font-family="Virgil, Segoe UI Emoji" font-size="16px" fill="#5c940d" text-anchor="start" style="white-space: pre;" direction="ltr" dominant-baseline="text-before-edge">+1</text></g><g transform="translate(344.6796760559083 259.0580357142857) rotate(0 7.167999267578125 9.599999999999994)"><text x="0" y="0" font-family="Virgil, Segoe UI Emoji" font-size="16px" fill="#5c940d" text-anchor="start" style="white-space: pre;" direction="ltr" dominant-baseline="text-before-edge">+1</text></g><g transform="translate(59.532440185546875 353.6950334821428) rotate(0 20.143997192382812 9.600000000000023)"><text x="0" y="0" font-family="Virgil, Segoe UI Emoji" font-size="16px" fill="#5f3dc4" text-anchor="start" style="white-space: pre;" direction="ltr" dominant-baseline="text-before-edge">+3/2</text></g><g transform="translate(111.39569091796875 353.6950334821428) rotate(0 20.143997192382812 9.600000000000023)"><text x="0" y="0" font-family="Virgil, Segoe UI Emoji" font-size="16px" fill="#5f3dc4" text-anchor="start" style="white-space: pre;" direction="ltr" dominant-baseline="text-before-edge">+3/2</text></g><g transform="translate(163.97772216796875 353.6950334821428) rotate(0 20.143997192382812 9.600000000000023)"><text x="0" y="0" font-family="Virgil, Segoe UI Emoji" font-size="16px" fill="#5f3dc4" text-anchor="start" style="white-space: pre;" direction="ltr" dominant-baseline="text-before-edge">+3/2</text></g><g transform="translate(223.09639205932626 353.6950334821428) rotate(0 20.143997192382812 9.600000000000023)"><text x="0" y="0" font-family="Virgil, Segoe UI Emoji" font-size="16px" fill="#5f3dc4" text-anchor="start" style="white-space: pre;" direction="ltr" dominant-baseline="text-before-edge">+3/2</text></g><g transform="translate(275.5634063720704 353.6950334821428) rotate(0 20.143997192382812 9.600000000000023)"><text x="0" y="0" font-family="Virgil, Segoe UI Emoji" font-size="16px" fill="#5f3dc4" text-anchor="start" style="white-space: pre;" direction="ltr" dominant-baseline="text-before-edge">+3/2</text></g><g transform="translate(331.09820938110363 353.6950334821428) rotate(0 20.143997192382812 9.600000000000023)"><text x="0" y="0" font-family="Virgil, Segoe UI Emoji" font-size="16px" fill="#5f3dc4" text-anchor="start" style="white-space: pre;" direction="ltr" dominant-baseline="text-before-edge">+3/2</text></g><g transform="translate(75.14231872558594 296.82617187499994) rotate(0 5.45599365234375 9.599999999999994)"><text x="0" y="0" font-family="Virgil, Segoe UI Emoji" font-size="16px" fill="#c92a2a" text-anchor="start" style="white-space: pre;" direction="ltr" dominant-baseline="text-before-edge">-1</text></g><g transform="translate(127.00556945800781 296.82617187499994) rotate(0 5.45599365234375 9.599999999999994)"><text x="0" y="0" font-family="Virgil, Segoe UI Emoji" font-size="16px" fill="#c92a2a" text-anchor="start" style="white-space: pre;" direction="ltr" dominant-baseline="text-before-edge">-1</text></g><g transform="translate(179.5876007080078 296.82617187499994) rotate(0 5.45599365234375 9.599999999999994)"><text x="0" y="0" font-family="Virgil, Segoe UI Emoji" font-size="16px" fill="#c92a2a" text-anchor="start" style="white-space: pre;" direction="ltr" dominant-baseline="text-before-edge">-1</text></g><g transform="translate(238.70627059936533 296.82617187499994) rotate(0 5.45599365234375 9.599999999999994)"><text x="0" y="0" font-family="Virgil, Segoe UI Emoji" font-size="16px" fill="#c92a2a" text-anchor="start" style="white-space: pre;" direction="ltr" dominant-baseline="text-before-edge">-1</text></g><g transform="translate(291.17328491210947 296.82617187499994) rotate(0 5.45599365234375 9.599999999999994)"><text x="0" y="0" font-family="Virgil, Segoe UI Emoji" font-size="16px" fill="#c92a2a" text-anchor="start" style="white-space: pre;" direction="ltr" dominant-baseline="text-before-edge">-1</text></g><g transform="translate(346.7080879211427 296.82617187499994) rotate(0 5.45599365234375 9.599999999999994)"><text x="0" y="0" font-family="Virgil, Segoe UI Emoji" font-size="16px" fill="#c92a2a" text-anchor="start" style="white-space: pre;" direction="ltr" dominant-baseline="text-before-edge">-1</text></g><g transform="translate(73.11390686035156 133.58918108258933) rotate(0 7.167999267578125 9.599999999999994)"><text x="0" y="0" font-family="Virgil, Segoe UI Emoji" font-size="16px" fill="#5c940d" text-anchor="start" style="white-space: pre;" direction="ltr" dominant-baseline="text-before-edge">+1</text></g><g transform="translate(72.99281311035156 174.5712890625) rotate(0 7.167999267578125 9.599999999999994)"><text x="0" y="0" font-family="Virgil, Segoe UI Emoji" font-size="16px" fill="#5c940d" text-anchor="start" style="white-space: pre;" direction="ltr" dominant-baseline="text-before-edge">+1</text></g><g transform="translate(73.11390686035156 213.243408203125) rotate(0 7.167999267578125 9.599999999999994)"><text x="0" y="0" font-family="Virgil, Segoe UI Emoji" font-size="16px" fill="#5c940d" text-anchor="start" style="white-space: pre;" direction="ltr" dominant-baseline="text-before-edge">+1</text></g><g transform="translate(73.11390686035156 259.0580357142857) rotate(0 7.167999267578125 9.599999999999994)"><text x="0" y="0" font-family="Virgil, Segoe UI Emoji" font-size="16px" fill="#5c940d" text-anchor="start" style="white-space: pre;" direction="ltr" dominant-baseline="text-before-edge">+1</text></g><g transform="translate(124.97715759277344 174.57128906250006) rotate(0 7.167999267578125 9.599999999999994)"><text x="0" y="0" font-family="Virgil, Segoe UI Emoji" font-size="16px" fill="#5c940d" text-anchor="start" style="white-space: pre;" direction="ltr" dominant-baseline="text-before-edge">+1</text></g><g transform="translate(124.97715759277344 213.24340820312506) rotate(0 7.167999267578125 9.599999999999994)"><text x="0" y="0" font-family="Virgil, Segoe UI Emoji" font-size="16px" fill="#5c940d" text-anchor="start" style="white-space: pre;" direction="ltr" dominant-baseline="text-before-edge">+1</text></g><g transform="translate(177.55918884277344 213.243408203125) rotate(0 7.167999267578125 9.599999999999994)"><text x="0" y="0" font-family="Virgil, Segoe UI Emoji" font-size="16px" fill="#5c940d" text-anchor="start" style="white-space: pre;" direction="ltr" dominant-baseline="text-before-edge">+1</text></g><g transform="translate(124.97715759277344 259.0580357142857) rotate(0 7.167999267578125 9.599999999999994)"><text x="0" y="0" font-family="Virgil, Segoe UI Emoji" font-size="16px" fill="#5c940d" text-anchor="start" style="white-space: pre;" direction="ltr" dominant-baseline="text-before-edge">+1</text></g><g transform="translate(177.55918884277344 259.0580357142857) rotate(0 7.167999267578125 9.599999999999994)"><text x="0" y="0" font-family="Virgil, Segoe UI Emoji" font-size="16px" fill="#5c940d" text-anchor="start" style="white-space: pre;" direction="ltr" dominant-baseline="text-before-edge">+1</text></g><g transform="translate(236.67785873413095 259.05803571428567) rotate(0 7.167999267578125 9.599999999999994)"><text x="0" y="0" font-family="Virgil, Segoe UI Emoji" font-size="16px" fill="#5c940d" text-anchor="start" style="white-space: pre;" direction="ltr" dominant-baseline="text-before-edge">+1</text></g><g stroke-linecap="round"><g transform="translate(51.421875 31.307031250000023) rotate(0 -0.5261722723208209 171.84097717588767)"><path d="M-0.64 0.95 C-0.87 58.09, -1.41 285.4, -1.71 342.34 M1.22 0.4 C0.93 57.7, -1.53 286.1, -2.27 343.28" stroke="#495057" stroke-width="1" fill="none"></path></g></g><mask></mask><g stroke-linecap="round"><g transform="translate(52.639453522320764 29.95238219911235) rotate(0 197.7992880782578 -0.027734636156864667)"><path d="M-0.15 -0.87 C66.19 -1, 331.31 0.34, 397.28 0.22 M-1.68 1.28 C64.62 1.36, 330.03 -1.01, 396.66 -1.34" stroke="#495057" stroke-width="1" fill="none"></path></g></g><mask></mask><g transform="translate(414.9220657348633 10) rotate(0 11.991996765136719 9.599999999999994)"><text x="0" y="0" font-family="Virgil, Segoe UI Emoji" font-size="16px" fill="#343a40" text-anchor="start" style="white-space: pre;" direction="ltr" dominant-baseline="text-before-edge">21*</text></g><g transform="translate(421.4100646972656 353.6950334821428) rotate(0 5.503997802734375 9.600000000000023)"><text x="0" y="0" font-family="Virgil, Segoe UI Emoji" font-size="16px" fill="#e67700" text-anchor="start" style="white-space: pre;" direction="ltr" dominant-baseline="text-before-edge">0</text></g><g transform="translate(421.4100646972656 259.0580357142857) rotate(0 5.503997802734375 9.599999999999994)"><text x="0" y="0" font-family="Virgil, Segoe UI Emoji" font-size="16px" fill="#e67700" text-anchor="start" style="white-space: pre;" direction="ltr" dominant-baseline="text-before-edge">0</text></g><g transform="translate(421.45806884765625 51.670328776041714) rotate(0 5.45599365234375 9.599999999999994)"><text x="0" y="0" font-family="Virgil, Segoe UI Emoji" font-size="16px" fill="#c92a2a" text-anchor="start" style="white-space: pre;" direction="ltr" dominant-baseline="text-before-edge">-1</text></g><g transform="translate(421.45806884765625 92.03787667410717) rotate(0 5.45599365234375 9.599999999999994)"><text x="0" y="0" font-family="Virgil, Segoe UI Emoji" font-size="16px" fill="#c92a2a" text-anchor="start" style="white-space: pre;" direction="ltr" dominant-baseline="text-before-edge">-1</text></g><g transform="translate(421.45806884765625 133.58918108258933) rotate(0 5.45599365234375 9.599999999999994)"><text x="0" y="0" font-family="Virgil, Segoe UI Emoji" font-size="16px" fill="#c92a2a" text-anchor="start" style="white-space: pre;" direction="ltr" dominant-baseline="text-before-edge">-1</text></g><g transform="translate(421.45806884765625 174.5712890625) rotate(0 5.45599365234375 9.599999999999994)"><text x="0" y="0" font-family="Virgil, Segoe UI Emoji" font-size="16px" fill="#c92a2a" text-anchor="start" style="white-space: pre;" direction="ltr" dominant-baseline="text-before-edge">-1</text></g><g transform="translate(421.45806884765625 213.243408203125) rotate(0 5.45599365234375 9.599999999999994)"><text x="0" y="0" font-family="Virgil, Segoe UI Emoji" font-size="16px" fill="#c92a2a" text-anchor="start" style="white-space: pre;" direction="ltr" dominant-baseline="text-before-edge">-1</text></g><g transform="translate(421.45806884765625 296.82617187499994) rotate(0 5.45599365234375 9.599999999999994)"><text x="0" y="0" font-family="Virgil, Segoe UI Emoji" font-size="16px" fill="#c92a2a" text-anchor="start" style="white-space: pre;" direction="ltr" dominant-baseline="text-before-edge">-1</text></g><g stroke-linecap="round" transform="translate(334.58984375 288.71328125) rotate(0 18.720703125 15.58984375)"><path d="M26.6 1.83 C30.03 3.25, 34.01 7.15, 35.79 10.12 C37.58 13.09, 38.5 16.71, 37.31 19.64 C36.11 22.57, 32.07 25.75, 28.63 27.69 C25.19 29.62, 20.46 31.41, 16.67 31.24 C12.89 31.06, 8.63 29.03, 5.89 26.66 C3.15 24.29, 0.48 20.32, 0.22 17.03 C-0.04 13.73, 1.84 9.57, 4.33 6.88 C6.82 4.19, 11.04 1.59, 15.15 0.88 C19.27 0.17, 26.3 1.91, 29.04 2.61 C31.77 3.31, 31.58 4.74, 31.55 5.08 M21.76 1.02 C25.94 1.39, 30.61 3.62, 33.19 5.71 C35.76 7.79, 37.27 10.3, 37.21 13.53 C37.16 16.77, 35.21 22.44, 32.84 25.12 C30.48 27.79, 26.48 28.7, 23.03 29.6 C19.58 30.5, 15.92 31.92, 12.13 30.52 C8.35 29.13, 2.35 24.44, 0.31 21.22 C-1.73 18, -1.56 14.47, -0.11 11.22 C1.35 7.96, 5.41 3.44, 9.05 1.67 C12.69 -0.1, 19.87 0.9, 21.73 0.62 C23.6 0.34, 20.5 -0.04, 20.24 -0.02" stroke="#495057" stroke-width="1" fill="none"></path></g><g stroke-linecap="round"><g transform="translate(345.67421558425576 319.6962387839378) rotate(0 -34.03815589638657 65.70278988254387)"><path d="M-0.76 1.96 C-24.07 46.02, -49.17 93.12, -67.56 131.2 M-0.52 0.21 C-13.22 27.66, -27.42 53.34, -66.8 130.27" stroke="#495057" stroke-width="1" fill="none"></path></g><g transform="translate(345.67421558425576 319.6962387839378) rotate(0 -34.03815589638657 65.70278988254387)"><path d="M-66.33 130.64 L-67.47 115.77 L-54.36 120.03 L-67.65 129.43" stroke="none" stroke-width="0" fill="#495057" fill-rule="evenodd"></path><path d="M-67.36 131.74 C-66.65 124.87, -67.49 120.72, -66.33 116.46 M-67.18 130.43 C-66.33 127.86, -66.48 124.07, -65.76 115.77 M-66.52 115.82 C-61.87 116.41, -60.58 118.76, -55.1 120.03 M-66.07 114.84 C-63.36 117.26, -60.69 117.93, -55.45 121.52 M-53.74 119.85 C-58.6 124.03, -63.37 126.25, -66.7 129.72 M-54.79 120.7 C-58.52 124.23, -62.4 126.86, -67.45 130.63 M-66.8 130.27 C-66.8 130.27, -66.8 130.27, -66.8 130.27 M-66.8 130.27 C-66.8 130.27, -66.8 130.27, -66.8 130.27" stroke="#495057" stroke-width="1" fill="none"></path></g></g><mask></mask><g transform="translate(135.1640625 458.72890625) rotate(0 125.71992492675781 19.19999999999999)"><text x="0" y="0" font-family="Virgil, Segoe UI Emoji" font-size="16px" fill="#495057" text-anchor="start" style="white-space: pre;" direction="ltr" dominant-baseline="text-before-edge">How come this is not a tie ?!</text><text x="0" y="19.2" font-family="Virgil, Segoe UI Emoji" font-size="16px" fill="#495057" text-anchor="start" style="white-space: pre;" direction="ltr" dominant-baseline="text-before-edge">This is why dealer has an edge!</text></g></svg>