<svg version="1.1" xmlns="http://www.w3.org/2000/svg" viewBox="0 0 752.5411529541016 384.58485126232733" width="2257.6234588623047" height="1153.754553786982">
  <!-- svg-source:excalidraw -->
  
  <defs>
    <style class="style-fonts">
      @font-face {
        font-family: "Virgil";
        src: url("https://excalidraw.com/Virgil.woff2");
      }
      @font-face {
        font-family: "Cascadia";
        src: url("https://excalidraw.com/Cascadia.woff2");
      }
    </style>
  </defs>
  <g transform="translate(12.79296875 48.6796875) rotate(0 12.12799072265625 9.599999999999994)"><text x="0" y="0" font-family="Virgil, Segoe UI Emoji" font-size="16px" fill="#343a40" text-anchor="start" style="white-space: pre;" direction="ltr">16&lt;</text></g><g transform="translate(73.8099136352539 11.097656250000028) rotate(0 6.471992492675781 9.599999999999994)"><text x="0" y="0" font-family="Virgil, Segoe UI Emoji" font-size="16px" fill="#343a40" text-anchor="start" style="white-space: pre;" direction="ltr">17</text></g><g transform="translate(123.85716247558594 10.972656250000028) rotate(0 8.287994384765625 9.599999999999994)"><text x="0" y="0" font-family="Virgil, Segoe UI Emoji" font-size="16px" fill="#343a40" text-anchor="start" style="white-space: pre;" direction="ltr">18</text></g><g transform="translate(177.68719482421875 10.972656250000028) rotate(0 7.0399932861328125 9.599999999999994)"><text x="0" y="0" font-family="Virgil, Segoe UI Emoji" font-size="16px" fill="#343a40" text-anchor="start" style="white-space: pre;" direction="ltr">19</text></g><g transform="translate(232.6458610534669 10.972656250000028) rotate(0 11.199996948242188 9.599999999999994)"><text x="0" y="0" font-family="Virgil, Segoe UI Emoji" font-size="16px" fill="#343a40" text-anchor="start" style="white-space: pre;" direction="ltr">20</text></g><g transform="translate(288.4488739013673 10.972656250000028) rotate(0 7.8639984130859375 9.599999999999994)"><text x="0" y="0" font-family="Virgil, Segoe UI Emoji" font-size="16px" fill="#343a40" text-anchor="start" style="white-space: pre;" direction="ltr">21</text></g><g transform="translate(340.3306770324708 10.972656250000028) rotate(0 11.391998291015625 9.599999999999994)"><text x="0" y="0" font-family="Virgil, Segoe UI Emoji" font-size="16px" fill="#343a40" text-anchor="start" style="white-space: pre;" direction="ltr">22</text></g><g transform="translate(14.80169677734375 92.03787667410717) rotate(0 6.471992492675781 9.599999999999994)"><text x="0" y="0" font-family="Virgil, Segoe UI Emoji" font-size="16px" fill="#343a40" text-anchor="start" style="white-space: pre;" direction="ltr">17</text></g><g transform="translate(14.735038757324219 133.5891810825894) rotate(0 8.287994384765625 9.599999999999994)"><text x="0" y="0" font-family="Virgil, Segoe UI Emoji" font-size="16px" fill="#343a40" text-anchor="start" style="white-space: pre;" direction="ltr">18</text></g><g transform="translate(74.82591247558594 49.08406575520834) rotate(0 5.45599365234375 9.599999999999994)"><text x="0" y="0" font-family="Virgil, Segoe UI Emoji" font-size="16px" fill="#c92a2a" text-anchor="start" style="white-space: pre;" direction="ltr">-1</text></g><g transform="translate(126.68916320800781 48.4375) rotate(0 5.45599365234375 9.599999999999994)"><text x="0" y="0" font-family="Virgil, Segoe UI Emoji" font-size="16px" fill="#c92a2a" text-anchor="start" style="white-space: pre;" direction="ltr">-1</text></g><g transform="translate(179.2711944580078 49.730631510416686) rotate(0 5.45599365234375 9.599999999999994)"><text x="0" y="0" font-family="Virgil, Segoe UI Emoji" font-size="16px" fill="#c92a2a" text-anchor="start" style="white-space: pre;" direction="ltr">-1</text></g><g transform="translate(126.68916320800781 92.03787667410711) rotate(0 5.45599365234375 9.599999999999994)"><text x="0" y="0" font-family="Virgil, Segoe UI Emoji" font-size="16px" fill="#c92a2a" text-anchor="start" style="white-space: pre;" direction="ltr">-1</text></g><g transform="translate(238.38986434936533 52.31689453125003) rotate(0 5.45599365234375 9.599999999999994)"><text x="0" y="0" font-family="Virgil, Segoe UI Emoji" font-size="16px" fill="#c92a2a" text-anchor="start" style="white-space: pre;" direction="ltr">-1</text></g><g transform="translate(179.2711944580078 92.03787667410717) rotate(0 5.45599365234375 9.599999999999994)"><text x="0" y="0" font-family="Virgil, Segoe UI Emoji" font-size="16px" fill="#c92a2a" text-anchor="start" style="white-space: pre;" direction="ltr">-1</text></g><g transform="translate(290.85687866210947 50.37719726562503) rotate(0 5.45599365234375 9.599999999999994)"><text x="0" y="0" font-family="Virgil, Segoe UI Emoji" font-size="16px" fill="#c92a2a" text-anchor="start" style="white-space: pre;" direction="ltr">-1</text></g><g transform="translate(74.77790832519531 92.03787667410717) rotate(0 5.503997802734375 9.599999999999994)"><text x="0" y="0" font-family="Virgil, Segoe UI Emoji" font-size="16px" fill="#e67700" text-anchor="start" style="white-space: pre;" direction="ltr">0</text></g><g transform="translate(126.64115905761719 133.58918108258933) rotate(0 5.503997802734375 9.599999999999994)"><text x="0" y="0" font-family="Virgil, Segoe UI Emoji" font-size="16px" fill="#e67700" text-anchor="start" style="white-space: pre;" direction="ltr">0</text></g><g transform="translate(179.2231903076172 174.5712890625) rotate(0 5.503997802734375 9.599999999999994)"><text x="0" y="0" font-family="Virgil, Segoe UI Emoji" font-size="16px" fill="#e67700" text-anchor="start" style="white-space: pre;" direction="ltr">0</text></g><g transform="translate(12.114349365234375 174.57128906250006) rotate(0 7.0399932861328125 9.599999999999994)"><text x="0" y="0" font-family="Virgil, Segoe UI Emoji" font-size="16px" fill="#343a40" text-anchor="start" style="white-space: pre;" direction="ltr">19</text></g><g transform="translate(10.143600463867188 213.24340820312506) rotate(0 11.199996948242188 9.599999999999994)"><text x="0" y="0" font-family="Virgil, Segoe UI Emoji" font-size="16px" fill="#343a40" text-anchor="start" style="white-space: pre;" direction="ltr">20</text></g><g transform="translate(13.300003051757812 259.0580357142857) rotate(0 7.8639984130859375 9.599999999999994)"><text x="0" y="0" font-family="Virgil, Segoe UI Emoji" font-size="16px" fill="#343a40" text-anchor="start" style="white-space: pre;" direction="ltr">21</text></g><g transform="translate(10.964126586914062 296.826171875) rotate(0 11.391998291015625 9.599999999999994)"><text x="0" y="0" font-family="Virgil, Segoe UI Emoji" font-size="16px" fill="#343a40" text-anchor="start" style="white-space: pre;" direction="ltr">22</text></g><g transform="translate(10 353.6950334821428) rotate(0 11.991996765136719 9.600000000000023)"><text x="0" y="0" font-family="Virgil, Segoe UI Emoji" font-size="16px" fill="#343a40" text-anchor="start" style="white-space: pre;" direction="ltr">21*</text></g><g transform="translate(238.38986434936533 92.03787667410714) rotate(0 5.45599365234375 9.600000000000009)"><text x="0" y="0" font-family="Virgil, Segoe UI Emoji" font-size="16px" fill="#c92a2a" text-anchor="start" style="white-space: pre;" direction="ltr">-1</text></g><g transform="translate(290.85687866210947 92.03787667410711) rotate(0 5.45599365234375 9.599999999999994)"><text x="0" y="0" font-family="Virgil, Segoe UI Emoji" font-size="16px" fill="#c92a2a" text-anchor="start" style="white-space: pre;" direction="ltr">-1</text></g><g transform="translate(179.2711944580078 133.5891810825894) rotate(0 5.45599365234375 9.599999999999994)"><text x="0" y="0" font-family="Virgil, Segoe UI Emoji" font-size="16px" fill="#c92a2a" text-anchor="start" style="white-space: pre;" direction="ltr">-1</text></g><g transform="translate(238.38986434936533 133.58918108258933) rotate(0 5.45599365234375 9.599999999999994)"><text x="0" y="0" font-family="Virgil, Segoe UI Emoji" font-size="16px" fill="#c92a2a" text-anchor="start" style="white-space: pre;" direction="ltr">-1</text></g><g transform="translate(290.85687866210947 133.58918108258933) rotate(0 5.45599365234375 9.599999999999994)"><text x="0" y="0" font-family="Virgil, Segoe UI Emoji" font-size="16px" fill="#c92a2a" text-anchor="start" style="white-space: pre;" direction="ltr">-1</text></g><g transform="translate(238.3418601989747 213.243408203125) rotate(0 5.503997802734375 9.599999999999994)"><text x="0" y="0" font-family="Virgil, Segoe UI Emoji" font-size="16px" fill="#e67700" text-anchor="start" style="white-space: pre;" direction="ltr">0</text></g><g transform="translate(290.67996826171884 259.0580357142857) rotate(0 5.503997802734375 9.599999999999994)"><text x="0" y="0" font-family="Virgil, Segoe UI Emoji" font-size="16px" fill="#e67700" text-anchor="start" style="white-space: pre;" direction="ltr">0</text></g><g transform="translate(238.38986434936533 174.5712890625) rotate(0 5.45599365234375 9.599999999999994)"><text x="0" y="0" font-family="Virgil, Segoe UI Emoji" font-size="16px" fill="#c92a2a" text-anchor="start" style="white-space: pre;" direction="ltr">-1</text></g><g transform="translate(290.85687866210947 174.5712890625) rotate(0 5.45599365234375 9.599999999999994)"><text x="0" y="0" font-family="Virgil, Segoe UI Emoji" font-size="16px" fill="#c92a2a" text-anchor="start" style="white-space: pre;" direction="ltr">-1</text></g><g transform="translate(290.85687866210947 213.243408203125) rotate(0 5.45599365234375 9.599999999999994)"><text x="0" y="0" font-family="Virgil, Segoe UI Emoji" font-size="16px" fill="#c92a2a" text-anchor="start" style="white-space: pre;" direction="ltr">-1</text></g><g transform="translate(344.6796760559083 51.02376302083337) rotate(0 7.167999267578125 9.599999999999994)"><text x="0" y="0" font-family="Virgil, Segoe UI Emoji" font-size="16px" fill="#5c940d" text-anchor="start" style="white-space: pre;" direction="ltr">+1</text></g><g transform="translate(344.6796760559083 92.03787667410717) rotate(0 7.167999267578125 9.599999999999994)"><text x="0" y="0" font-family="Virgil, Segoe UI Emoji" font-size="16px" fill="#5c940d" text-anchor="start" style="white-space: pre;" direction="ltr">+1</text></g><g transform="translate(344.6796760559083 133.5891810825894) rotate(0 7.167999267578125 9.599999999999994)"><text x="0" y="0" font-family="Virgil, Segoe UI Emoji" font-size="16px" fill="#5c940d" text-anchor="start" style="white-space: pre;" direction="ltr">+1</text></g><g transform="translate(344.6796760559083 174.57128906250006) rotate(0 7.167999267578125 9.599999999999994)"><text x="0" y="0" font-family="Virgil, Segoe UI Emoji" font-size="16px" fill="#5c940d" text-anchor="start" style="white-space: pre;" direction="ltr">+1</text></g><g transform="translate(344.6796760559083 213.24340820312506) rotate(0 7.167999267578125 9.599999999999994)"><text x="0" y="0" font-family="Virgil, Segoe UI Emoji" font-size="16px" fill="#5c940d" text-anchor="start" style="white-space: pre;" direction="ltr">+1</text></g><g transform="translate(344.6796760559083 259.0580357142857) rotate(0 7.167999267578125 9.599999999999994)"><text x="0" y="0" font-family="Virgil, Segoe UI Emoji" font-size="16px" fill="#5c940d" text-anchor="start" style="white-space: pre;" direction="ltr">+1</text></g><g transform="translate(59.532440185546875 353.6950334821428) rotate(0 20.143997192382812 9.600000000000023)"><text x="0" y="0" font-family="Virgil, Segoe UI Emoji" font-size="16px" fill="#5f3dc4" text-anchor="start" style="white-space: pre;" direction="ltr">+3/2</text></g><g transform="translate(111.39569091796875 353.6950334821428) rotate(0 20.143997192382812 9.600000000000023)"><text x="0" y="0" font-family="Virgil, Segoe UI Emoji" font-size="16px" fill="#5f3dc4" text-anchor="start" style="white-space: pre;" direction="ltr">+3/2</text></g><g transform="translate(163.97772216796875 353.6950334821428) rotate(0 20.143997192382812 9.600000000000023)"><text x="0" y="0" font-family="Virgil, Segoe UI Emoji" font-size="16px" fill="#5f3dc4" text-anchor="start" style="white-space: pre;" direction="ltr">+3/2</text></g><g transform="translate(223.09639205932626 353.6950334821428) rotate(0 20.143997192382812 9.600000000000023)"><text x="0" y="0" font-family="Virgil, Segoe UI Emoji" font-size="16px" fill="#5f3dc4" text-anchor="start" style="white-space: pre;" direction="ltr">+3/2</text></g><g transform="translate(275.5634063720704 353.6950334821428) rotate(0 20.143997192382812 9.600000000000023)"><text x="0" y="0" font-family="Virgil, Segoe UI Emoji" font-size="16px" fill="#5f3dc4" text-anchor="start" style="white-space: pre;" direction="ltr">+3/2</text></g><g transform="translate(331.09820938110363 353.6950334821428) rotate(0 20.143997192382812 9.600000000000023)"><text x="0" y="0" font-family="Virgil, Segoe UI Emoji" font-size="16px" fill="#5f3dc4" text-anchor="start" style="white-space: pre;" direction="ltr">+3/2</text></g><g transform="translate(75.14231872558594 296.82617187499994) rotate(0 5.45599365234375 9.599999999999994)"><text x="0" y="0" font-family="Virgil, Segoe UI Emoji" font-size="16px" fill="#c92a2a" text-anchor="start" style="white-space: pre;" direction="ltr">-1</text></g><g transform="translate(127.00556945800781 296.82617187499994) rotate(0 5.45599365234375 9.599999999999994)"><text x="0" y="0" font-family="Virgil, Segoe UI Emoji" font-size="16px" fill="#c92a2a" text-anchor="start" style="white-space: pre;" direction="ltr">-1</text></g><g transform="translate(179.5876007080078 296.82617187499994) rotate(0 5.45599365234375 9.599999999999994)"><text x="0" y="0" font-family="Virgil, Segoe UI Emoji" font-size="16px" fill="#c92a2a" text-anchor="start" style="white-space: pre;" direction="ltr">-1</text></g><g transform="translate(238.70627059936533 296.82617187499994) rotate(0 5.45599365234375 9.599999999999994)"><text x="0" y="0" font-family="Virgil, Segoe UI Emoji" font-size="16px" fill="#c92a2a" text-anchor="start" style="white-space: pre;" direction="ltr">-1</text></g><g transform="translate(291.17328491210947 296.82617187499994) rotate(0 5.45599365234375 9.599999999999994)"><text x="0" y="0" font-family="Virgil, Segoe UI Emoji" font-size="16px" fill="#c92a2a" text-anchor="start" style="white-space: pre;" direction="ltr">-1</text></g><g transform="translate(346.7080879211427 296.82617187499994) rotate(0 5.45599365234375 9.599999999999994)"><text x="0" y="0" font-family="Virgil, Segoe UI Emoji" font-size="16px" fill="#c92a2a" text-anchor="start" style="white-space: pre;" direction="ltr">-1</text></g><g transform="translate(73.11390686035156 133.58918108258933) rotate(0 7.167999267578125 9.599999999999994)"><text x="0" y="0" font-family="Virgil, Segoe UI Emoji" font-size="16px" fill="#5c940d" text-anchor="start" style="white-space: pre;" direction="ltr">+1</text></g><g transform="translate(72.99281311035156 174.5712890625) rotate(0 7.167999267578125 9.599999999999994)"><text x="0" y="0" font-family="Virgil, Segoe UI Emoji" font-size="16px" fill="#5c940d" text-anchor="start" style="white-space: pre;" direction="ltr">+1</text></g><g transform="translate(73.11390686035156 213.243408203125) rotate(0 7.167999267578125 9.599999999999994)"><text x="0" y="0" font-family="Virgil, Segoe UI Emoji" font-size="16px" fill="#5c940d" text-anchor="start" style="white-space: pre;" direction="ltr">+1</text></g><g transform="translate(73.11390686035156 259.0580357142857) rotate(0 7.167999267578125 9.599999999999994)"><text x="0" y="0" font-family="Virgil, Segoe UI Emoji" font-size="16px" fill="#5c940d" text-anchor="start" style="white-space: pre;" direction="ltr">+1</text></g><g transform="translate(124.97715759277344 174.57128906250006) rotate(0 7.167999267578125 9.599999999999994)"><text x="0" y="0" font-family="Virgil, Segoe UI Emoji" font-size="16px" fill="#5c940d" text-anchor="start" style="white-space: pre;" direction="ltr">+1</text></g><g transform="translate(124.97715759277344 213.24340820312506) rotate(0 7.167999267578125 9.599999999999994)"><text x="0" y="0" font-family="Virgil, Segoe UI Emoji" font-size="16px" fill="#5c940d" text-anchor="start" style="white-space: pre;" direction="ltr">+1</text></g><g transform="translate(177.55918884277344 213.243408203125) rotate(0 7.167999267578125 9.599999999999994)"><text x="0" y="0" font-family="Virgil, Segoe UI Emoji" font-size="16px" fill="#5c940d" text-anchor="start" style="white-space: pre;" direction="ltr">+1</text></g><g transform="translate(124.97715759277344 259.0580357142857) rotate(0 7.167999267578125 9.599999999999994)"><text x="0" y="0" font-family="Virgil, Segoe UI Emoji" font-size="16px" fill="#5c940d" text-anchor="start" style="white-space: pre;" direction="ltr">+1</text></g><g transform="translate(177.55918884277344 259.0580357142857) rotate(0 7.167999267578125 9.599999999999994)"><text x="0" y="0" font-family="Virgil, Segoe UI Emoji" font-size="16px" fill="#5c940d" text-anchor="start" style="white-space: pre;" direction="ltr">+1</text></g><g transform="translate(236.67785873413095 259.05803571428567) rotate(0 7.167999267578125 9.599999999999994)"><text x="0" y="0" font-family="Virgil, Segoe UI Emoji" font-size="16px" fill="#5c940d" text-anchor="start" style="white-space: pre;" direction="ltr">+1</text></g><g stroke-linecap="round"><g transform="translate(51.421875 31.307031250000023) rotate(0 -0.5261722723208209 171.84097717588767)"><path d="M-0.64 0.95 C-0.87 58.09, -1.41 285.4, -1.71 342.34 M1.22 0.4 C0.93 57.7, -1.53 286.1, -2.27 343.28" stroke="#495057" stroke-width="1" fill="none"></path></g></g><mask></mask><g stroke-linecap="round"><g transform="translate(52.639453522320764 29.95238219911235) rotate(0 197.7992880782578 -0.027734636156864667)"><path d="M-0.15 -0.87 C66.19 -1, 331.31 0.34, 397.28 0.22 M-1.68 1.28 C64.62 1.36, 330.03 -1.01, 396.66 -1.34" stroke="#495057" stroke-width="1" fill="none"></path></g></g><mask></mask><g transform="translate(414.9220657348633 10) rotate(0 11.991996765136719 9.599999999999994)"><text x="0" y="0" font-family="Virgil, Segoe UI Emoji" font-size="16px" fill="#343a40" text-anchor="start" style="white-space: pre;" direction="ltr">21*</text></g><g transform="translate(421.4100646972656 353.6950334821428) rotate(0 5.503997802734375 9.600000000000023)"><text x="0" y="0" font-family="Virgil, Segoe UI Emoji" font-size="16px" fill="#e67700" text-anchor="start" style="white-space: pre;" direction="ltr">0</text></g><g transform="translate(421.4100646972656 259.0580357142857) rotate(0 5.503997802734375 9.599999999999994)"><text x="0" y="0" font-family="Virgil, Segoe UI Emoji" font-size="16px" fill="#e67700" text-anchor="start" style="white-space: pre;" direction="ltr">0</text></g><g transform="translate(421.45806884765625 51.670328776041714) rotate(0 5.45599365234375 9.599999999999994)"><text x="0" y="0" font-family="Virgil, Segoe UI Emoji" font-size="16px" fill="#c92a2a" text-anchor="start" style="white-space: pre;" direction="ltr">-1</text></g><g transform="translate(421.45806884765625 92.03787667410717) rotate(0 5.45599365234375 9.599999999999994)"><text x="0" y="0" font-family="Virgil, Segoe UI Emoji" font-size="16px" fill="#c92a2a" text-anchor="start" style="white-space: pre;" direction="ltr">-1</text></g><g transform="translate(421.45806884765625 133.58918108258933) rotate(0 5.45599365234375 9.599999999999994)"><text x="0" y="0" font-family="Virgil, Segoe UI Emoji" font-size="16px" fill="#c92a2a" text-anchor="start" style="white-space: pre;" direction="ltr">-1</text></g><g transform="translate(421.45806884765625 174.5712890625) rotate(0 5.45599365234375 9.599999999999994)"><text x="0" y="0" font-family="Virgil, Segoe UI Emoji" font-size="16px" fill="#c92a2a" text-anchor="start" style="white-space: pre;" direction="ltr">-1</text></g><g transform="translate(421.45806884765625 213.243408203125) rotate(0 5.45599365234375 9.599999999999994)"><text x="0" y="0" font-family="Virgil, Segoe UI Emoji" font-size="16px" fill="#c92a2a" text-anchor="start" style="white-space: pre;" direction="ltr">-1</text></g><g transform="translate(421.45806884765625 296.82617187499994) rotate(0 5.45599365234375 9.599999999999994)"><text x="0" y="0" font-family="Virgil, Segoe UI Emoji" font-size="16px" fill="#c92a2a" text-anchor="start" style="white-space: pre;" direction="ltr">-1</text></g><g stroke-linecap="round" transform="translate(334.58984375 276.30703125) rotate(0 18.59375 21.79296875)"><path d="M26.42 2.46 C29.82 4.37, 33.78 9.63, 35.55 13.81 C37.32 18, 38.25 23.37, 37.06 27.57 C35.87 31.77, 31.84 36.37, 28.43 39.04 C25.01 41.71, 20.32 43.92, 16.56 43.61 C12.8 43.29, 8.58 40.49, 5.86 37.16 C3.13 33.83, 0.48 28.27, 0.22 23.65 C-0.04 19.02, 1.83 13.19, 4.3 9.43 C6.78 5.66, 10.97 2.01, 15.06 1.06 C19.15 0.12, 26.12 2.77, 28.84 3.75 C31.55 4.74, 31.36 6.53, 31.34 6.96 M21.62 1.05 C25.78 1.44, 30.41 4.48, 32.97 7.5 C35.53 10.52, 37.02 14.61, 36.96 19.17 C36.9 23.73, 34.96 31.08, 32.61 34.85 C30.26 38.62, 26.29 40.54, 22.87 41.79 C19.44 43.04, 15.82 44.31, 12.06 42.36 C8.3 40.41, 2.33 34.49, 0.3 30.07 C-1.73 25.65, -1.56 20.38, -0.11 15.84 C1.34 11.3, 5.38 5.34, 9 2.81 C12.62 0.28, 19.74 1.09, 21.59 0.64 C23.45 0.19, 20.36 0, 20.11 0.13" stroke="#495057" stroke-width="1" fill="none"></path></g><g stroke-linecap="round"><g transform="translate(372.15683573198976 292.4093101691309) rotate(0 56.00948834142878 -17.571076887286495)"><path d="M-0.76 1.96 C39.4 -14.45, 77.46 -26.22, 112.01 -36.17 M-0.52 0.21 C23.48 -7.1, 46.16 -15.79, 112.78 -37.1" stroke="#495057" stroke-width="1" fill="none"></path></g><g transform="translate(372.15683573198976 292.4093101691309) rotate(0 56.00948834142878 -17.571076887286495)"><path d="M113.24 -36.74 L100.55 -26.37 L98.46 -39.98 L111.92 -37.95" stroke="none" stroke-width="0" fill="#495057" fill-rule="evenodd"></path><path d="M112.21 -35.63 C108.81 -33.53, 103.91 -28.8, 101.69 -25.68 M112.39 -36.95 C110.9 -34.31, 108.38 -32.91, 102.26 -26.38 M101.5 -26.33 C101.53 -31.05, 98.3 -34.01, 97.72 -39.98 M101.95 -27.3 C101.31 -28.99, 100.53 -32.37, 97.37 -38.48 M99.08 -40.15 C102.85 -38.51, 106.73 -38.68, 112.87 -37.66 M98.03 -39.31 C102.1 -37.83, 106 -37.34, 112.12 -36.74 M112.78 -37.1 C112.78 -37.1, 112.78 -37.1, 112.78 -37.1 M112.78 -37.1 C112.78 -37.1, 112.78 -37.1, 112.78 -37.1" stroke="#495057" stroke-width="1" fill="none"></path></g></g><mask></mask><g transform="translate(496.4453125 238.58828125000002) rotate(0 123.04792022705078 19.19999999999999)"><text x="0" y="-19.2" font-family="Virgil, Segoe UI Emoji" font-size="16px" fill="#495057" text-anchor="start" style="white-space: pre;" direction="ltr">Dealer's edge comes from here.</text><text x="0" y="0" font-family="Virgil, Segoe UI Emoji" font-size="16px" fill="#495057" text-anchor="start" style="white-space: pre;" direction="ltr">How come this is not a tie ?!</text></g></svg>