<svg version="1.1" xmlns="http://www.w3.org/2000/svg" viewBox="0 0 1227.6235269498425 354.3861607142858" width="3682.8705808495274" height="1063.1584821428573">
  <!-- svg-source:excalidraw -->
  
  <defs>
    <style class="style-fonts">
      @font-face {
        font-family: "Virgil";
        src: url("https://excalidraw.com/Virgil.woff2");
      }
      @font-face {
        font-family: "Cascadia";
        src: url("https://excalidraw.com/Cascadia.woff2");
      }
    </style>
  </defs>
  <g stroke-opacity="0.6" fill-opacity="0.6" stroke-linecap="round" transform="translate(175.56695583062827 110.39800206304108) rotate(0 27 27.5)"><path d="M54 27.5 C54 29.09, 53.86 30.71, 53.59 32.28 C53.32 33.84, 52.91 35.41, 52.37 36.91 C51.84 38.4, 51.16 39.87, 50.38 41.25 C49.6 42.63, 48.69 43.96, 47.68 45.18 C46.68 46.4, 45.55 47.54, 44.36 48.57 C43.16 49.59, 41.85 50.52, 40.5 51.32 C39.15 52.11, 37.7 52.8, 36.23 53.34 C34.77 53.89, 33.23 54.31, 31.69 54.58 C30.15 54.86, 28.56 55, 27 55 C25.44 55, 23.85 54.86, 22.31 54.58 C20.77 54.31, 19.23 53.89, 17.77 53.34 C16.3 52.8, 14.85 52.11, 13.5 51.32 C12.15 50.52, 10.84 49.59, 9.64 48.57 C8.45 47.54, 7.32 46.4, 6.32 45.18 C5.31 43.96, 4.4 42.63, 3.62 41.25 C2.84 39.87, 2.16 38.4, 1.63 36.91 C1.09 35.41, 0.68 33.84, 0.41 32.28 C0.14 30.71, 0 29.09, 0 27.5 C0 25.91, 0.14 24.29, 0.41 22.72 C0.68 21.16, 1.09 19.59, 1.63 18.09 C2.16 16.6, 2.84 15.13, 3.62 13.75 C4.4 12.37, 5.31 11.04, 6.32 9.82 C7.32 8.6, 8.45 7.46, 9.64 6.43 C10.84 5.41, 12.15 4.48, 13.5 3.68 C14.85 2.89, 16.3 2.2, 17.77 1.66 C19.23 1.11, 20.77 0.69, 22.31 0.42 C23.85 0.14, 25.44 0, 27 0 C28.56 0, 30.15 0.14, 31.69 0.42 C33.23 0.69, 34.77 1.11, 36.23 1.66 C37.7 2.2, 39.15 2.89, 40.5 3.68 C41.85 4.48, 43.16 5.41, 44.36 6.43 C45.55 7.46, 46.68 8.6, 47.68 9.82 C48.69 11.04, 49.6 12.37, 50.38 13.75 C51.16 15.13, 51.84 16.6, 52.37 18.09 C52.91 19.59, 53.32 21.16, 53.59 22.72 C53.86 24.29, 53.93 26.7, 54 27.5 C54.07 28.3, 54.07 26.7, 54 27.5" stroke="#6741d9" stroke-width="4" fill="none"></path></g><g stroke-opacity="0.6" fill-opacity="0.6" transform="translate(197.4697016448415 127.60256558041101) rotate(0 5.00537109375 10.350000000000023)"><text x="5.00537109375" y="0" font-family="Helvetica, Segoe UI Emoji" font-size="18.000000000000004px" fill="#1e1e1e" text-anchor="middle" style="white-space: pre;" direction="ltr" dominant-baseline="text-before-edge">4</text></g><g stroke-opacity="0.6" fill-opacity="0.6" stroke-linecap="round" transform="translate(30.440408549784138 96.77049090232686) rotate(0 21.251953125 23.5)"><path d="M42.5 23.5 C42.5 24.86, 42.39 26.24, 42.18 27.58 C41.97 28.92, 41.64 30.26, 41.22 31.54 C40.8 32.82, 40.27 34.07, 39.66 35.25 C39.04 36.43, 38.32 37.56, 37.53 38.61 C36.74 39.65, 35.85 40.63, 34.91 41.5 C33.97 42.38, 32.94 43.17, 31.88 43.85 C30.81 44.53, 29.68 45.12, 28.52 45.58 C27.36 46.05, 26.15 46.41, 24.94 46.64 C23.73 46.88, 22.48 47, 21.25 47 C20.02 47, 18.77 46.88, 17.56 46.64 C16.35 46.41, 15.14 46.05, 13.98 45.58 C12.83 45.12, 11.69 44.53, 10.63 43.85 C9.56 43.17, 8.53 42.38, 7.59 41.5 C6.65 40.63, 5.76 39.65, 4.97 38.61 C4.18 37.56, 3.46 36.43, 2.85 35.25 C2.23 34.07, 1.7 32.82, 1.28 31.54 C0.86 30.26, 0.54 28.92, 0.32 27.58 C0.11 26.24, 0 24.86, 0 23.5 C0 22.14, 0.11 20.76, 0.32 19.42 C0.54 18.08, 0.86 16.74, 1.28 15.46 C1.7 14.18, 2.23 12.93, 2.85 11.75 C3.46 10.57, 4.18 9.44, 4.97 8.39 C5.76 7.35, 6.65 6.37, 7.59 5.5 C8.53 4.62, 9.56 3.83, 10.63 3.15 C11.69 2.47, 12.83 1.88, 13.98 1.42 C15.14 0.95, 16.35 0.59, 17.56 0.36 C18.77 0.12, 20.02 0, 21.25 0 C22.48 0, 23.73 0.12, 24.94 0.36 C26.15 0.59, 27.36 0.95, 28.52 1.42 C29.68 1.88, 30.81 2.47, 31.88 3.15 C32.94 3.83, 33.97 4.62, 34.91 5.5 C35.85 6.37, 36.74 7.35, 37.53 8.39 C38.32 9.44, 39.04 10.57, 39.66 11.75 C40.27 12.93, 40.8 14.18, 41.22 15.46 C41.64 16.74, 41.97 18.08, 42.18 19.42 C42.39 20.76, 42.45 22.82, 42.5 23.5 C42.56 24.18, 42.56 22.82, 42.5 23.5" stroke="#6741d9" stroke-width="4" fill="none"></path></g><g stroke-opacity="0.6" fill-opacity="0.6" transform="translate(44.995039631637994 108.65348154444291) rotate(0 6.669921875 11.5)"><text x="6.669921875" y="0" font-family="Helvetica, Segoe UI Emoji" font-size="20px" fill="#1e1e1e" text-anchor="middle" style="white-space: pre;" direction="ltr" dominant-baseline="text-before-edge">S</text></g><g stroke-opacity="0.6" fill-opacity="0.6" stroke-linecap="round" transform="translate(27.65205627705683 42.542812330898414) rotate(0 21.251953125 21.251953125)"><path d="M42.5 21.25 C42.5 22.48, 42.39 23.73, 42.18 24.94 C41.97 26.15, 41.64 27.36, 41.22 28.52 C40.8 29.68, 40.27 30.81, 39.66 31.88 C39.04 32.94, 38.32 33.97, 37.53 34.91 C36.74 35.85, 35.85 36.74, 34.91 37.53 C33.97 38.32, 32.94 39.04, 31.88 39.66 C30.81 40.27, 29.68 40.8, 28.52 41.22 C27.36 41.64, 26.15 41.97, 24.94 42.18 C23.73 42.39, 22.48 42.5, 21.25 42.5 C20.02 42.5, 18.77 42.39, 17.56 42.18 C16.35 41.97, 15.14 41.64, 13.98 41.22 C12.83 40.8, 11.69 40.27, 10.63 39.66 C9.56 39.04, 8.53 38.32, 7.59 37.53 C6.65 36.74, 5.76 35.85, 4.97 34.91 C4.18 33.97, 3.46 32.94, 2.85 31.88 C2.23 30.81, 1.7 29.68, 1.28 28.52 C0.86 27.36, 0.54 26.15, 0.32 24.94 C0.11 23.73, 0 22.48, 0 21.25 C0 20.02, 0.11 18.77, 0.32 17.56 C0.54 16.35, 0.86 15.14, 1.28 13.98 C1.7 12.83, 2.23 11.69, 2.85 10.63 C3.46 9.56, 4.18 8.53, 4.97 7.59 C5.76 6.65, 6.65 5.76, 7.59 4.97 C8.53 4.18, 9.56 3.46, 10.63 2.85 C11.69 2.23, 12.83 1.7, 13.98 1.28 C15.14 0.86, 16.35 0.54, 17.56 0.32 C18.77 0.11, 20.02 0, 21.25 0 C22.48 0, 23.73 0.11, 24.94 0.32 C26.15 0.54, 27.36 0.86, 28.52 1.28 C29.68 1.7, 30.81 2.23, 31.88 2.85 C32.94 3.46, 33.97 4.18, 34.91 4.97 C35.85 5.76, 36.74 6.65, 37.53 7.59 C38.32 8.53, 39.04 9.56, 39.66 10.63 C40.27 11.69, 40.8 12.83, 41.22 13.98 C41.64 15.14, 41.97 16.35, 42.18 17.56 C42.39 18.77, 42.45 20.64, 42.5 21.25 C42.56 21.87, 42.56 20.64, 42.5 21.25" stroke="#6741d9" stroke-width="4" fill="none"></path></g><g stroke-linecap="round"><g stroke-opacity="0.6" fill-opacity="0.6" transform="translate(77.06221252705683 119.09080340232686) rotate(0 48.70758928571428 10.454799107142776)"><path d="M0 0 C16.24 3.48, 81.18 17.42, 97.42 20.91 M0 0 C16.24 3.48, 81.18 17.42, 97.42 20.91" stroke="#1e1e1e" stroke-width="4" fill="none"></path></g></g><mask></mask><g stroke-linecap="round"><g stroke-opacity="0.6" fill-opacity="0.6" transform="translate(73.81528172348538 177.38217414096334) rotate(0 50.495789366883116 -17.153535917207705)"><path d="M0 0 C16.83 -5.72, 84.16 -28.59, 100.99 -34.31 M0 0 C16.83 -5.72, 84.16 -28.59, 100.99 -34.31" stroke="#1e1e1e" stroke-width="4" fill="none"></path></g></g><mask></mask><g stroke-opacity="0.6" fill-opacity="0.6" stroke-linecap="round" transform="translate(32.027293019480965 151.35222622429637) rotate(0 21.251953125 23.5)"><path d="M42.5 23.5 C42.5 24.86, 42.39 26.24, 42.18 27.58 C41.97 28.92, 41.64 30.26, 41.22 31.54 C40.8 32.82, 40.27 34.07, 39.66 35.25 C39.04 36.43, 38.32 37.56, 37.53 38.61 C36.74 39.65, 35.85 40.63, 34.91 41.5 C33.97 42.38, 32.94 43.17, 31.88 43.85 C30.81 44.53, 29.68 45.12, 28.52 45.58 C27.36 46.05, 26.15 46.41, 24.94 46.64 C23.73 46.88, 22.48 47, 21.25 47 C20.02 47, 18.77 46.88, 17.56 46.64 C16.35 46.41, 15.14 46.05, 13.98 45.58 C12.83 45.12, 11.69 44.53, 10.63 43.85 C9.56 43.17, 8.53 42.38, 7.59 41.5 C6.65 40.63, 5.76 39.65, 4.97 38.61 C4.18 37.56, 3.46 36.43, 2.85 35.25 C2.23 34.07, 1.7 32.82, 1.28 31.54 C0.86 30.26, 0.54 28.92, 0.32 27.58 C0.11 26.24, 0 24.86, 0 23.5 C0 22.14, 0.11 20.76, 0.32 19.42 C0.54 18.08, 0.86 16.74, 1.28 15.46 C1.7 14.18, 2.23 12.93, 2.85 11.75 C3.46 10.57, 4.18 9.44, 4.97 8.39 C5.76 7.35, 6.65 6.37, 7.59 5.5 C8.53 4.62, 9.56 3.83, 10.63 3.15 C11.69 2.47, 12.83 1.88, 13.98 1.42 C15.14 0.95, 16.35 0.59, 17.56 0.36 C18.77 0.12, 20.02 0, 21.25 0 C22.48 0, 23.73 0.12, 24.94 0.36 C26.15 0.59, 27.36 0.95, 28.52 1.42 C29.68 1.88, 30.81 2.47, 31.88 3.15 C32.94 3.83, 33.97 4.62, 34.91 5.5 C35.85 6.37, 36.74 7.35, 37.53 8.39 C38.32 9.44, 39.04 10.57, 39.66 11.75 C40.27 12.93, 40.8 14.18, 41.22 15.46 C41.64 16.74, 41.97 18.08, 42.18 19.42 C42.39 20.76, 42.45 22.82, 42.5 23.5 C42.56 24.18, 42.56 22.82, 42.5 23.5" stroke="#6741d9" stroke-width="4" fill="none"></path></g><g stroke-opacity="0.6" fill-opacity="0.6" transform="translate(47.14344753883482 163.23521686641243) rotate(0 6.1083984375 11.5)"><text x="6.1083984375" y="0" font-family="Helvetica, Segoe UI Emoji" font-size="20px" fill="#1e1e1e" text-anchor="middle" style="white-space: pre;" direction="ltr" dominant-baseline="text-before-edge">T</text></g><g stroke-linecap="round"><g stroke-opacity="0.6" fill-opacity="0.6" transform="translate(70.88504464285774 66.94967955221864) rotate(0 51.913529829545496 31.72991071428578)"><path d="M0 0 C17.3 10.58, 86.52 52.88, 103.83 63.46" stroke="#ced4da" stroke-width="4.5" fill="none" stroke-dasharray="1.5 10"></path></g></g><mask></mask><g stroke-linecap="round"><g stroke-opacity="0.6" fill-opacity="0.6" transform="translate(71.4466314935072 235.61947460092006) rotate(0 52.41347909902595 -42.58421266233768)"><path d="M0 0 C17.47 -14.19, 87.36 -70.97, 104.83 -85.17" stroke="#ced4da" stroke-width="4.5" fill="none" stroke-dasharray="1.5 10"></path></g></g><mask></mask><g stroke-opacity="0.6" fill-opacity="0.6" stroke-linecap="round" transform="translate(30.002185639881475 212.29520089285734) rotate(0 21.251953125 21.251953125)"><path d="M42.5 21.25 C42.5 22.48, 42.39 23.73, 42.18 24.94 C41.97 26.15, 41.64 27.36, 41.22 28.52 C40.8 29.68, 40.27 30.81, 39.66 31.88 C39.04 32.94, 38.32 33.97, 37.53 34.91 C36.74 35.85, 35.85 36.74, 34.91 37.53 C33.97 38.32, 32.94 39.04, 31.88 39.66 C30.81 40.27, 29.68 40.8, 28.52 41.22 C27.36 41.64, 26.15 41.97, 24.94 42.18 C23.73 42.39, 22.48 42.5, 21.25 42.5 C20.02 42.5, 18.77 42.39, 17.56 42.18 C16.35 41.97, 15.14 41.64, 13.98 41.22 C12.83 40.8, 11.69 40.27, 10.63 39.66 C9.56 39.04, 8.53 38.32, 7.59 37.53 C6.65 36.74, 5.76 35.85, 4.97 34.91 C4.18 33.97, 3.46 32.94, 2.85 31.88 C2.23 30.81, 1.7 29.68, 1.28 28.52 C0.86 27.36, 0.54 26.15, 0.32 24.94 C0.11 23.73, 0 22.48, 0 21.25 C0 20.02, 0.11 18.77, 0.32 17.56 C0.54 16.35, 0.86 15.14, 1.28 13.98 C1.7 12.83, 2.23 11.69, 2.85 10.63 C3.46 9.56, 4.18 8.53, 4.97 7.59 C5.76 6.65, 6.65 5.76, 7.59 4.97 C8.53 4.18, 9.56 3.46, 10.63 2.85 C11.69 2.23, 12.83 1.7, 13.98 1.28 C15.14 0.86, 16.35 0.54, 17.56 0.32 C18.77 0.11, 20.02 0, 21.25 0 C22.48 0, 23.73 0.11, 24.94 0.32 C26.15 0.54, 27.36 0.86, 28.52 1.28 C29.68 1.7, 30.81 2.23, 31.88 2.85 C32.94 3.46, 33.97 4.18, 34.91 4.97 C35.85 5.76, 36.74 6.65, 37.53 7.59 C38.32 8.53, 39.04 9.56, 39.66 10.63 C40.27 11.69, 40.8 12.83, 41.22 13.98 C41.64 15.14, 41.97 16.35, 42.18 17.56 C42.39 18.77, 42.45 20.64, 42.5 21.25 C42.56 21.87, 42.56 20.64, 42.5 21.25" stroke="#6741d9" stroke-width="4" fill="none"></path></g><g stroke-opacity="0.6" fill-opacity="0.6" stroke-linecap="round" transform="translate(10 10) rotate(0 117.30189732142857 167.1930803571429)"><path d="M0 0 C56.3 0, 112.6 0, 234.6 0 M234.6 0 C234.6 110.24, 234.6 220.48, 234.6 334.39 M234.6 334.39 C165.37 334.39, 96.13 334.39, 0 334.39 M0 334.39 C0 209.09, 0 83.8, 0 0" stroke="#ced4da" stroke-width="4.5" fill="none" stroke-dasharray="8 12"></path></g><g stroke-opacity="0.6" fill-opacity="0.6" transform="translate(52.084821428571445 297.4386160714282) rotate(0 92.0302734375 20.700000000000045)"><text x="0" y="0" font-family="Helvetica, Segoe UI Emoji" font-size="36px" fill="#4dabf7" text-anchor="start" style="white-space: pre;" direction="ltr" dominant-baseline="text-before-edge">row/column</text></g><g stroke-opacity="0.6" fill-opacity="0.6" transform="translate(262.44419642857156 107.41127232142844) rotate(0 95.6103515625 34.5)"><text x="0" y="0" font-family="Helvetica, Segoe UI Emoji" font-size="20px" fill="#1e1e1e" text-anchor="start" style="white-space: pre;" direction="ltr" dominant-baseline="text-before-edge">N("4") = {S, T} </text><text x="0" y="23" font-family="Helvetica, Segoe UI Emoji" font-size="20px" fill="#1e1e1e" text-anchor="start" style="white-space: pre;" direction="ltr" dominant-baseline="text-before-edge">S and T on the same </text><text x="0" y="46" font-family="Helvetica, Segoe UI Emoji" font-size="20px" fill="#1e1e1e" text-anchor="start" style="white-space: pre;" direction="ltr" dominant-baseline="text-before-edge">row/column</text></g><g stroke-opacity="0.6" fill-opacity="0.6" stroke-linecap="round" transform="translate(178.17885044642958 45.53152901785688) rotate(0 21.251953125 21.251953125)"><path d="M42.5 21.25 C42.5 22.48, 42.39 23.73, 42.18 24.94 C41.97 26.15, 41.64 27.36, 41.22 28.52 C40.8 29.68, 40.27 30.81, 39.66 31.88 C39.04 32.94, 38.32 33.97, 37.53 34.91 C36.74 35.85, 35.85 36.74, 34.91 37.53 C33.97 38.32, 32.94 39.04, 31.88 39.66 C30.81 40.27, 29.68 40.8, 28.52 41.22 C27.36 41.64, 26.15 41.97, 24.94 42.18 C23.73 42.39, 22.48 42.5, 21.25 42.5 C20.02 42.5, 18.77 42.39, 17.56 42.18 C16.35 41.97, 15.14 41.64, 13.98 41.22 C12.83 40.8, 11.69 40.27, 10.63 39.66 C9.56 39.04, 8.53 38.32, 7.59 37.53 C6.65 36.74, 5.76 35.85, 4.97 34.91 C4.18 33.97, 3.46 32.94, 2.85 31.88 C2.23 30.81, 1.7 29.68, 1.28 28.52 C0.86 27.36, 0.54 26.15, 0.32 24.94 C0.11 23.73, 0 22.48, 0 21.25 C0 20.02, 0.11 18.77, 0.32 17.56 C0.54 16.35, 0.86 15.14, 1.28 13.98 C1.7 12.83, 2.23 11.69, 2.85 10.63 C3.46 9.56, 4.18 8.53, 4.97 7.59 C5.76 6.65, 6.65 5.76, 7.59 4.97 C8.53 4.18, 9.56 3.46, 10.63 2.85 C11.69 2.23, 12.83 1.7, 13.98 1.28 C15.14 0.86, 16.35 0.54, 17.56 0.32 C18.77 0.11, 20.02 0, 21.25 0 C22.48 0, 23.73 0.11, 24.94 0.32 C26.15 0.54, 27.36 0.86, 28.52 1.28 C29.68 1.7, 30.81 2.23, 31.88 2.85 C32.94 3.46, 33.97 4.18, 34.91 4.97 C35.85 5.76, 36.74 6.65, 37.53 7.59 C38.32 8.53, 39.04 9.56, 39.66 10.63 C40.27 11.69, 40.8 12.83, 41.22 13.98 C41.64 15.14, 41.97 16.35, 42.18 17.56 C42.39 18.77, 42.45 20.64, 42.5 21.25 C42.56 21.87, 42.56 20.64, 42.5 21.25" stroke="#6741d9" stroke-width="4" fill="none"></path></g><g stroke-opacity="0.6" fill-opacity="0.6" stroke-linecap="round" transform="translate(180.50585937500114 200.6710379464289) rotate(0 21.251953125 21.251953125)"><path d="M42.5 21.25 C42.5 22.48, 42.39 23.73, 42.18 24.94 C41.97 26.15, 41.64 27.36, 41.22 28.52 C40.8 29.68, 40.27 30.81, 39.66 31.88 C39.04 32.94, 38.32 33.97, 37.53 34.91 C36.74 35.85, 35.85 36.74, 34.91 37.53 C33.97 38.32, 32.94 39.04, 31.88 39.66 C30.81 40.27, 29.68 40.8, 28.52 41.22 C27.36 41.64, 26.15 41.97, 24.94 42.18 C23.73 42.39, 22.48 42.5, 21.25 42.5 C20.02 42.5, 18.77 42.39, 17.56 42.18 C16.35 41.97, 15.14 41.64, 13.98 41.22 C12.83 40.8, 11.69 40.27, 10.63 39.66 C9.56 39.04, 8.53 38.32, 7.59 37.53 C6.65 36.74, 5.76 35.85, 4.97 34.91 C4.18 33.97, 3.46 32.94, 2.85 31.88 C2.23 30.81, 1.7 29.68, 1.28 28.52 C0.86 27.36, 0.54 26.15, 0.32 24.94 C0.11 23.73, 0 22.48, 0 21.25 C0 20.02, 0.11 18.77, 0.32 17.56 C0.54 16.35, 0.86 15.14, 1.28 13.98 C1.7 12.83, 2.23 11.69, 2.85 10.63 C3.46 9.56, 4.18 8.53, 4.97 7.59 C5.76 6.65, 6.65 5.76, 7.59 4.97 C8.53 4.18, 9.56 3.46, 10.63 2.85 C11.69 2.23, 12.83 1.7, 13.98 1.28 C15.14 0.86, 16.35 0.54, 17.56 0.32 C18.77 0.11, 20.02 0, 21.25 0 C22.48 0, 23.73 0.11, 24.94 0.32 C26.15 0.54, 27.36 0.86, 28.52 1.28 C29.68 1.7, 30.81 2.23, 31.88 2.85 C32.94 3.46, 33.97 4.18, 34.91 4.97 C35.85 5.76, 36.74 6.65, 37.53 7.59 C38.32 8.53, 39.04 9.56, 39.66 10.63 C40.27 11.69, 40.8 12.83, 41.22 13.98 C41.64 15.14, 41.97 16.35, 42.18 17.56 C42.39 18.77, 42.45 20.64, 42.5 21.25 C42.56 21.87, 42.56 20.64, 42.5 21.25" stroke="#6741d9" stroke-width="4" fill="none"></path></g><g stroke-linecap="round"><g stroke-opacity="0.6" fill-opacity="0.6" transform="translate(75.50000000000108 116.0887276785711) rotate(0 49.90457589285711 -22.580915178571445)"><path d="M0 0 C16.63 -7.53, 83.17 -37.63, 99.81 -45.16 M0 0 C16.63 -7.53, 83.17 -37.63, 99.81 -45.16" stroke="#1e1e1e" stroke-width="4" fill="none"></path></g></g><mask></mask><g stroke-linecap="round"><g stroke-opacity="0.6" fill-opacity="0.6" transform="translate(73.69754464285819 178.38783482142844) rotate(0 52.13671875 19.567522321428555)"><path d="M0 0 C17.38 6.52, 86.89 32.61, 104.27 39.14 M0 0 C17.38 6.52, 86.89 32.61, 104.27 39.14" stroke="#1e1e1e" stroke-width="4" fill="none"></path></g></g><mask></mask><g stroke-opacity="0.6" fill-opacity="0.6" stroke-linecap="round" transform="translate(549.2316627823002 18.5663064053756) rotate(0 111.541015625 91.33984375)"><path d="M0 0 C53.43 0, 106.86 0, 223.08 0 M0 0 C87.25 0, 174.49 0, 223.08 0 M223.08 0 C223.08 72.57, 223.08 145.13, 223.08 182.68 M223.08 0 C223.08 67.63, 223.08 135.26, 223.08 182.68 M223.08 182.68 C172.18 182.68, 121.28 182.68, 0 182.68 M223.08 182.68 C139.09 182.68, 55.11 182.68, 0 182.68 M0 182.68 C0 143.99, 0 105.3, 0 0 M0 182.68 C0 114.42, 0 46.17, 0 0" stroke="#1e1e1e" stroke-width="4" fill="none"></path></g><g stroke-linecap="round"><g stroke-opacity="0.6" fill-opacity="0.6" transform="translate(623.3840065323002 17.653556930585637) rotate(0 -0.1640625 91.240234375)"><path d="M0 0 C-0.08 44.66, -0.16 89.32, -0.33 182.48 M0 0 C-0.13 72.68, -0.26 145.35, -0.33 182.48" stroke="#1e1e1e" stroke-width="1" fill="none"></path></g></g><mask></mask><g stroke-linecap="round"><g stroke-opacity="0.6" fill-opacity="0.6" transform="translate(696.5011940323002 17.75799167323271) rotate(0 -0.1640625 91.240234375)"><path d="M0 0 C-0.1 54.3, -0.2 108.59, -0.33 182.48 M0 0 C-0.13 71.32, -0.26 142.64, -0.33 182.48" stroke="#1e1e1e" stroke-width="1" fill="none"></path></g></g><mask></mask><g stroke-linecap="round"><g stroke-opacity="0.6" fill-opacity="0.6" transform="translate(549.6431211156334 77.85453185180404) rotate(0 112.22265625 0.6328125)"><path d="M0 0 C47.93 0.27, 95.87 0.54, 224.45 1.27 M0 0 C84.02 0.47, 168.04 0.95, 224.45 1.27" stroke="#1e1e1e" stroke-width="1" fill="none"></path></g></g><mask></mask><g stroke-linecap="round"><g stroke-opacity="0.6" fill-opacity="0.6" transform="translate(549.1886940323002 136.3888510482327) rotate(0 112.22265625 0.6328125)"><path d="M0 0 C76.69 0.43, 153.38 0.86, 224.45 1.27 M0 0 C61.96 0.35, 123.92 0.7, 224.45 1.27" stroke="#1e1e1e" stroke-width="1" fill="none"></path></g></g><mask></mask><g stroke-opacity="0.6" fill-opacity="0.6" transform="translate(563.2577044489667 36.49863527442335) rotate(0 6.669921875 11.5)"><text x="0" y="0" font-family="Helvetica, Segoe UI Emoji" font-size="20px" fill="#2f9e44" text-anchor="start" style="white-space: pre;" direction="ltr" dominant-baseline="text-before-edge">S</text></g><g stroke-opacity="0.6" fill-opacity="0.6" stroke-linecap="round" transform="translate(772.3240176930146 19.07380377932509) rotate(0 111.541015625 91.33984375)"><path d="M0 0 C56.86 0, 113.72 0, 223.08 0 M0 0 C66.85 0, 133.69 0, 223.08 0 M223.08 0 C223.08 65.75, 223.08 131.51, 223.08 182.68 M223.08 0 C223.08 61.1, 223.08 122.2, 223.08 182.68 M223.08 182.68 C134.69 182.68, 46.29 182.68, 0 182.68 M223.08 182.68 C155.01 182.68, 86.94 182.68, 0 182.68 M0 182.68 C0 113.96, 0 45.24, 0 0 M0 182.68 C0 128.39, 0 74.11, 0 0" stroke="#1e1e1e" stroke-width="4" fill="none"></path></g><g stroke-linecap="round"><g stroke-opacity="0.6" fill-opacity="0.6" transform="translate(771.2098665638132 78.87865540747725) rotate(0 112.22265625 0.6328125)"><path d="M0 0 C78.03 0.44, 156.07 0.88, 224.45 1.27 M0 0 C72.3 0.41, 144.61 0.82, 224.45 1.27" stroke="#1e1e1e" stroke-width="1" fill="none"></path></g></g><mask></mask><g stroke-linecap="round"><g stroke-opacity="0.6" fill-opacity="0.6" transform="translate(772.1634511226371 137.71826937806532) rotate(0 112.22265625 0.6328125)"><path d="M0 0 C89.16 0.5, 178.31 1.01, 224.45 1.27 M0 0 C83.09 0.47, 166.19 0.94, 224.45 1.27" stroke="#1e1e1e" stroke-width="1" fill="none"></path></g></g><mask></mask><g stroke-linecap="round"><g stroke-opacity="0.6" fill-opacity="0.6" transform="translate(852.360372078519 19.26158279718311) rotate(0 -0.1640625 91.240234375)"><path d="M0 0 C-0.07 39.31, -0.14 78.62, -0.33 182.48 M0 0 C-0.1 55.94, -0.2 111.89, -0.33 182.48" stroke="#1e1e1e" stroke-width="1" fill="none"></path></g></g><mask></mask><g stroke-linecap="round"><g stroke-opacity="0.6" fill-opacity="0.6" transform="translate(921.6434603138132 20.040535003065543) rotate(0 -0.1640625 91.240234375)"><path d="M0 0 C-0.11 59.93, -0.22 119.86, -0.33 182.48 M0 0 C-0.13 71.83, -0.26 143.65, -0.33 182.48" stroke="#1e1e1e" stroke-width="1" fill="none"></path></g></g><mask></mask><g stroke-opacity="0.6" fill-opacity="0.6" transform="translate(652.1645234265584 28.26652305453581) rotate(0 10.0107421875 20.700000000000045)"><text x="0" y="0" font-family="Helvetica, Segoe UI Emoji" font-size="36px" fill="#1e1e1e" text-anchor="start" style="white-space: pre;" direction="ltr" dominant-baseline="text-before-edge">6</text></g><g stroke-opacity="0.6" fill-opacity="0.6" stroke-linecap="round" transform="translate(993.5424722623425 18.735654279469145) rotate(0 111.541015625 91.33984375)"><path d="M0 0 C59.56 0, 119.13 0, 223.08 0 M0 0 C61.45 0, 122.9 0, 223.08 0 M223.08 0 C223.08 70.77, 223.08 141.53, 223.08 182.68 M223.08 0 C223.08 38.86, 223.08 77.72, 223.08 182.68 M223.08 182.68 C157.73 182.68, 92.39 182.68, 0 182.68 M223.08 182.68 C172.47 182.68, 121.86 182.68, 0 182.68 M0 182.68 C0 127.48, 0 72.27, 0 0 M0 182.68 C0 124.66, 0 66.64, 0 0" stroke="#1e1e1e" stroke-width="4" fill="none"></path></g><g stroke-linecap="round"><g stroke-opacity="0.6" fill-opacity="0.6" transform="translate(993.1782144498425 79.60381834196914) rotate(0 112.22265625 0.6328125)"><path d="M0 0 C74.17 0.42, 148.33 0.84, 224.45 1.27 M0 0 C47.5 0.27, 95 0.54, 224.45 1.27" stroke="#1e1e1e" stroke-width="1" fill="none"></path></g></g><mask></mask><g stroke-linecap="round"><g stroke-opacity="0.6" fill-opacity="0.6" transform="translate(989.9848550748425 138.99346677946914) rotate(0 112.22265625 0.6328125)"><path d="M0 0 C57.68 0.33, 115.35 0.65, 224.45 1.27 M0 0 C52.59 0.3, 105.17 0.59, 224.45 1.27" stroke="#1e1e1e" stroke-width="1" fill="none"></path></g></g><mask></mask><g stroke-linecap="round"><g stroke-opacity="0.6" fill-opacity="0.6" transform="translate(1069.8530765821956 21.29246723902793) rotate(0 -0.1640625 91.240234375)"><path d="M0 0 C-0.1 56.95, -0.2 113.89, -0.33 182.48 M0 0 C-0.1 54.92, -0.2 109.84, -0.33 182.48" stroke="#1e1e1e" stroke-width="1" fill="none"></path></g></g><mask></mask><g stroke-linecap="round"><g stroke-opacity="0.6" fill-opacity="0.6" transform="translate(1141.207593388918 22.627933243611324) rotate(0 -0.1640625 91.240234375)"><path d="M0 0 C-0.12 65.68, -0.24 131.36, -0.33 182.48 M0 0 C-0.11 61.04, -0.22 122.07, -0.33 182.48" stroke="#1e1e1e" stroke-width="1" fill="none"></path></g></g><mask></mask><g stroke-opacity="0.6" fill-opacity="0.6" transform="translate(1093.3610176492477 32.9835616455407) rotate(0 10.0107421875 20.700000000000045)"><text x="0" y="0" font-family="Helvetica, Segoe UI Emoji" font-size="36px" fill="#1e1e1e" text-anchor="start" style="white-space: pre;" direction="ltr" dominant-baseline="text-before-edge">5</text></g><g stroke-opacity="0.6" fill-opacity="0.6" transform="translate(701.5230353860297 36.029069557512) rotate(0 6.1083984375 11.5)"><text x="0" y="0" font-family="Helvetica, Segoe UI Emoji" font-size="20px" fill="#2f9e44" text-anchor="start" style="white-space: pre;" direction="ltr" dominant-baseline="text-before-edge">T</text></g><g stroke-linecap="round"><g stroke-opacity="0.6" fill-opacity="0.6" transform="translate(812.3156321122203 37.98284559917852) rotate(0 0.689453125 143.341796875)"><path d="M0 0 C0.33 67.72, 0.65 135.44, 1.38 286.68 M0 0 C0.47 97.97, 0.94 195.93, 1.38 286.68" stroke="#e03131" stroke-width="4" fill="none"></path></g></g><mask></mask><g stroke-opacity="0.6" fill-opacity="0.6" transform="translate(1142.3436734068632 294.51229128370255) rotate(0 10.0107421875 20.700000000000045)"><text x="0" y="0" font-family="Helvetica, Segoe UI Emoji" font-size="36px" fill="#e03131" text-anchor="start" style="white-space: pre;" direction="ltr" dominant-baseline="text-before-edge">4</text></g><g stroke-linecap="round"><g stroke-opacity="0.6" fill-opacity="0.6" transform="translate(1173.0065965839465 37.547791655726314) rotate(0 0.689453125 143.341796875)"><path d="M0 0 C0.51 105.4, 1.01 210.79, 1.38 286.68 M0 0 C0.36 74.46, 0.72 148.92, 1.38 286.68" stroke="#e03131" stroke-width="4" fill="none"></path></g></g><mask></mask><g stroke-opacity="0.6" fill-opacity="0.6" transform="translate(781.9855307357325 293.83728198310746) rotate(0 10.0107421875 20.700000000000045)"><text x="0" y="0" font-family="Helvetica, Segoe UI Emoji" font-size="36px" fill="#e03131" text-anchor="start" style="white-space: pre;" direction="ltr" dominant-baseline="text-before-edge">4</text></g><g stroke-opacity="0.6" fill-opacity="0.6" transform="translate(876.458984375 31.554464285715312) rotate(0 10.0107421875 20.700000000000045)"><text x="0" y="0" font-family="Helvetica, Segoe UI Emoji" font-size="36px" fill="#1e1e1e" text-anchor="start" style="white-space: pre;" direction="ltr" dominant-baseline="text-before-edge">2</text></g><g stroke-opacity="0.6" fill-opacity="0.6" transform="translate(1024.3775111607142 32.58125000000132) rotate(0 10.0107421875 20.700000000000045)"><text x="0" y="0" font-family="Helvetica, Segoe UI Emoji" font-size="36px" fill="#1e1e1e" text-anchor="start" style="white-space: pre;" direction="ltr" dominant-baseline="text-before-edge">1</text></g><g stroke-opacity="0.6" fill-opacity="0.6" transform="translate(942.4188058035713 33.12812500000109) rotate(0 10.0107421875 20.700000000000045)"><text x="0" y="0" font-family="Helvetica, Segoe UI Emoji" font-size="36px" fill="#1e1e1e" text-anchor="start" style="white-space: pre;" direction="ltr" dominant-baseline="text-before-edge">3</text></g></svg>