<svg version="1.1" xmlns="http://www.w3.org/2000/svg" viewBox="0 0 865.448123816288 338.652734375" width="2596.344371448864" height="1015.9582031250001">
  <!-- svg-source:excalidraw -->
  
  <defs>
    <style class="style-fonts">
      @font-face {
        font-family: "Virgil";
        src: url("https://excalidraw.com/Virgil.woff2");
      }
      @font-face {
        font-family: "Cascadia";
        src: url("https://excalidraw.com/Cascadia.woff2");
      }
    </style>
  </defs>
  <g stroke-opacity="0.6" fill-opacity="0.6" stroke-linecap="round" transform="translate(153.2682883522727 69.66613399621326) rotate(0 27 27.5)"><path d="M54 27.5 C54 29.09, 53.86 30.71, 53.59 32.28 C53.32 33.84, 52.91 35.41, 52.37 36.91 C51.84 38.4, 51.16 39.87, 50.38 41.25 C49.6 42.63, 48.69 43.96, 47.68 45.18 C46.68 46.4, 45.55 47.54, 44.36 48.57 C43.16 49.59, 41.85 50.52, 40.5 51.32 C39.15 52.11, 37.7 52.8, 36.23 53.34 C34.77 53.89, 33.23 54.31, 31.69 54.58 C30.15 54.86, 28.56 55, 27 55 C25.44 55, 23.85 54.86, 22.31 54.58 C20.77 54.31, 19.23 53.89, 17.77 53.34 C16.3 52.8, 14.85 52.11, 13.5 51.32 C12.15 50.52, 10.84 49.59, 9.64 48.57 C8.45 47.54, 7.32 46.4, 6.32 45.18 C5.31 43.96, 4.4 42.63, 3.62 41.25 C2.84 39.87, 2.16 38.4, 1.63 36.91 C1.09 35.41, 0.68 33.84, 0.41 32.28 C0.14 30.71, 0 29.09, 0 27.5 C0 25.91, 0.14 24.29, 0.41 22.72 C0.68 21.16, 1.09 19.59, 1.63 18.09 C2.16 16.6, 2.84 15.13, 3.62 13.75 C4.4 12.37, 5.31 11.04, 6.32 9.82 C7.32 8.6, 8.45 7.46, 9.64 6.43 C10.84 5.41, 12.15 4.48, 13.5 3.68 C14.85 2.89, 16.3 2.2, 17.77 1.66 C19.23 1.11, 20.77 0.69, 22.31 0.42 C23.85 0.14, 25.44 0, 27 0 C28.56 0, 30.15 0.14, 31.69 0.42 C33.23 0.69, 34.77 1.11, 36.23 1.66 C37.7 2.2, 39.15 2.89, 40.5 3.68 C41.85 4.48, 43.16 5.41, 44.36 6.43 C45.55 7.46, 46.68 8.6, 47.68 9.82 C48.69 11.04, 49.6 12.37, 50.38 13.75 C51.16 15.13, 51.84 16.6, 52.37 18.09 C52.91 19.59, 53.32 21.16, 53.59 22.72 C53.86 24.29, 53.93 26.7, 54 27.5 C54.07 28.3, 54.07 26.7, 54 27.5" stroke="#6741d9" stroke-width="4" fill="none"></path></g><g stroke-opacity="0.6" fill-opacity="0.6" transform="translate(175.17103416648592 86.87069751358322) rotate(0 5.00537109375 10.350000000000009)"><text x="5.00537109375" y="0" font-family="Helvetica, Segoe UI Emoji" font-size="18.000000000000004px" fill="#1e1e1e" text-anchor="middle" style="white-space: pre;" direction="ltr" dominant-baseline="text-before-edge">4</text></g><g stroke-opacity="0.6" fill-opacity="0.6" stroke-linecap="round" transform="translate(10 79.56652462121326) rotate(0 21.251953125 23.5)"><path d="M42.5 23.5 C42.5 24.86, 42.39 26.24, 42.18 27.58 C41.97 28.92, 41.64 30.26, 41.22 31.54 C40.8 32.82, 40.27 34.07, 39.66 35.25 C39.04 36.43, 38.32 37.56, 37.53 38.61 C36.74 39.65, 35.85 40.63, 34.91 41.5 C33.97 42.38, 32.94 43.17, 31.88 43.85 C30.81 44.53, 29.68 45.12, 28.52 45.58 C27.36 46.05, 26.15 46.41, 24.94 46.64 C23.73 46.88, 22.48 47, 21.25 47 C20.02 47, 18.77 46.88, 17.56 46.64 C16.35 46.41, 15.14 46.05, 13.98 45.58 C12.83 45.12, 11.69 44.53, 10.63 43.85 C9.56 43.17, 8.53 42.38, 7.59 41.5 C6.65 40.63, 5.76 39.65, 4.97 38.61 C4.18 37.56, 3.46 36.43, 2.85 35.25 C2.23 34.07, 1.7 32.82, 1.28 31.54 C0.86 30.26, 0.54 28.92, 0.32 27.58 C0.11 26.24, 0 24.86, 0 23.5 C0 22.14, 0.11 20.76, 0.32 19.42 C0.54 18.08, 0.86 16.74, 1.28 15.46 C1.7 14.18, 2.23 12.93, 2.85 11.75 C3.46 10.57, 4.18 9.44, 4.97 8.39 C5.76 7.35, 6.65 6.37, 7.59 5.5 C8.53 4.62, 9.56 3.83, 10.63 3.15 C11.69 2.47, 12.83 1.88, 13.98 1.42 C15.14 0.95, 16.35 0.59, 17.56 0.36 C18.77 0.12, 20.02 0, 21.25 0 C22.48 0, 23.73 0.12, 24.94 0.36 C26.15 0.59, 27.36 0.95, 28.52 1.42 C29.68 1.88, 30.81 2.47, 31.88 3.15 C32.94 3.83, 33.97 4.62, 34.91 5.5 C35.85 6.37, 36.74 7.35, 37.53 8.39 C38.32 9.44, 39.04 10.57, 39.66 11.75 C40.27 12.93, 40.8 14.18, 41.22 15.46 C41.64 16.74, 41.97 18.08, 42.18 19.42 C42.39 20.76, 42.45 22.82, 42.5 23.5 C42.56 24.18, 42.56 22.82, 42.5 23.5" stroke="#6741d9" stroke-width="4" fill="none"></path></g><g stroke-opacity="0.6" fill-opacity="0.6" transform="translate(24.55463108185387 91.4495152633294) rotate(0 6.669921875 11.5)"><text x="6.669921875" y="0" font-family="Helvetica, Segoe UI Emoji" font-size="20px" fill="#1e1e1e" text-anchor="middle" style="white-space: pre;" direction="ltr" dominant-baseline="text-before-edge">S</text></g><g stroke-linecap="round"><g stroke-opacity="0.6" fill-opacity="0.6" transform="translate(51.80699573863632 45.51627604166782) rotate(0 50.64151278409091 22.293146306818215)"><path d="M0 0 C16.88 7.43, 84.4 37.16, 101.28 44.59" stroke="#ced4da" stroke-width="4.5" fill="none" stroke-dasharray="1.5 10"></path></g></g><mask></mask><g stroke-linecap="round"><g stroke-opacity="0.6" fill-opacity="0.6" transform="translate(56.62180397727269 101.88683712121326) rotate(0 47.767578125 -1.34765625)"><path d="M0 0 C15.92 -0.45, 79.61 -2.25, 95.54 -2.7 M0 0 C15.92 -0.45, 79.61 -2.25, 95.54 -2.7" stroke="#1e1e1e" stroke-width="4" fill="none"></path></g></g><mask></mask><g stroke-linecap="round"><g stroke-opacity="0.6" fill-opacity="0.6" transform="translate(52.8674834280302 159.87861032197077) rotate(0 50.78776041666663 -0.9075520833333144)"><path d="M0 0 C16.93 -0.3, 84.65 -1.51, 101.58 -1.82 M0 0 C16.93 -0.3, 84.65 -1.51, 101.58 -1.82" stroke="#1e1e1e" stroke-width="4" fill="none"></path></g></g><mask></mask><g stroke-linecap="round"><g stroke-opacity="0.6" fill-opacity="0.6" transform="translate(53.20188210227269 160.17820785984958) rotate(0 49.77397017045456 -29.601917613636374)"><path d="M0 0 C16.59 -9.87, 82.96 -49.34, 99.55 -59.2 M0 0 C16.59 -9.87, 82.96 -49.34, 99.55 -59.2" stroke="#1e1e1e" stroke-width="4" fill="none"></path></g></g><mask></mask><g stroke-opacity="0.6" fill-opacity="0.6" transform="translate(228.29081270292198 112.9976579410185) rotate(0 61.71875 11.5)"><text x="0" y="0" font-family="Helvetica, Segoe UI Emoji" font-size="20px" fill="#1e1e1e" text-anchor="start" style="white-space: pre;" direction="ltr" dominant-baseline="text-before-edge">N("4", "7") = 2</text></g><g stroke-linecap="round"><g stroke-opacity="0.6" fill-opacity="0.6" transform="translate(223.87340198863632 107.6656266910185) rotate(0 0.2578125 18.171875)"><path d="M0 0 C0.09 6.06, 0.43 30.29, 0.52 36.34 M0 0 C0.09 6.06, 0.43 30.29, 0.52 36.34" stroke="#1e1e1e" stroke-width="1" fill="none"></path></g></g><mask></mask><g stroke-linecap="round"><g stroke-opacity="0.6" fill-opacity="0.6" transform="translate(319.98739346590895 107.16456135010944) rotate(0 0.2578125 18.171875)"><path d="M0 0 C0.09 6.06, 0.43 30.29, 0.52 36.34 M0 0 C0.09 6.06, 0.43 30.29, 0.52 36.34" stroke="#1e1e1e" stroke-width="1" fill="none"></path></g></g><mask></mask><g stroke-linecap="round"><g stroke-opacity="0.6" fill-opacity="0.6" transform="translate(53.774266098484816 102.46294981060717) rotate(0 50.60990767045453 27.281072443181827)"><path d="M0 0 C16.87 9.09, 84.35 45.47, 101.22 54.56 M0 0 C16.87 9.09, 84.35 45.47, 101.22 54.56" stroke="#1e1e1e" stroke-width="4" fill="none"></path></g></g><mask></mask><g stroke-opacity="0.6" fill-opacity="0.6" stroke-linecap="round" transform="translate(155.97792376893943 129.50727982954652) rotate(0 27 27.5)"><path d="M54 27.5 C54 29.09, 53.86 30.71, 53.59 32.28 C53.32 33.84, 52.91 35.41, 52.37 36.91 C51.84 38.4, 51.16 39.87, 50.38 41.25 C49.6 42.63, 48.69 43.96, 47.68 45.18 C46.68 46.4, 45.55 47.54, 44.36 48.57 C43.16 49.59, 41.85 50.52, 40.5 51.32 C39.15 52.11, 37.7 52.8, 36.23 53.34 C34.77 53.89, 33.23 54.31, 31.69 54.58 C30.15 54.86, 28.56 55, 27 55 C25.44 55, 23.85 54.86, 22.31 54.58 C20.77 54.31, 19.23 53.89, 17.77 53.34 C16.3 52.8, 14.85 52.11, 13.5 51.32 C12.15 50.52, 10.84 49.59, 9.64 48.57 C8.45 47.54, 7.32 46.4, 6.32 45.18 C5.31 43.96, 4.4 42.63, 3.62 41.25 C2.84 39.87, 2.16 38.4, 1.63 36.91 C1.09 35.41, 0.68 33.84, 0.41 32.28 C0.14 30.71, 0 29.09, 0 27.5 C0 25.91, 0.14 24.29, 0.41 22.72 C0.68 21.16, 1.09 19.59, 1.63 18.09 C2.16 16.6, 2.84 15.13, 3.62 13.75 C4.4 12.37, 5.31 11.04, 6.32 9.82 C7.32 8.6, 8.45 7.46, 9.64 6.43 C10.84 5.41, 12.15 4.48, 13.5 3.68 C14.85 2.89, 16.3 2.2, 17.77 1.66 C19.23 1.11, 20.77 0.69, 22.31 0.42 C23.85 0.14, 25.44 0, 27 0 C28.56 0, 30.15 0.14, 31.69 0.42 C33.23 0.69, 34.77 1.11, 36.23 1.66 C37.7 2.2, 39.15 2.89, 40.5 3.68 C41.85 4.48, 43.16 5.41, 44.36 6.43 C45.55 7.46, 46.68 8.6, 47.68 9.82 C48.69 11.04, 49.6 12.37, 50.38 13.75 C51.16 15.13, 51.84 16.6, 52.37 18.09 C52.91 19.59, 53.32 21.16, 53.59 22.72 C53.86 24.29, 53.93 26.7, 54 27.5 C54.07 28.3, 54.07 26.7, 54 27.5" stroke="#6741d9" stroke-width="4" fill="none"></path></g><g stroke-opacity="0.6" fill-opacity="0.6" transform="translate(177.88066958315264 146.71184334691648) rotate(0 5.00537109375 10.350000000000009)"><text x="5.00537109375" y="0" font-family="Helvetica, Segoe UI Emoji" font-size="18.000000000000004px" fill="#1e1e1e" text-anchor="middle" style="white-space: pre;" direction="ltr" dominant-baseline="text-before-edge">7</text></g><g stroke-linecap="round"><g stroke-opacity="0.6" fill-opacity="0.6" transform="translate(165.72360321969688 179.66619318181927) rotate(0 -64.2022372159091 28.944424715909122)"><path d="M0 0 C-21.4 9.65, -107 48.24, -128.4 57.89" stroke="#ced4da" stroke-width="4.5" fill="none" stroke-dasharray="1.5 10"></path></g></g><mask></mask><g stroke-opacity="0.6" fill-opacity="0.6" stroke-linecap="round" transform="translate(11.586884469696827 134.14825994318295) rotate(0 21.251953125 23.5)"><path d="M42.5 23.5 C42.5 24.86, 42.39 26.24, 42.18 27.58 C41.97 28.92, 41.64 30.26, 41.22 31.54 C40.8 32.82, 40.27 34.07, 39.66 35.25 C39.04 36.43, 38.32 37.56, 37.53 38.61 C36.74 39.65, 35.85 40.63, 34.91 41.5 C33.97 42.38, 32.94 43.17, 31.88 43.85 C30.81 44.53, 29.68 45.12, 28.52 45.58 C27.36 46.05, 26.15 46.41, 24.94 46.64 C23.73 46.88, 22.48 47, 21.25 47 C20.02 47, 18.77 46.88, 17.56 46.64 C16.35 46.41, 15.14 46.05, 13.98 45.58 C12.83 45.12, 11.69 44.53, 10.63 43.85 C9.56 43.17, 8.53 42.38, 7.59 41.5 C6.65 40.63, 5.76 39.65, 4.97 38.61 C4.18 37.56, 3.46 36.43, 2.85 35.25 C2.23 34.07, 1.7 32.82, 1.28 31.54 C0.86 30.26, 0.54 28.92, 0.32 27.58 C0.11 26.24, 0 24.86, 0 23.5 C0 22.14, 0.11 20.76, 0.32 19.42 C0.54 18.08, 0.86 16.74, 1.28 15.46 C1.7 14.18, 2.23 12.93, 2.85 11.75 C3.46 10.57, 4.18 9.44, 4.97 8.39 C5.76 7.35, 6.65 6.37, 7.59 5.5 C8.53 4.62, 9.56 3.83, 10.63 3.15 C11.69 2.47, 12.83 1.88, 13.98 1.42 C15.14 0.95, 16.35 0.59, 17.56 0.36 C18.77 0.12, 20.02 0, 21.25 0 C22.48 0, 23.73 0.12, 24.94 0.36 C26.15 0.59, 27.36 0.95, 28.52 1.42 C29.68 1.88, 30.81 2.47, 31.88 3.15 C32.94 3.83, 33.97 4.62, 34.91 5.5 C35.85 6.37, 36.74 7.35, 37.53 8.39 C38.32 9.44, 39.04 10.57, 39.66 11.75 C40.27 12.93, 40.8 14.18, 41.22 15.46 C41.64 16.74, 41.97 18.08, 42.18 19.42 C42.39 20.76, 42.45 22.82, 42.5 23.5 C42.56 24.18, 42.56 22.82, 42.5 23.5" stroke="#6741d9" stroke-width="4" fill="none"></path></g><g stroke-opacity="0.6" fill-opacity="0.6" transform="translate(26.703038989050683 146.0312505852991) rotate(0 6.1083984375 11.5)"><text x="6.1083984375" y="0" font-family="Helvetica, Segoe UI Emoji" font-size="20px" fill="#1e1e1e" text-anchor="middle" style="white-space: pre;" direction="ltr" dominant-baseline="text-before-edge">T</text></g><g stroke-linecap="round"><g stroke-opacity="0.6" fill-opacity="0.6" transform="translate(53.44128787878793 100.98455255681932) rotate(0 53.112748579545496 -33.103515624999986)"><path d="M0 0 C17.7 -11.03, 88.52 -55.17, 106.23 -66.21 M0 0 C17.7 -11.03, 88.52 -55.17, 106.23 -66.21" stroke="#1e1e1e" stroke-width="4" fill="none"></path></g></g><mask></mask><g stroke-linecap="round"><g stroke-opacity="0.6" fill-opacity="0.6" transform="translate(54.343276515151615 160.82120028409201) rotate(0 53.60209517045456 28.782137784090935)"><path d="M0 0 C17.87 9.59, 89.34 47.97, 107.2 57.56 M0 0 C17.87 9.59, 89.34 47.97, 107.2 57.56" stroke="#1e1e1e" stroke-width="4" fill="none"></path></g></g><mask></mask><g stroke-opacity="0.6" fill-opacity="0.6" stroke-linecap="round" transform="translate(467.69617069128793 30.69882812500009) rotate(0 111.541015625 91.33984375)"><path d="M0 0 C82.97 0, 165.94 0, 223.08 0 M0 0 C58.07 0, 116.14 0, 223.08 0 M223.08 0 C223.08 69.77, 223.08 139.55, 223.08 182.68 M223.08 0 C223.08 59.83, 223.08 119.66, 223.08 182.68 M223.08 182.68 C150.24 182.68, 77.4 182.68, 0 182.68 M223.08 182.68 C178.07 182.68, 133.05 182.68, 0 182.68 M0 182.68 C0 133.26, 0 83.84, 0 0 M0 182.68 C0 111.8, 0 40.93, 0 0" stroke="#1e1e1e" stroke-width="4" fill="none"></path></g><g stroke-opacity="0.6" fill-opacity="0.6" transform="translate(569.226444128788 101.3386718750001) rotate(0 10.0107421875 20.700000000000003)"><text x="10.0107421875" y="0" font-family="Helvetica, Segoe UI Emoji" font-size="36px" fill="#1e1e1e" text-anchor="middle" style="white-space: pre;" direction="ltr" dominant-baseline="text-before-edge">3</text></g><g stroke-linecap="round"><g stroke-opacity="0.6" fill-opacity="0.6" transform="translate(541.848514441288 29.64804687500009) rotate(0 -0.1640625 91.240234375)"><path d="M0 0 C-0.09 50.49, -0.18 100.99, -0.33 182.48 M0 0 C-0.12 68.12, -0.24 136.24, -0.33 182.48" stroke="#1e1e1e" stroke-width="1" fill="none"></path></g></g><mask></mask><g stroke-linecap="round"><g stroke-opacity="0.6" fill-opacity="0.6" transform="translate(614.965701941288 29.68125000000009) rotate(0 -0.1640625 91.240234375)"><path d="M0 0 C-0.1 53.15, -0.19 106.3, -0.33 182.48 M0 0 C-0.12 68.38, -0.25 136.77, -0.33 182.48" stroke="#1e1e1e" stroke-width="1" fill="none"></path></g></g><mask></mask><g stroke-linecap="round"><g stroke-opacity="0.6" fill-opacity="0.6" transform="translate(467.89929569128793 89.70859375000009) rotate(0 112.22265625 0.6328125)"><path d="M0 0 C61.73 0.35, 123.47 0.7, 224.45 1.27 M0 0 C85.14 0.48, 170.27 0.96, 224.45 1.27" stroke="#1e1e1e" stroke-width="1" fill="none"></path></g></g><mask></mask><g stroke-linecap="round"><g stroke-opacity="0.6" fill-opacity="0.6" transform="translate(467.65320194128793 148.3121093750001) rotate(0 112.22265625 0.6328125)"><path d="M0 0 C82 0.46, 164 0.92, 224.45 1.27 M0 0 C54.56 0.31, 109.12 0.62, 224.45 1.27" stroke="#1e1e1e" stroke-width="1" fill="none"></path></g></g><mask></mask><g stroke-opacity="0.6" fill-opacity="0.6" transform="translate(569.547733191288 158.8433593750001) rotate(0 10.0107421875 20.69999999999999)"><text x="0" y="0" font-family="Helvetica, Segoe UI Emoji" font-size="36px" fill="#1e1e1e" text-anchor="start" style="white-space: pre;" direction="ltr" dominant-baseline="text-before-edge">2</text></g><g stroke-linecap="round"><g stroke-opacity="0.6" fill-opacity="0.6" transform="translate(501.46179569128793 60.30429687500009) rotate(0 175.541015625 1.734375)"><path d="M0 0 C112.09 1.11, 224.18 2.21, 351.08 3.47 M0 0 C101.63 1, 203.27 2.01, 351.08 3.47" stroke="#e03131" stroke-width="4" fill="none"></path></g></g><mask></mask><g stroke-opacity="0.6" fill-opacity="0.6" transform="translate(805.403201941288 71.80429687500009) rotate(0 25.0224609375 20.700000000000003)"><text x="0" y="0" font-family="Helvetica, Segoe UI Emoji" font-size="36px" fill="#e03131" text-anchor="start" style="white-space: pre;" direction="ltr" dominant-baseline="text-before-edge">4,7</text></g><g stroke-linecap="round"><g stroke-opacity="0.6" fill-opacity="0.6" transform="translate(648.916873816288 37.40846354166678) rotate(0 0.689453125 143.341796875)"><path d="M0 0 C0.31 63.88, 0.61 127.76, 1.38 286.68 M0 0 C0.54 112.22, 1.08 224.44, 1.38 286.68" stroke="#e03131" stroke-width="4" fill="none"></path></g></g><mask></mask><g stroke-opacity="0.6" fill-opacity="0.6" transform="translate(589.216678503788 287.25273437500005) rotate(0 25.0224609375 20.69999999999999)"><text x="0" y="0" font-family="Helvetica, Segoe UI Emoji" font-size="36px" fill="#e03131" text-anchor="start" style="white-space: pre;" direction="ltr" dominant-baseline="text-before-edge">4,7</text></g><g stroke-opacity="0.6" fill-opacity="0.6" transform="translate(471.01257694128793 91.4157552083334) rotate(0 6.669921875 11.5)"><text x="0" y="0" font-family="Helvetica, Segoe UI Emoji" font-size="20px" fill="#2f9e44" text-anchor="start" style="white-space: pre;" direction="ltr" dominant-baseline="text-before-edge">S</text></g><g stroke-opacity="0.6" fill-opacity="0.6" transform="translate(473.95300662878793 156.955078125) rotate(0 6.1083984375 11.5)"><text x="0" y="0" font-family="Helvetica, Segoe UI Emoji" font-size="20px" fill="#2f9e44" text-anchor="start" style="white-space: pre;" direction="ltr" dominant-baseline="text-before-edge">T</text></g><g stroke-opacity="0.6" fill-opacity="0.6" stroke-linecap="round" transform="translate(161.82410037878816 201.09375) rotate(0 21.251953125 21.251953125)"><path d="M42.5 21.25 C42.5 22.48, 42.39 23.73, 42.18 24.94 C41.97 26.15, 41.64 27.36, 41.22 28.52 C40.8 29.68, 40.27 30.81, 39.66 31.88 C39.04 32.94, 38.32 33.97, 37.53 34.91 C36.74 35.85, 35.85 36.74, 34.91 37.53 C33.97 38.32, 32.94 39.04, 31.88 39.66 C30.81 40.27, 29.68 40.8, 28.52 41.22 C27.36 41.64, 26.15 41.97, 24.94 42.18 C23.73 42.39, 22.48 42.5, 21.25 42.5 C20.02 42.5, 18.77 42.39, 17.56 42.18 C16.35 41.97, 15.14 41.64, 13.98 41.22 C12.83 40.8, 11.69 40.27, 10.63 39.66 C9.56 39.04, 8.53 38.32, 7.59 37.53 C6.65 36.74, 5.76 35.85, 4.97 34.91 C4.18 33.97, 3.46 32.94, 2.85 31.88 C2.23 30.81, 1.7 29.68, 1.28 28.52 C0.86 27.36, 0.54 26.15, 0.32 24.94 C0.11 23.73, 0 22.48, 0 21.25 C0 20.02, 0.11 18.77, 0.32 17.56 C0.54 16.35, 0.86 15.14, 1.28 13.98 C1.7 12.83, 2.23 11.69, 2.85 10.63 C3.46 9.56, 4.18 8.53, 4.97 7.59 C5.76 6.65, 6.65 5.76, 7.59 4.97 C8.53 4.18, 9.56 3.46, 10.63 2.85 C11.69 2.23, 12.83 1.7, 13.98 1.28 C15.14 0.86, 16.35 0.54, 17.56 0.32 C18.77 0.11, 20.02 0, 21.25 0 C22.48 0, 23.73 0.11, 24.94 0.32 C26.15 0.54, 27.36 0.86, 28.52 1.28 C29.68 1.7, 30.81 2.23, 31.88 2.85 C32.94 3.46, 33.97 4.18, 34.91 4.97 C35.85 5.76, 36.74 6.65, 37.53 7.59 C38.32 8.53, 39.04 9.56, 39.66 10.63 C40.27 11.69, 40.8 12.83, 41.22 13.98 C41.64 15.14, 41.97 16.35, 42.18 17.56 C42.39 18.77, 42.45 20.64, 42.5 21.25 C42.56 21.87, 42.56 20.64, 42.5 21.25" stroke="#6741d9" stroke-width="4" fill="none"></path></g><g stroke-opacity="0.6" fill-opacity="0.6" stroke-linecap="round" transform="translate(159.69519412878816 10) rotate(0 21.251953125 21.251953125)"><path d="M42.5 21.25 C42.5 22.48, 42.39 23.73, 42.18 24.94 C41.97 26.15, 41.64 27.36, 41.22 28.52 C40.8 29.68, 40.27 30.81, 39.66 31.88 C39.04 32.94, 38.32 33.97, 37.53 34.91 C36.74 35.85, 35.85 36.74, 34.91 37.53 C33.97 38.32, 32.94 39.04, 31.88 39.66 C30.81 40.27, 29.68 40.8, 28.52 41.22 C27.36 41.64, 26.15 41.97, 24.94 42.18 C23.73 42.39, 22.48 42.5, 21.25 42.5 C20.02 42.5, 18.77 42.39, 17.56 42.18 C16.35 41.97, 15.14 41.64, 13.98 41.22 C12.83 40.8, 11.69 40.27, 10.63 39.66 C9.56 39.04, 8.53 38.32, 7.59 37.53 C6.65 36.74, 5.76 35.85, 4.97 34.91 C4.18 33.97, 3.46 32.94, 2.85 31.88 C2.23 30.81, 1.7 29.68, 1.28 28.52 C0.86 27.36, 0.54 26.15, 0.32 24.94 C0.11 23.73, 0 22.48, 0 21.25 C0 20.02, 0.11 18.77, 0.32 17.56 C0.54 16.35, 0.86 15.14, 1.28 13.98 C1.7 12.83, 2.23 11.69, 2.85 10.63 C3.46 9.56, 4.18 8.53, 4.97 7.59 C5.76 6.65, 6.65 5.76, 7.59 4.97 C8.53 4.18, 9.56 3.46, 10.63 2.85 C11.69 2.23, 12.83 1.7, 13.98 1.28 C15.14 0.86, 16.35 0.54, 17.56 0.32 C18.77 0.11, 20.02 0, 21.25 0 C22.48 0, 23.73 0.11, 24.94 0.32 C26.15 0.54, 27.36 0.86, 28.52 1.28 C29.68 1.7, 30.81 2.23, 31.88 2.85 C32.94 3.46, 33.97 4.18, 34.91 4.97 C35.85 5.76, 36.74 6.65, 37.53 7.59 C38.32 8.53, 39.04 9.56, 39.66 10.63 C40.27 11.69, 40.8 12.83, 41.22 13.98 C41.64 15.14, 41.97 16.35, 42.18 17.56 C42.39 18.77, 42.45 20.64, 42.5 21.25 C42.56 21.87, 42.56 20.64, 42.5 21.25" stroke="#6741d9" stroke-width="4" fill="none"></path></g></svg>