<svg version="1.1" xmlns="http://www.w3.org/2000/svg" viewBox="0 0 1190.1502347032565 387.26404608718565" width="3570.4507041097695" height="1161.7921382615568">
  <!-- svg-source:excalidraw -->
  
  <defs>
    <style class="style-fonts">
      @font-face {
        font-family: "Virgil";
        src: url("https://excalidraw.com/Virgil.woff2");
      }
      @font-face {
        font-family: "Cascadia";
        src: url("https://excalidraw.com/Cascadia.woff2");
      }
    </style>
  </defs>
  <g stroke-opacity="0.6" fill-opacity="0.6" stroke-linecap="round" transform="translate(279.5546875 60.38440126050415) rotate(0 27 27.5)"><path d="M54 27.5 C54 29.09, 53.86 30.71, 53.59 32.28 C53.32 33.84, 52.91 35.41, 52.37 36.91 C51.84 38.4, 51.16 39.87, 50.38 41.25 C49.6 42.63, 48.69 43.96, 47.68 45.18 C46.68 46.4, 45.55 47.54, 44.36 48.57 C43.16 49.59, 41.85 50.52, 40.5 51.32 C39.15 52.11, 37.7 52.8, 36.23 53.34 C34.77 53.89, 33.23 54.31, 31.69 54.58 C30.15 54.86, 28.56 55, 27 55 C25.44 55, 23.85 54.86, 22.31 54.58 C20.77 54.31, 19.23 53.89, 17.77 53.34 C16.3 52.8, 14.85 52.11, 13.5 51.32 C12.15 50.52, 10.84 49.59, 9.64 48.57 C8.45 47.54, 7.32 46.4, 6.32 45.18 C5.31 43.96, 4.4 42.63, 3.62 41.25 C2.84 39.87, 2.16 38.4, 1.63 36.91 C1.09 35.41, 0.68 33.84, 0.41 32.28 C0.14 30.71, 0 29.09, 0 27.5 C0 25.91, 0.14 24.29, 0.41 22.72 C0.68 21.16, 1.09 19.59, 1.63 18.09 C2.16 16.6, 2.84 15.13, 3.62 13.75 C4.4 12.37, 5.31 11.04, 6.32 9.82 C7.32 8.6, 8.45 7.46, 9.64 6.43 C10.84 5.41, 12.15 4.48, 13.5 3.68 C14.85 2.89, 16.3 2.2, 17.77 1.66 C19.23 1.11, 20.77 0.69, 22.31 0.42 C23.85 0.14, 25.44 0, 27 0 C28.56 0, 30.15 0.14, 31.69 0.42 C33.23 0.69, 34.77 1.11, 36.23 1.66 C37.7 2.2, 39.15 2.89, 40.5 3.68 C41.85 4.48, 43.16 5.41, 44.36 6.43 C45.55 7.46, 46.68 8.6, 47.68 9.82 C48.69 11.04, 49.6 12.37, 50.38 13.75 C51.16 15.13, 51.84 16.6, 52.37 18.09 C52.91 19.59, 53.32 21.16, 53.59 22.72 C53.86 24.29, 53.93 26.7, 54 27.5 C54.07 28.3, 54.07 26.7, 54 27.5" stroke="#6741d9" stroke-width="4" fill="none"></path></g><g stroke-opacity="0.6" fill-opacity="0.6" transform="translate(301.4574333142132 77.58896477787408) rotate(0 5.00537109375 10.349999999999994)"><text x="5.00537109375" y="0" font-family="Helvetica, Segoe UI Emoji" font-size="18.000000000000004px" fill="#1e1e1e" text-anchor="middle" style="white-space: pre;" direction="ltr" dominant-baseline="text-before-edge">4</text></g><g stroke-opacity="0.6" fill-opacity="0.6" stroke-linecap="round" transform="translate(136.396484375 70.28479188550415) rotate(0 21.251953125 23.5)"><path d="M42.5 23.5 C42.5 24.86, 42.39 26.24, 42.18 27.58 C41.97 28.92, 41.64 30.26, 41.22 31.54 C40.8 32.82, 40.27 34.07, 39.66 35.25 C39.04 36.43, 38.32 37.56, 37.53 38.61 C36.74 39.65, 35.85 40.63, 34.91 41.5 C33.97 42.38, 32.94 43.17, 31.88 43.85 C30.81 44.53, 29.68 45.12, 28.52 45.58 C27.36 46.05, 26.15 46.41, 24.94 46.64 C23.73 46.88, 22.48 47, 21.25 47 C20.02 47, 18.77 46.88, 17.56 46.64 C16.35 46.41, 15.14 46.05, 13.98 45.58 C12.83 45.12, 11.69 44.53, 10.63 43.85 C9.56 43.17, 8.53 42.38, 7.59 41.5 C6.65 40.63, 5.76 39.65, 4.97 38.61 C4.18 37.56, 3.46 36.43, 2.85 35.25 C2.23 34.07, 1.7 32.82, 1.28 31.54 C0.86 30.26, 0.54 28.92, 0.32 27.58 C0.11 26.24, 0 24.86, 0 23.5 C0 22.14, 0.11 20.76, 0.32 19.42 C0.54 18.08, 0.86 16.74, 1.28 15.46 C1.7 14.18, 2.23 12.93, 2.85 11.75 C3.46 10.57, 4.18 9.44, 4.97 8.39 C5.76 7.35, 6.65 6.37, 7.59 5.5 C8.53 4.62, 9.56 3.83, 10.63 3.15 C11.69 2.47, 12.83 1.88, 13.98 1.42 C15.14 0.95, 16.35 0.59, 17.56 0.36 C18.77 0.12, 20.02 0, 21.25 0 C22.48 0, 23.73 0.12, 24.94 0.36 C26.15 0.59, 27.36 0.95, 28.52 1.42 C29.68 1.88, 30.81 2.47, 31.88 3.15 C32.94 3.83, 33.97 4.62, 34.91 5.5 C35.85 6.37, 36.74 7.35, 37.53 8.39 C38.32 9.44, 39.04 10.57, 39.66 11.75 C40.27 12.93, 40.8 14.18, 41.22 15.46 C41.64 16.74, 41.97 18.08, 42.18 19.42 C42.39 20.76, 42.45 22.82, 42.5 23.5 C42.56 24.18, 42.56 22.82, 42.5 23.5" stroke="#6741d9" stroke-width="4" fill="none"></path></g><g stroke-opacity="0.6" fill-opacity="0.6" transform="translate(150.95111545685387 82.16778252762026) rotate(0 6.669921875 11.5)"><text x="6.669921875" y="0" font-family="Helvetica, Segoe UI Emoji" font-size="20px" fill="#1e1e1e" text-anchor="middle" style="white-space: pre;" direction="ltr" dominant-baseline="text-before-edge">S</text></g><g stroke-opacity="0.6" fill-opacity="0.6" stroke-linecap="round" transform="translate(137.466796875 126.50354188550415) rotate(0 21.251953125 21.251953125)"><path d="M42.5 21.25 C42.5 22.48, 42.39 23.73, 42.18 24.94 C41.97 26.15, 41.64 27.36, 41.22 28.52 C40.8 29.68, 40.27 30.81, 39.66 31.88 C39.04 32.94, 38.32 33.97, 37.53 34.91 C36.74 35.85, 35.85 36.74, 34.91 37.53 C33.97 38.32, 32.94 39.04, 31.88 39.66 C30.81 40.27, 29.68 40.8, 28.52 41.22 C27.36 41.64, 26.15 41.97, 24.94 42.18 C23.73 42.39, 22.48 42.5, 21.25 42.5 C20.02 42.5, 18.77 42.39, 17.56 42.18 C16.35 41.97, 15.14 41.64, 13.98 41.22 C12.83 40.8, 11.69 40.27, 10.63 39.66 C9.56 39.04, 8.53 38.32, 7.59 37.53 C6.65 36.74, 5.76 35.85, 4.97 34.91 C4.18 33.97, 3.46 32.94, 2.85 31.88 C2.23 30.81, 1.7 29.68, 1.28 28.52 C0.86 27.36, 0.54 26.15, 0.32 24.94 C0.11 23.73, 0 22.48, 0 21.25 C0 20.02, 0.11 18.77, 0.32 17.56 C0.54 16.35, 0.86 15.14, 1.28 13.98 C1.7 12.83, 2.23 11.69, 2.85 10.63 C3.46 9.56, 4.18 8.53, 4.97 7.59 C5.76 6.65, 6.65 5.76, 7.59 4.97 C8.53 4.18, 9.56 3.46, 10.63 2.85 C11.69 2.23, 12.83 1.7, 13.98 1.28 C15.14 0.86, 16.35 0.54, 17.56 0.32 C18.77 0.11, 20.02 0, 21.25 0 C22.48 0, 23.73 0.11, 24.94 0.32 C26.15 0.54, 27.36 0.86, 28.52 1.28 C29.68 1.7, 30.81 2.23, 31.88 2.85 C32.94 3.46, 33.97 4.18, 34.91 4.97 C35.85 5.76, 36.74 6.65, 37.53 7.59 C38.32 8.53, 39.04 9.56, 39.66 10.63 C40.27 11.69, 40.8 12.83, 41.22 13.98 C41.64 15.14, 41.97 16.35, 42.18 17.56 C42.39 18.77, 42.45 20.64, 42.5 21.25 C42.56 21.87, 42.56 20.64, 42.5 21.25" stroke="#6741d9" stroke-width="4" fill="none"></path></g><g stroke-opacity="0.6" fill-opacity="0.6" stroke-linecap="round" transform="translate(133.498046875 16.23401063550415) rotate(0 21.251953125 21.251953125)"><path d="M42.5 21.25 C42.5 22.48, 42.39 23.73, 42.18 24.94 C41.97 26.15, 41.64 27.36, 41.22 28.52 C40.8 29.68, 40.27 30.81, 39.66 31.88 C39.04 32.94, 38.32 33.97, 37.53 34.91 C36.74 35.85, 35.85 36.74, 34.91 37.53 C33.97 38.32, 32.94 39.04, 31.88 39.66 C30.81 40.27, 29.68 40.8, 28.52 41.22 C27.36 41.64, 26.15 41.97, 24.94 42.18 C23.73 42.39, 22.48 42.5, 21.25 42.5 C20.02 42.5, 18.77 42.39, 17.56 42.18 C16.35 41.97, 15.14 41.64, 13.98 41.22 C12.83 40.8, 11.69 40.27, 10.63 39.66 C9.56 39.04, 8.53 38.32, 7.59 37.53 C6.65 36.74, 5.76 35.85, 4.97 34.91 C4.18 33.97, 3.46 32.94, 2.85 31.88 C2.23 30.81, 1.7 29.68, 1.28 28.52 C0.86 27.36, 0.54 26.15, 0.32 24.94 C0.11 23.73, 0 22.48, 0 21.25 C0 20.02, 0.11 18.77, 0.32 17.56 C0.54 16.35, 0.86 15.14, 1.28 13.98 C1.7 12.83, 2.23 11.69, 2.85 10.63 C3.46 9.56, 4.18 8.53, 4.97 7.59 C5.76 6.65, 6.65 5.76, 7.59 4.97 C8.53 4.18, 9.56 3.46, 10.63 2.85 C11.69 2.23, 12.83 1.7, 13.98 1.28 C15.14 0.86, 16.35 0.54, 17.56 0.32 C18.77 0.11, 20.02 0, 21.25 0 C22.48 0, 23.73 0.11, 24.94 0.32 C26.15 0.54, 27.36 0.86, 28.52 1.28 C29.68 1.7, 30.81 2.23, 31.88 2.85 C32.94 3.46, 33.97 4.18, 34.91 4.97 C35.85 5.76, 36.74 6.65, 37.53 7.59 C38.32 8.53, 39.04 9.56, 39.66 10.63 C40.27 11.69, 40.8 12.83, 41.22 13.98 C41.64 15.14, 41.97 16.35, 42.18 17.56 C42.39 18.77, 42.45 20.64, 42.5 21.25 C42.56 21.87, 42.56 20.64, 42.5 21.25" stroke="#6741d9" stroke-width="4" fill="none"></path></g><g stroke-linecap="round"><g stroke-opacity="0.6" fill-opacity="0.6" transform="translate(180.51171875 91.45471376050415) rotate(0 52.994140625 -35.595703125)"><path d="M0 0 C17.66 -11.87, 88.32 -59.33, 105.99 -71.19" stroke="#ced4da" stroke-width="4.5" fill="none" stroke-dasharray="1.5 10"></path></g></g><mask></mask><g stroke-linecap="round"><g stroke-opacity="0.6" fill-opacity="0.6" transform="translate(180.787109375 93.92151063550415) rotate(0 61.173828125 40.466796875)"><path d="M0 0 C20.39 13.49, 101.96 67.44, 122.35 80.93" stroke="#ced4da" stroke-width="4.5" fill="none" stroke-dasharray="1.5 10"></path></g></g><mask></mask><g stroke-linecap="round"><g stroke-opacity="0.6" fill-opacity="0.6" transform="translate(182.908203125 92.60510438550415) rotate(0 47.767578125 -1.34765625)"><path d="M0 0 C15.92 -0.45, 79.61 -2.25, 95.54 -2.7 M0 0 C15.92 -0.45, 79.61 -2.25, 95.54 -2.7" stroke="#1e1e1e" stroke-width="4" fill="none"></path></g></g><mask></mask><g stroke-linecap="round"><g stroke-opacity="0.6" fill-opacity="0.6" transform="translate(179.9375 41.46699054621848) rotate(0 48.271484375 22.792689732142833)"><path d="M0 0 C16.09 7.6, 80.45 37.99, 96.54 45.59 M0 0 C16.09 7.6, 80.45 37.99, 96.54 45.59" stroke="#1e1e1e" stroke-width="4" fill="none"></path></g></g><mask></mask><g stroke-linecap="round"><g stroke-opacity="0.6" fill-opacity="0.6" transform="translate(181.7985491071429 147.22815126050415) rotate(0 47.296037946428555 -26.02566964285711)"><path d="M0 0 C15.77 -8.68, 78.83 -43.38, 94.59 -52.05 M0 0 C15.77 -8.68, 78.83 -43.38, 94.59 -52.05" stroke="#1e1e1e" stroke-width="4" fill="none"></path></g></g><mask></mask><g stroke-opacity="0.6" fill-opacity="0.6" transform="translate(14.417410714285666 81.00995929621848) rotate(0 44.609375 11.5)"><text x="0" y="0" font-family="Helvetica, Segoe UI Emoji" font-size="20px" fill="#1e1e1e" text-anchor="start" style="white-space: pre;" direction="ltr" dominant-baseline="text-before-edge">N("S") = 1</text></g><g stroke-linecap="round"><g stroke-opacity="0.6" fill-opacity="0.6" transform="translate(10 75.67792804621848) rotate(0 0.2578125 18.171875)"><path d="M0 0 C0.09 6.06, 0.43 30.29, 0.52 36.34 M0 0 C0.09 6.06, 0.43 30.29, 0.52 36.34" stroke="#1e1e1e" stroke-width="1" fill="none"></path></g></g><mask></mask><g stroke-linecap="round"><g stroke-opacity="0.6" fill-opacity="0.6" transform="translate(70.64453125 76.1948551295518) rotate(0 0.2578125 18.171875)"><path d="M0 0 C0.09 6.06, 0.43 30.29, 0.52 36.34 M0 0 C0.09 6.06, 0.43 30.29, 0.52 36.34" stroke="#1e1e1e" stroke-width="1" fill="none"></path></g></g><mask></mask><g stroke-opacity="0.6" fill-opacity="0.6" stroke-linecap="round" transform="translate(511.7583705357142 10.94902179621846) rotate(0 111.541015625 91.33984375)"><path d="M0 0 C54.28 0, 108.55 0, 223.08 0 M0 0 C62.19 0, 124.39 0, 223.08 0 M223.08 0 C223.08 63.94, 223.08 127.88, 223.08 182.68 M223.08 0 C223.08 60.83, 223.08 121.66, 223.08 182.68 M223.08 182.68 C161.02 182.68, 98.96 182.68, 0 182.68 M223.08 182.68 C154.76 182.68, 86.44 182.68, 0 182.68 M0 182.68 C0 110.35, 0 38.01, 0 0 M0 182.68 C0 139.78, 0 96.87, 0 0" stroke="#1e1e1e" stroke-width="4" fill="none"></path></g><g stroke-opacity="0.6" fill-opacity="0.6" transform="translate(613.2886439732142 81.58886554621847) rotate(0 10.0107421875 20.69999999999999)"><text x="10.0107421875" y="0" font-family="Helvetica, Segoe UI Emoji" font-size="36px" fill="#1e1e1e" text-anchor="middle" style="white-space: pre;" direction="ltr" dominant-baseline="text-before-edge">3</text></g><g stroke-linecap="round"><g stroke-opacity="0.6" fill-opacity="0.6" transform="translate(585.9107142857143 10) rotate(0 -0.1640625 91.240234375)"><path d="M0 0 C-0.12 67.29, -0.24 134.57, -0.33 182.48 M0 0 C-0.07 38.44, -0.14 76.88, -0.33 182.48" stroke="#1e1e1e" stroke-width="1" fill="none"></path></g></g><mask></mask><g stroke-linecap="round"><g stroke-opacity="0.6" fill-opacity="0.6" transform="translate(659.0279017857143 10.104434742647015) rotate(0 -0.1640625 91.240234375)"><path d="M0 0 C-0.12 68.61, -0.25 137.23, -0.33 182.48 M0 0 C-0.1 52.99, -0.19 105.98, -0.33 182.48" stroke="#1e1e1e" stroke-width="1" fill="none"></path></g></g><mask></mask><g stroke-linecap="round"><g stroke-opacity="0.6" fill-opacity="0.6" transform="translate(511.9614955357142 70.20097492121846) rotate(0 112.22265625 0.6328125)"><path d="M0 0 C87.37 0.49, 174.73 0.99, 224.45 1.27 M0 0 C85.8 0.48, 171.59 0.97, 224.45 1.27" stroke="#1e1e1e" stroke-width="1" fill="none"></path></g></g><mask></mask><g stroke-linecap="round"><g stroke-opacity="0.6" fill-opacity="0.6" transform="translate(511.7154017857142 128.73529411764702) rotate(0 112.22265625 0.6328125)"><path d="M0 0 C72.53 0.41, 145.05 0.82, 224.45 1.27 M0 0 C74.56 0.42, 149.13 0.84, 224.45 1.27" stroke="#1e1e1e" stroke-width="1" fill="none"></path></g></g><mask></mask><g stroke-opacity="0.6" fill-opacity="0.6" transform="translate(613.6099330357143 139.26654411764702) rotate(0 10.0107421875 20.69999999999999)"><text x="0" y="0" font-family="Helvetica, Segoe UI Emoji" font-size="36px" fill="#1e1e1e" text-anchor="start" style="white-space: pre;" direction="ltr" dominant-baseline="text-before-edge">2</text></g><g stroke-opacity="0.6" fill-opacity="0.6" transform="translate(535.7251427914921 139.66693474264702) rotate(0 10.0107421875 20.69999999999999)"><text x="0" y="0" font-family="Helvetica, Segoe UI Emoji" font-size="36px" fill="#1e1e1e" text-anchor="start" style="white-space: pre;" direction="ltr" dominant-baseline="text-before-edge">9</text></g><g stroke-opacity="0.6" fill-opacity="0.6" transform="translate(515.0747767857142 71.63060661764706) rotate(0 6.669921875 11.5)"><text x="0" y="0" font-family="Helvetica, Segoe UI Emoji" font-size="20px" fill="#2f9e44" text-anchor="start" style="white-space: pre;" direction="ltr" dominant-baseline="text-before-edge">S</text></g><g stroke-opacity="0.6" fill-opacity="0.6" stroke-linecap="round" transform="translate(734.8507254464287 11.420246848739396) rotate(0 111.541015625 91.33984375)"><path d="M0 0 C75.65 0, 151.31 0, 223.08 0 M0 0 C44.8 0, 89.6 0, 223.08 0 M223.08 0 C223.08 49.43, 223.08 98.85, 223.08 182.68 M223.08 0 C223.08 40.16, 223.08 80.32, 223.08 182.68 M223.08 182.68 C158.29 182.68, 93.49 182.68, 0 182.68 M223.08 182.68 C140.22 182.68, 57.35 182.68, 0 182.68 M0 182.68 C0 119.11, 0 55.53, 0 0 M0 182.68 C0 136.73, 0 90.77, 0 0" stroke="#1e1e1e" stroke-width="4" fill="none"></path></g><g stroke-opacity="0.6" fill-opacity="0.6" stroke-linecap="round" transform="translate(511.7259114583335 194.52856048669514) rotate(0 111.541015625 91.33984375)"><path d="M0 0 C69.31 0, 138.62 0, 223.08 0 M0 0 C75.13 0, 150.26 0, 223.08 0 M223.08 0 C223.08 50.09, 223.08 100.18, 223.08 182.68 M223.08 0 C223.08 50.23, 223.08 100.46, 223.08 182.68 M223.08 182.68 C167.95 182.68, 112.81 182.68, 0 182.68 M223.08 182.68 C146.64 182.68, 70.2 182.68, 0 182.68 M0 182.68 C0 123.16, 0 63.64, 0 0 M0 182.68 C0 109.97, 0 37.26, 0 0" stroke="#1e1e1e" stroke-width="4" fill="none"></path></g><g stroke-linecap="round"><g stroke-opacity="0.6" fill-opacity="0.6" transform="translate(733.7365743172273 71.22509847689156) rotate(0 112.22265625 0.6328125)"><path d="M0 0 C78.5 0.44, 157.01 0.89, 224.45 1.27 M0 0 C55.12 0.31, 110.24 0.62, 224.45 1.27" stroke="#1e1e1e" stroke-width="1" fill="none"></path></g></g><mask></mask><g stroke-linecap="round"><g stroke-opacity="0.6" fill-opacity="0.6" transform="translate(734.690158876051 130.0647124474798) rotate(0 112.22265625 0.6328125)"><path d="M0 0 C84.54 0.48, 169.08 0.95, 224.45 1.27 M0 0 C66.02 0.37, 132.05 0.74, 224.45 1.27" stroke="#1e1e1e" stroke-width="1" fill="none"></path></g></g><mask></mask><g stroke-linecap="round"><g stroke-opacity="0.6" fill-opacity="0.6" transform="translate(814.8870798319332 11.60802586659753) rotate(0 -0.1640625 91.240234375)"><path d="M0 0 C-0.08 43.5, -0.16 87, -0.33 182.48 M0 0 C-0.12 69.28, -0.25 138.56, -0.33 182.48" stroke="#1e1e1e" stroke-width="1" fill="none"></path></g></g><mask></mask><g stroke-linecap="round"><g stroke-opacity="0.6" fill-opacity="0.6" transform="translate(884.1701680672273 12.386978072479963) rotate(0 -0.1640625 91.240234375)"><path d="M0 0 C-0.11 60.2, -0.22 120.4, -0.33 182.48 M0 0 C-0.11 61.92, -0.22 123.83, -0.33 182.48" stroke="#1e1e1e" stroke-width="1" fill="none"></path></g></g><mask></mask><g stroke-linecap="round"><g stroke-opacity="0.6" fill-opacity="0.6" transform="translate(585.422465861345 194.78357733718565) rotate(0 -0.1640625 91.240234375)"><path d="M0 0 C-0.09 50.48, -0.18 100.96, -0.33 182.48 M0 0 C-0.08 43.57, -0.16 87.13, -0.33 182.48" stroke="#1e1e1e" stroke-width="1" fill="none"></path></g></g><mask></mask><g stroke-linecap="round"><g stroke-opacity="0.6" fill-opacity="0.6" transform="translate(658.3866202731095 194.58826483718576) rotate(0 -0.1640625 91.240234375)"><path d="M0 0 C-0.08 44.94, -0.16 89.88, -0.33 182.48 M0 0 C-0.07 41.3, -0.15 82.6, -0.33 182.48" stroke="#1e1e1e" stroke-width="1" fill="none"></path></g></g><mask></mask><g stroke-linecap="round"><g stroke-opacity="0.6" fill-opacity="0.6" transform="translate(511.3652507878155 259.60974921218576) rotate(0 112.22265625 0.6328125)"><path d="M0 0 C51.32 0.29, 102.65 0.58, 224.45 1.27 M0 0 C55.74 0.31, 111.49 0.63, 224.45 1.27" stroke="#1e1e1e" stroke-width="1" fill="none"></path></g></g><mask></mask><g stroke-linecap="round"><g stroke-opacity="0.6" fill-opacity="0.6" transform="translate(510.8873096113449 319.82574185924454) rotate(0 112.22265625 0.6328125)"><path d="M0 0 C72.01 0.41, 144.01 0.81, 224.45 1.27 M0 0 C89.05 0.5, 178.1 1, 224.45 1.27" stroke="#1e1e1e" stroke-width="1" fill="none"></path></g></g><mask></mask><g stroke-opacity="0.6" fill-opacity="0.6" transform="translate(535.7251427914921 268.63447347689146) rotate(0 10.0107421875 20.700000000000003)"><text x="0" y="0" font-family="Helvetica, Segoe UI Emoji" font-size="36px" fill="#1e1e1e" text-anchor="start" style="white-space: pre;" direction="ltr" dominant-baseline="text-before-edge">1</text></g><g stroke-opacity="0.6" fill-opacity="0.6" transform="translate(535.7251427914921 326.87859112395023) rotate(0 10.0107421875 20.700000000000003)"><text x="0" y="0" font-family="Helvetica, Segoe UI Emoji" font-size="36px" fill="#1e1e1e" text-anchor="start" style="white-space: pre;" direction="ltr" dominant-baseline="text-before-edge">6</text></g><g stroke-opacity="0.6" fill-opacity="0.6" transform="translate(763.1490283613449 81.4971573004209) rotate(0 10.0107421875 20.69999999999999)"><text x="0" y="0" font-family="Helvetica, Segoe UI Emoji" font-size="36px" fill="#1e1e1e" text-anchor="start" style="white-space: pre;" direction="ltr" dominant-baseline="text-before-edge">7</text></g><g stroke-opacity="0.6" fill-opacity="0.6" transform="translate(910.8489364495803 83.38364627100913) rotate(0 10.0107421875 20.69999999999999)"><text x="0" y="0" font-family="Helvetica, Segoe UI Emoji" font-size="36px" fill="#1e1e1e" text-anchor="start" style="white-space: pre;" direction="ltr" dominant-baseline="text-before-edge">8</text></g><g stroke-opacity="0.6" fill-opacity="0.6" stroke-linecap="round" transform="translate(956.0691800157566 11.082097348883451) rotate(0 111.541015625 91.33984375)"><path d="M0 0 C88.23 0, 176.47 0, 223.08 0 M0 0 C47.08 0, 94.16 0, 223.08 0 M223.08 0 C223.08 71.15, 223.08 142.3, 223.08 182.68 M223.08 0 C223.08 57.64, 223.08 115.27, 223.08 182.68 M223.08 182.68 C139.1 182.68, 55.11 182.68, 0 182.68 M223.08 182.68 C155.3 182.68, 87.51 182.68, 0 182.68 M0 182.68 C0 117.31, 0 51.94, 0 0 M0 182.68 C0 133.73, 0 84.78, 0 0" stroke="#1e1e1e" stroke-width="4" fill="none"></path></g><g stroke-linecap="round"><g stroke-opacity="0.6" fill-opacity="0.6" transform="translate(955.7049222032566 71.95026141138345) rotate(0 112.22265625 0.6328125)"><path d="M0 0 C53.76 0.3, 107.51 0.61, 224.45 1.27 M0 0 C58.15 0.33, 116.31 0.66, 224.45 1.27" stroke="#1e1e1e" stroke-width="1" fill="none"></path></g></g><mask></mask><g stroke-linecap="round"><g stroke-opacity="0.6" fill-opacity="0.6" transform="translate(952.5115628282566 131.33990984888345) rotate(0 112.22265625 0.6328125)"><path d="M0 0 C76.78 0.43, 153.56 0.87, 224.45 1.27 M0 0 C55.84 0.31, 111.69 0.63, 224.45 1.27" stroke="#1e1e1e" stroke-width="1" fill="none"></path></g></g><mask></mask><g stroke-linecap="round"><g stroke-opacity="0.6" fill-opacity="0.6" transform="translate(1028.3797843356097 13.638910308442235) rotate(0 -0.1640625 91.240234375)"><path d="M0 0 C-0.07 38.64, -0.14 77.29, -0.33 182.48 M0 0 C-0.07 37.06, -0.13 74.12, -0.33 182.48" stroke="#1e1e1e" stroke-width="1" fill="none"></path></g></g><mask></mask><g stroke-linecap="round"><g stroke-opacity="0.6" fill-opacity="0.6" transform="translate(1097.6628725709036 14.527947741597359) rotate(0 -0.1640625 91.240234375)"><path d="M0 0 C-0.12 66.96, -0.24 133.92, -0.33 182.48 M0 0 C-0.13 72.3, -0.26 144.59, -0.33 182.48" stroke="#1e1e1e" stroke-width="1" fill="none"></path></g></g><mask></mask><g stroke-opacity="0.6" fill-opacity="0.6" transform="translate(1122.5711331407574 81.57721453638345) rotate(0 10.0107421875 20.69999999999999)"><text x="0" y="0" font-family="Helvetica, Segoe UI Emoji" font-size="36px" fill="#1e1e1e" text-anchor="start" style="white-space: pre;" direction="ltr" dominant-baseline="text-before-edge">5</text></g></svg>