<svg version="1.1" xmlns="http://www.w3.org/2000/svg" viewBox="0 0 1276.7150199390912 331.38931471025955" width="3830.1450598172737" height="994.1679441307787">
  <!-- svg-source:excalidraw -->
  
  <defs>
    <style class="style-fonts">
      @font-face {
        font-family: "Virgil";
        src: url("https://excalidraw.com/Virgil.woff2");
      }
      @font-face {
        font-family: "Cascadia";
        src: url("https://excalidraw.com/Cascadia.woff2");
      }
    </style>
  </defs>
  <g stroke-opacity="0.6" fill-opacity="0.6" stroke-linecap="round" transform="translate(308.9651988636364 68.98231305306194) rotate(0 27 27.5)"><path d="M54 27.5 C54 29.09, 53.86 30.71, 53.59 32.28 C53.32 33.84, 52.91 35.41, 52.37 36.91 C51.84 38.4, 51.16 39.87, 50.38 41.25 C49.6 42.63, 48.69 43.96, 47.68 45.18 C46.68 46.4, 45.55 47.54, 44.36 48.57 C43.16 49.59, 41.85 50.52, 40.5 51.32 C39.15 52.11, 37.7 52.8, 36.23 53.34 C34.77 53.89, 33.23 54.31, 31.69 54.58 C30.15 54.86, 28.56 55, 27 55 C25.44 55, 23.85 54.86, 22.31 54.58 C20.77 54.31, 19.23 53.89, 17.77 53.34 C16.3 52.8, 14.85 52.11, 13.5 51.32 C12.15 50.52, 10.84 49.59, 9.64 48.57 C8.45 47.54, 7.32 46.4, 6.32 45.18 C5.31 43.96, 4.4 42.63, 3.62 41.25 C2.84 39.87, 2.16 38.4, 1.63 36.91 C1.09 35.41, 0.68 33.84, 0.41 32.28 C0.14 30.71, 0 29.09, 0 27.5 C0 25.91, 0.14 24.29, 0.41 22.72 C0.68 21.16, 1.09 19.59, 1.63 18.09 C2.16 16.6, 2.84 15.13, 3.62 13.75 C4.4 12.37, 5.31 11.04, 6.32 9.82 C7.32 8.6, 8.45 7.46, 9.64 6.43 C10.84 5.41, 12.15 4.48, 13.5 3.68 C14.85 2.89, 16.3 2.2, 17.77 1.66 C19.23 1.11, 20.77 0.69, 22.31 0.42 C23.85 0.14, 25.44 0, 27 0 C28.56 0, 30.15 0.14, 31.69 0.42 C33.23 0.69, 34.77 1.11, 36.23 1.66 C37.7 2.2, 39.15 2.89, 40.5 3.68 C41.85 4.48, 43.16 5.41, 44.36 6.43 C45.55 7.46, 46.68 8.6, 47.68 9.82 C48.69 11.04, 49.6 12.37, 50.38 13.75 C51.16 15.13, 51.84 16.6, 52.37 18.09 C52.91 19.59, 53.32 21.16, 53.59 22.72 C53.86 24.29, 53.93 26.7, 54 27.5 C54.07 28.3, 54.07 26.7, 54 27.5" stroke="#6741d9" stroke-width="4" fill="none"></path></g><g stroke-opacity="0.6" fill-opacity="0.6" transform="translate(330.86794467784955 86.18687657043188) rotate(0 5.00537109375 10.350000000000023)"><text x="5.00537109375" y="0" font-family="Helvetica, Segoe UI Emoji" font-size="18.000000000000004px" fill="#1e1e1e" text-anchor="middle" style="white-space: pre;" direction="ltr" dominant-baseline="text-before-edge">4</text></g><g stroke-opacity="0.6" fill-opacity="0.6" stroke-linecap="round" transform="translate(165.69691051136368 78.88270367806194) rotate(0 21.251953125 23.5)"><path d="M42.5 23.5 C42.5 24.86, 42.39 26.24, 42.18 27.58 C41.97 28.92, 41.64 30.26, 41.22 31.54 C40.8 32.82, 40.27 34.07, 39.66 35.25 C39.04 36.43, 38.32 37.56, 37.53 38.61 C36.74 39.65, 35.85 40.63, 34.91 41.5 C33.97 42.38, 32.94 43.17, 31.88 43.85 C30.81 44.53, 29.68 45.12, 28.52 45.58 C27.36 46.05, 26.15 46.41, 24.94 46.64 C23.73 46.88, 22.48 47, 21.25 47 C20.02 47, 18.77 46.88, 17.56 46.64 C16.35 46.41, 15.14 46.05, 13.98 45.58 C12.83 45.12, 11.69 44.53, 10.63 43.85 C9.56 43.17, 8.53 42.38, 7.59 41.5 C6.65 40.63, 5.76 39.65, 4.97 38.61 C4.18 37.56, 3.46 36.43, 2.85 35.25 C2.23 34.07, 1.7 32.82, 1.28 31.54 C0.86 30.26, 0.54 28.92, 0.32 27.58 C0.11 26.24, 0 24.86, 0 23.5 C0 22.14, 0.11 20.76, 0.32 19.42 C0.54 18.08, 0.86 16.74, 1.28 15.46 C1.7 14.18, 2.23 12.93, 2.85 11.75 C3.46 10.57, 4.18 9.44, 4.97 8.39 C5.76 7.35, 6.65 6.37, 7.59 5.5 C8.53 4.62, 9.56 3.83, 10.63 3.15 C11.69 2.47, 12.83 1.88, 13.98 1.42 C15.14 0.95, 16.35 0.59, 17.56 0.36 C18.77 0.12, 20.02 0, 21.25 0 C22.48 0, 23.73 0.12, 24.94 0.36 C26.15 0.59, 27.36 0.95, 28.52 1.42 C29.68 1.88, 30.81 2.47, 31.88 3.15 C32.94 3.83, 33.97 4.62, 34.91 5.5 C35.85 6.37, 36.74 7.35, 37.53 8.39 C38.32 9.44, 39.04 10.57, 39.66 11.75 C40.27 12.93, 40.8 14.18, 41.22 15.46 C41.64 16.74, 41.97 18.08, 42.18 19.42 C42.39 20.76, 42.45 22.82, 42.5 23.5 C42.56 24.18, 42.56 22.82, 42.5 23.5" stroke="#6741d9" stroke-width="4" fill="none"></path></g><g stroke-opacity="0.6" fill-opacity="0.6" transform="translate(180.25154159321755 90.76569432017811) rotate(0 6.669921875 11.5)"><text x="6.669921875" y="0" font-family="Helvetica, Segoe UI Emoji" font-size="20px" fill="#1e1e1e" text-anchor="middle" style="white-space: pre;" direction="ltr" dominant-baseline="text-before-edge">S</text></g><g stroke-opacity="0.6" fill-opacity="0.6" stroke-linecap="round" transform="translate(162.90855823863637 24.828016178061944) rotate(0 21.251953125 21.251953125)"><path d="M42.5 21.25 C42.5 22.48, 42.39 23.73, 42.18 24.94 C41.97 26.15, 41.64 27.36, 41.22 28.52 C40.8 29.68, 40.27 30.81, 39.66 31.88 C39.04 32.94, 38.32 33.97, 37.53 34.91 C36.74 35.85, 35.85 36.74, 34.91 37.53 C33.97 38.32, 32.94 39.04, 31.88 39.66 C30.81 40.27, 29.68 40.8, 28.52 41.22 C27.36 41.64, 26.15 41.97, 24.94 42.18 C23.73 42.39, 22.48 42.5, 21.25 42.5 C20.02 42.5, 18.77 42.39, 17.56 42.18 C16.35 41.97, 15.14 41.64, 13.98 41.22 C12.83 40.8, 11.69 40.27, 10.63 39.66 C9.56 39.04, 8.53 38.32, 7.59 37.53 C6.65 36.74, 5.76 35.85, 4.97 34.91 C4.18 33.97, 3.46 32.94, 2.85 31.88 C2.23 30.81, 1.7 29.68, 1.28 28.52 C0.86 27.36, 0.54 26.15, 0.32 24.94 C0.11 23.73, 0 22.48, 0 21.25 C0 20.02, 0.11 18.77, 0.32 17.56 C0.54 16.35, 0.86 15.14, 1.28 13.98 C1.7 12.83, 2.23 11.69, 2.85 10.63 C3.46 9.56, 4.18 8.53, 4.97 7.59 C5.76 6.65, 6.65 5.76, 7.59 4.97 C8.53 4.18, 9.56 3.46, 10.63 2.85 C11.69 2.23, 12.83 1.7, 13.98 1.28 C15.14 0.86, 16.35 0.54, 17.56 0.32 C18.77 0.11, 20.02 0, 21.25 0 C22.48 0, 23.73 0.11, 24.94 0.32 C26.15 0.54, 27.36 0.86, 28.52 1.28 C29.68 1.7, 30.81 2.23, 31.88 2.85 C32.94 3.46, 33.97 4.18, 34.91 4.97 C35.85 5.76, 36.74 6.65, 37.53 7.59 C38.32 8.53, 39.04 9.56, 39.66 10.63 C40.27 11.69, 40.8 12.83, 41.22 13.98 C41.64 15.14, 41.97 16.35, 42.18 17.56 C42.39 18.77, 42.45 20.64, 42.5 21.25 C42.56 21.87, 42.56 20.64, 42.5 21.25" stroke="#6741d9" stroke-width="4" fill="none"></path></g><g stroke-linecap="round"><g stroke-opacity="0.6" fill-opacity="0.6" transform="translate(206.6780133928571 47.83078099137367) rotate(0 50.61695921266235 25.952186485389632)"><path d="M0 0 C16.87 8.65, 84.36 43.25, 101.23 51.9 M0 0 C16.87 8.65, 84.36 43.25, 101.23 51.9" stroke="#1e1e1e" stroke-width="4" fill="none"></path></g></g><mask></mask><g stroke-linecap="round"><g stroke-opacity="0.6" fill-opacity="0.6" transform="translate(212.31871448863637 101.20301617806194) rotate(0 47.767578125 -1.34765625)"><path d="M0 0 C15.92 -0.45, 79.61 -2.25, 95.54 -2.7 M0 0 C15.92 -0.45, 79.61 -2.25, 95.54 -2.7" stroke="#1e1e1e" stroke-width="4" fill="none"></path></g></g><mask></mask><g stroke-linecap="round"><g stroke-opacity="0.6" fill-opacity="0.6" transform="translate(208.56439393939388 159.19478937881945) rotate(0 50.78776041666663 -0.9075520833333144)"><path d="M0 0 C16.93 -0.3, 84.65 -1.51, 101.58 -1.82 M0 0 C16.93 -0.3, 84.65 -1.51, 101.58 -1.82" stroke="#1e1e1e" stroke-width="4" fill="none"></path></g></g><mask></mask><g stroke-linecap="round"><g stroke-opacity="0.6" fill-opacity="0.6" transform="translate(208.89879261363637 159.49438691669832) rotate(0 49.77397017045456 -29.601917613636374)"><path d="M0 0 C16.59 -9.87, 82.96 -49.34, 99.55 -59.2 M0 0 C16.59 -9.87, 82.96 -49.34, 99.55 -59.2" stroke="#1e1e1e" stroke-width="4" fill="none"></path></g></g><mask></mask><g stroke-opacity="0.6" fill-opacity="0.6" transform="translate(14.417410714285666 111.51305574786716) rotate(0 49.1748046875 11.5)"><text x="0" y="0" font-family="Helvetica, Segoe UI Emoji" font-size="20px" fill="#1e1e1e" text-anchor="start" style="white-space: pre;" direction="ltr" dominant-baseline="text-before-edge">N(S, T) = 2</text></g><g stroke-linecap="round"><g stroke-opacity="0.6" fill-opacity="0.6" transform="translate(10 106.39586824786716) rotate(0 0.2578125 18.171875)"><path d="M0 0 C0.09 6.06, 0.43 30.29, 0.52 36.34 M0 0 C0.09 6.06, 0.43 30.29, 0.52 36.34" stroke="#1e1e1e" stroke-width="1" fill="none"></path></g></g><mask></mask><g stroke-linecap="round"><g stroke-opacity="0.6" fill-opacity="0.6" transform="translate(80.11399147727263 105.89480290695815) rotate(0 0.2578125 18.171875)"><path d="M0 0 C0.09 6.06, 0.43 30.29, 0.52 36.34 M0 0 C0.09 6.06, 0.43 30.29, 0.52 36.34" stroke="#1e1e1e" stroke-width="1" fill="none"></path></g></g><mask></mask><g stroke-linecap="round"><g stroke-opacity="0.6" fill-opacity="0.6" transform="translate(209.4711766098485 101.77912886745582) rotate(0 50.60990767045453 27.281072443181813)"><path d="M0 0 C16.87 9.09, 84.35 45.47, 101.22 54.56 M0 0 C16.87 9.09, 84.35 45.47, 101.22 54.56" stroke="#1e1e1e" stroke-width="4" fill="none"></path></g></g><mask></mask><g stroke-opacity="0.6" fill-opacity="0.6" stroke-linecap="round" transform="translate(311.6748342803031 128.8234588863952) rotate(0 27 27.5)"><path d="M54 27.5 C54 29.09, 53.86 30.71, 53.59 32.28 C53.32 33.84, 52.91 35.41, 52.37 36.91 C51.84 38.4, 51.16 39.87, 50.38 41.25 C49.6 42.63, 48.69 43.96, 47.68 45.18 C46.68 46.4, 45.55 47.54, 44.36 48.57 C43.16 49.59, 41.85 50.52, 40.5 51.32 C39.15 52.11, 37.7 52.8, 36.23 53.34 C34.77 53.89, 33.23 54.31, 31.69 54.58 C30.15 54.86, 28.56 55, 27 55 C25.44 55, 23.85 54.86, 22.31 54.58 C20.77 54.31, 19.23 53.89, 17.77 53.34 C16.3 52.8, 14.85 52.11, 13.5 51.32 C12.15 50.52, 10.84 49.59, 9.64 48.57 C8.45 47.54, 7.32 46.4, 6.32 45.18 C5.31 43.96, 4.4 42.63, 3.62 41.25 C2.84 39.87, 2.16 38.4, 1.63 36.91 C1.09 35.41, 0.68 33.84, 0.41 32.28 C0.14 30.71, 0 29.09, 0 27.5 C0 25.91, 0.14 24.29, 0.41 22.72 C0.68 21.16, 1.09 19.59, 1.63 18.09 C2.16 16.6, 2.84 15.13, 3.62 13.75 C4.4 12.37, 5.31 11.04, 6.32 9.82 C7.32 8.6, 8.45 7.46, 9.64 6.43 C10.84 5.41, 12.15 4.48, 13.5 3.68 C14.85 2.89, 16.3 2.2, 17.77 1.66 C19.23 1.11, 20.77 0.69, 22.31 0.42 C23.85 0.14, 25.44 0, 27 0 C28.56 0, 30.15 0.14, 31.69 0.42 C33.23 0.69, 34.77 1.11, 36.23 1.66 C37.7 2.2, 39.15 2.89, 40.5 3.68 C41.85 4.48, 43.16 5.41, 44.36 6.43 C45.55 7.46, 46.68 8.6, 47.68 9.82 C48.69 11.04, 49.6 12.37, 50.38 13.75 C51.16 15.13, 51.84 16.6, 52.37 18.09 C52.91 19.59, 53.32 21.16, 53.59 22.72 C53.86 24.29, 53.93 26.7, 54 27.5 C54.07 28.3, 54.07 26.7, 54 27.5" stroke="#6741d9" stroke-width="4" fill="none"></path></g><g stroke-opacity="0.6" fill-opacity="0.6" transform="translate(333.5775800945163 146.02802240376514) rotate(0 5.00537109375 10.350000000000023)"><text x="5.00537109375" y="0" font-family="Helvetica, Segoe UI Emoji" font-size="18.000000000000004px" fill="#1e1e1e" text-anchor="middle" style="white-space: pre;" direction="ltr" dominant-baseline="text-before-edge">7</text></g><g stroke-linecap="round"><g stroke-opacity="0.6" fill-opacity="0.6" transform="translate(309.73691998106057 160.09565348866795) rotate(0 -51.58700284090909 26.262784090909122)"><path d="M0 0 C-17.2 8.75, -85.98 43.77, -103.17 52.53 M0 0 C-17.2 8.75, -85.98 43.77, -103.17 52.53" stroke="#1e1e1e" stroke-width="4" fill="none"></path></g></g><mask></mask><g stroke-opacity="0.6" fill-opacity="0.6" stroke-linecap="round" transform="translate(167.2837949810605 133.46443900003158) rotate(0 21.251953125 23.5)"><path d="M42.5 23.5 C42.5 24.86, 42.39 26.24, 42.18 27.58 C41.97 28.92, 41.64 30.26, 41.22 31.54 C40.8 32.82, 40.27 34.07, 39.66 35.25 C39.04 36.43, 38.32 37.56, 37.53 38.61 C36.74 39.65, 35.85 40.63, 34.91 41.5 C33.97 42.38, 32.94 43.17, 31.88 43.85 C30.81 44.53, 29.68 45.12, 28.52 45.58 C27.36 46.05, 26.15 46.41, 24.94 46.64 C23.73 46.88, 22.48 47, 21.25 47 C20.02 47, 18.77 46.88, 17.56 46.64 C16.35 46.41, 15.14 46.05, 13.98 45.58 C12.83 45.12, 11.69 44.53, 10.63 43.85 C9.56 43.17, 8.53 42.38, 7.59 41.5 C6.65 40.63, 5.76 39.65, 4.97 38.61 C4.18 37.56, 3.46 36.43, 2.85 35.25 C2.23 34.07, 1.7 32.82, 1.28 31.54 C0.86 30.26, 0.54 28.92, 0.32 27.58 C0.11 26.24, 0 24.86, 0 23.5 C0 22.14, 0.11 20.76, 0.32 19.42 C0.54 18.08, 0.86 16.74, 1.28 15.46 C1.7 14.18, 2.23 12.93, 2.85 11.75 C3.46 10.57, 4.18 9.44, 4.97 8.39 C5.76 7.35, 6.65 6.37, 7.59 5.5 C8.53 4.62, 9.56 3.83, 10.63 3.15 C11.69 2.47, 12.83 1.88, 13.98 1.42 C15.14 0.95, 16.35 0.59, 17.56 0.36 C18.77 0.12, 20.02 0, 21.25 0 C22.48 0, 23.73 0.12, 24.94 0.36 C26.15 0.59, 27.36 0.95, 28.52 1.42 C29.68 1.88, 30.81 2.47, 31.88 3.15 C32.94 3.83, 33.97 4.62, 34.91 5.5 C35.85 6.37, 36.74 7.35, 37.53 8.39 C38.32 9.44, 39.04 10.57, 39.66 11.75 C40.27 12.93, 40.8 14.18, 41.22 15.46 C41.64 16.74, 41.97 18.08, 42.18 19.42 C42.39 20.76, 42.45 22.82, 42.5 23.5 C42.56 24.18, 42.56 22.82, 42.5 23.5" stroke="#6741d9" stroke-width="4" fill="none"></path></g><g stroke-opacity="0.6" fill-opacity="0.6" transform="translate(182.39994950041438 145.34742964214774) rotate(0 6.1083984375 11.5)"><text x="6.1083984375" y="0" font-family="Helvetica, Segoe UI Emoji" font-size="20px" fill="#1e1e1e" text-anchor="middle" style="white-space: pre;" direction="ltr" dominant-baseline="text-before-edge">T</text></g><g stroke-linecap="round"><g stroke-opacity="0.6" fill-opacity="0.6" transform="translate(209.13819839015162 100.30073161366806) rotate(0 61.503373579545496 -34.86328125)"><path d="M0 0 C20.5 -11.62, 102.51 -58.11, 123.01 -69.73" stroke="#ced4da" stroke-width="4.5" fill="none" stroke-dasharray="1.5 10"></path></g></g><mask></mask><g stroke-linecap="round"><g stroke-opacity="0.6" fill-opacity="0.6" transform="translate(210.0401870265153 160.0084730909407) rotate(0 64.01225142045456 39.385653409090935)"><path d="M0 0 C21.34 13.13, 106.69 65.64, 128.02 78.77" stroke="#ced4da" stroke-width="4.5" fill="none" stroke-dasharray="1.5 10"></path></g></g><mask></mask><g stroke-opacity="0.6" fill-opacity="0.6" stroke-linecap="round" transform="translate(165.25868760146102 194.4074136685922) rotate(0 21.251953125 21.251953125)"><path d="M42.5 21.25 C42.5 22.48, 42.39 23.73, 42.18 24.94 C41.97 26.15, 41.64 27.36, 41.22 28.52 C40.8 29.68, 40.27 30.81, 39.66 31.88 C39.04 32.94, 38.32 33.97, 37.53 34.91 C36.74 35.85, 35.85 36.74, 34.91 37.53 C33.97 38.32, 32.94 39.04, 31.88 39.66 C30.81 40.27, 29.68 40.8, 28.52 41.22 C27.36 41.64, 26.15 41.97, 24.94 42.18 C23.73 42.39, 22.48 42.5, 21.25 42.5 C20.02 42.5, 18.77 42.39, 17.56 42.18 C16.35 41.97, 15.14 41.64, 13.98 41.22 C12.83 40.8, 11.69 40.27, 10.63 39.66 C9.56 39.04, 8.53 38.32, 7.59 37.53 C6.65 36.74, 5.76 35.85, 4.97 34.91 C4.18 33.97, 3.46 32.94, 2.85 31.88 C2.23 30.81, 1.7 29.68, 1.28 28.52 C0.86 27.36, 0.54 26.15, 0.32 24.94 C0.11 23.73, 0 22.48, 0 21.25 C0 20.02, 0.11 18.77, 0.32 17.56 C0.54 16.35, 0.86 15.14, 1.28 13.98 C1.7 12.83, 2.23 11.69, 2.85 10.63 C3.46 9.56, 4.18 8.53, 4.97 7.59 C5.76 6.65, 6.65 5.76, 7.59 4.97 C8.53 4.18, 9.56 3.46, 10.63 2.85 C11.69 2.23, 12.83 1.7, 13.98 1.28 C15.14 0.86, 16.35 0.54, 17.56 0.32 C18.77 0.11, 20.02 0, 21.25 0 C22.48 0, 23.73 0.11, 24.94 0.32 C26.15 0.54, 27.36 0.86, 28.52 1.28 C29.68 1.7, 30.81 2.23, 31.88 2.85 C32.94 3.46, 33.97 4.18, 34.91 4.97 C35.85 5.76, 36.74 6.65, 37.53 7.59 C38.32 8.53, 39.04 9.56, 39.66 10.63 C40.27 11.69, 40.8 12.83, 41.22 13.98 C41.64 15.14, 41.97 16.35, 42.18 17.56 C42.39 18.77, 42.45 20.64, 42.5 21.25 C42.56 21.87, 42.56 20.64, 42.5 21.25" stroke="#6741d9" stroke-width="4" fill="none"></path></g><g stroke-opacity="0.6" fill-opacity="0.6" stroke-linecap="round" transform="translate(598.3231557715488 10.734178046218403) rotate(0 111.541015625 91.33984375)"><path d="M0 0 C72.92 0, 145.83 0, 223.08 0 M0 0 C74.79 0, 149.57 0, 223.08 0 M223.08 0 C223.08 48.11, 223.08 96.22, 223.08 182.68 M223.08 0 C223.08 46.38, 223.08 92.77, 223.08 182.68 M223.08 182.68 C139.06 182.68, 55.05 182.68, 0 182.68 M223.08 182.68 C136.68 182.68, 50.27 182.68, 0 182.68 M0 182.68 C0 118.37, 0 54.05, 0 0 M0 182.68 C0 117.97, 0 53.26, 0 0" stroke="#1e1e1e" stroke-width="4" fill="none"></path></g><g stroke-opacity="0.6" fill-opacity="0.6" transform="translate(699.8534292090488 81.37402179621836) rotate(0 10.0107421875 20.69999999999999)"><text x="10.0107421875" y="0" font-family="Helvetica, Segoe UI Emoji" font-size="36px" fill="#1e1e1e" text-anchor="middle" style="white-space: pre;" direction="ltr" dominant-baseline="text-before-edge">3</text></g><g stroke-linecap="round"><g stroke-opacity="0.6" fill-opacity="0.6" transform="translate(672.475499521549 10) rotate(0 -0.1640625 91.240234375)"><path d="M0 0 C-0.08 43.53, -0.16 87.07, -0.33 182.48 M0 0 C-0.11 62.06, -0.22 124.12, -0.33 182.48" stroke="#1e1e1e" stroke-width="1" fill="none"></path></g></g><mask></mask><g stroke-linecap="round"><g stroke-opacity="0.6" fill-opacity="0.6" transform="translate(745.5926870215488 10.104434742647072) rotate(0 -0.1640625 91.240234375)"><path d="M0 0 C-0.07 38.45, -0.14 76.9, -0.33 182.48 M0 0 C-0.1 54.32, -0.2 108.63, -0.33 182.48" stroke="#1e1e1e" stroke-width="1" fill="none"></path></g></g><mask></mask><g stroke-linecap="round"><g stroke-opacity="0.6" fill-opacity="0.6" transform="translate(598.7346141048821 70.2009749212184) rotate(0 112.22265625 0.6328125)"><path d="M0 0 C54.1 0.31, 108.2 0.61, 224.45 1.27 M0 0 C78.5 0.44, 157.01 0.89, 224.45 1.27" stroke="#1e1e1e" stroke-width="1" fill="none"></path></g></g><mask></mask><g stroke-linecap="round"><g stroke-opacity="0.6" fill-opacity="0.6" transform="translate(598.2801870215488 128.73529411764707) rotate(0 112.22265625 0.6328125)"><path d="M0 0 C46.69 0.26, 93.37 0.53, 224.45 1.27 M0 0 C53.73 0.3, 107.47 0.61, 224.45 1.27" stroke="#1e1e1e" stroke-width="1" fill="none"></path></g></g><mask></mask><g stroke-opacity="0.6" fill-opacity="0.6" transform="translate(700.1747182715488 139.26654411764707) rotate(0 10.0107421875 20.69999999999999)"><text x="0" y="0" font-family="Helvetica, Segoe UI Emoji" font-size="36px" fill="#1e1e1e" text-anchor="start" style="white-space: pre;" direction="ltr" dominant-baseline="text-before-edge">2</text></g><g stroke-opacity="0.6" fill-opacity="0.6" transform="translate(924.2098745215488 81.7339920343137) rotate(0 10.0107421875 20.69999999999999)"><text x="0" y="0" font-family="Helvetica, Segoe UI Emoji" font-size="36px" fill="#1e1e1e" text-anchor="start" style="white-space: pre;" direction="ltr" dominant-baseline="text-before-edge">9</text></g><g stroke-opacity="0.6" fill-opacity="0.6" transform="translate(603.0913849382154 76.07722120098038) rotate(0 6.669921875 11.5)"><text x="0" y="0" font-family="Helvetica, Segoe UI Emoji" font-size="20px" fill="#2f9e44" text-anchor="start" style="white-space: pre;" direction="ltr" dominant-baseline="text-before-edge">S</text></g><g stroke-opacity="0.6" fill-opacity="0.6" stroke-linecap="round" transform="translate(821.4155106822633 11.420246848739453) rotate(0 111.541015625 91.33984375)"><path d="M0 0 C61.01 0, 122.02 0, 223.08 0 M0 0 C47.55 0, 95.1 0, 223.08 0 M223.08 0 C223.08 43.93, 223.08 87.86, 223.08 182.68 M223.08 0 C223.08 66.81, 223.08 133.62, 223.08 182.68 M223.08 182.68 C177.77 182.68, 132.46 182.68, 0 182.68 M223.08 182.68 C150.31 182.68, 77.53 182.68, 0 182.68 M0 182.68 C0 134.44, 0 86.2, 0 0 M0 182.68 C0 146, 0 109.32, 0 0" stroke="#1e1e1e" stroke-width="4" fill="none"></path></g><g stroke-linecap="round"><g stroke-opacity="0.6" fill-opacity="0.6" transform="translate(820.3013595530618 71.22509847689162) rotate(0 112.22265625 0.6328125)"><path d="M0 0 C61.05 0.34, 122.09 0.69, 224.45 1.27 M0 0 C47.56 0.27, 95.12 0.54, 224.45 1.27" stroke="#1e1e1e" stroke-width="1" fill="none"></path></g></g><mask></mask><g stroke-linecap="round"><g stroke-opacity="0.6" fill-opacity="0.6" transform="translate(821.2549441118857 130.0647124474798) rotate(0 112.22265625 0.6328125)"><path d="M0 0 C48.96 0.28, 97.91 0.55, 224.45 1.27 M0 0 C61.71 0.35, 123.43 0.7, 224.45 1.27" stroke="#1e1e1e" stroke-width="1" fill="none"></path></g></g><mask></mask><g stroke-linecap="round"><g stroke-opacity="0.6" fill-opacity="0.6" transform="translate(901.4518650677677 11.608025866597472) rotate(0 -0.1640625 91.240234375)"><path d="M0 0 C-0.12 65.59, -0.24 131.17, -0.33 182.48 M0 0 C-0.08 46.5, -0.17 93, -0.33 182.48" stroke="#1e1e1e" stroke-width="1" fill="none"></path></g></g><mask></mask><g stroke-linecap="round"><g stroke-opacity="0.6" fill-opacity="0.6" transform="translate(970.7349533030618 12.386978072479906) rotate(0 -0.1640625 91.240234375)"><path d="M0 0 C-0.07 40.67, -0.15 81.34, -0.33 182.48 M0 0 C-0.08 45.74, -0.16 91.47, -0.33 182.48" stroke="#1e1e1e" stroke-width="1" fill="none"></path></g></g><mask></mask><g stroke-opacity="0.6" fill-opacity="0.6" transform="translate(701.256016415807 20.612966123950173) rotate(0 10.0107421875 20.69999999999999)"><text x="0" y="0" font-family="Helvetica, Segoe UI Emoji" font-size="36px" fill="#1e1e1e" text-anchor="start" style="white-space: pre;" direction="ltr" dominant-baseline="text-before-edge">6</text></g><g stroke-opacity="0.6" fill-opacity="0.6" transform="translate(997.413721685415 83.38364627100918) rotate(0 10.0107421875 20.69999999999999)"><text x="0" y="0" font-family="Helvetica, Segoe UI Emoji" font-size="36px" fill="#1e1e1e" text-anchor="start" style="white-space: pre;" direction="ltr" dominant-baseline="text-before-edge">8</text></g><g stroke-opacity="0.6" fill-opacity="0.6" stroke-linecap="round" transform="translate(1042.6339652515912 11.082097348883508) rotate(0 111.541015625 91.33984375)"><path d="M0 0 C57.97 0, 115.94 0, 223.08 0 M0 0 C85.38 0, 170.76 0, 223.08 0 M223.08 0 C223.08 51.19, 223.08 102.38, 223.08 182.68 M223.08 0 C223.08 42.46, 223.08 84.91, 223.08 182.68 M223.08 182.68 C139.69 182.68, 56.3 182.68, 0 182.68 M223.08 182.68 C150.77 182.68, 78.47 182.68, 0 182.68 M0 182.68 C0 112.82, 0 42.97, 0 0 M0 182.68 C0 127.88, 0 73.08, 0 0" stroke="#1e1e1e" stroke-width="4" fill="none"></path></g><g stroke-linecap="round"><g stroke-opacity="0.6" fill-opacity="0.6" transform="translate(1042.2697074390912 71.95026141138351) rotate(0 112.22265625 0.6328125)"><path d="M0 0 C77.31 0.44, 154.61 0.87, 224.45 1.27 M0 0 C88.27 0.5, 176.55 1, 224.45 1.27" stroke="#1e1e1e" stroke-width="1" fill="none"></path></g></g><mask></mask><g stroke-linecap="round"><g stroke-opacity="0.6" fill-opacity="0.6" transform="translate(1039.0763480640912 131.3399098488835) rotate(0 112.22265625 0.6328125)"><path d="M0 0 C80.27 0.45, 160.55 0.91, 224.45 1.27 M0 0 C45.54 0.26, 91.07 0.51, 224.45 1.27" stroke="#1e1e1e" stroke-width="1" fill="none"></path></g></g><mask></mask><g stroke-linecap="round"><g stroke-opacity="0.6" fill-opacity="0.6" transform="translate(1114.9445695714444 13.638910308442291) rotate(0 -0.1640625 91.240234375)"><path d="M0 0 C-0.12 65.63, -0.24 131.26, -0.33 182.48 M0 0 C-0.11 60.42, -0.22 120.83, -0.33 182.48" stroke="#1e1e1e" stroke-width="1" fill="none"></path></g></g><mask></mask><g stroke-linecap="round"><g stroke-opacity="0.6" fill-opacity="0.6" transform="translate(1184.227657806738 14.527947741597359) rotate(0 -0.1640625 91.240234375)"><path d="M0 0 C-0.13 71.9, -0.26 143.81, -0.33 182.48 M0 0 C-0.1 56.07, -0.2 112.15, -0.33 182.48" stroke="#1e1e1e" stroke-width="1" fill="none"></path></g></g><mask></mask><g stroke-opacity="0.6" fill-opacity="0.6" transform="translate(1208.1723767099252 82.84674578638351) rotate(0 10.0107421875 20.69999999999999)"><text x="0" y="0" font-family="Helvetica, Segoe UI Emoji" font-size="36px" fill="#1e1e1e" text-anchor="start" style="white-space: pre;" direction="ltr" dominant-baseline="text-before-edge">5</text></g><g stroke-opacity="0.6" fill-opacity="0.6" transform="translate(751.3120730181355 75.52395012692637) rotate(0 6.1083984375 11.5)"><text x="0" y="0" font-family="Helvetica, Segoe UI Emoji" font-size="20px" fill="#2f9e44" text-anchor="start" style="white-space: pre;" direction="ltr" dominant-baseline="text-before-edge">T</text></g><g stroke-linecap="round"><g stroke-opacity="0.6" fill-opacity="0.6" transform="translate(636.3290001014692 33.76678866859288) rotate(0 0.689453125 143.341796875)"><path d="M0 0 C0.42 86.91, 0.84 173.82, 1.38 286.68 M0 0 C0.31 64.21, 0.62 128.42, 1.38 286.68" stroke="#e03131" stroke-width="4" fill="none"></path></g></g><mask></mask><g stroke-opacity="0.6" fill-opacity="0.6" transform="translate(607.484273538969 279.9893147102596) rotate(0 10.0107421875 20.69999999999999)"><text x="0" y="0" font-family="Helvetica, Segoe UI Emoji" font-size="36px" fill="#e03131" text-anchor="start" style="white-space: pre;" direction="ltr" dominant-baseline="text-before-edge">1</text></g><g stroke-linecap="round"><g stroke-opacity="0.6" fill-opacity="0.6" transform="translate(786.6628217160527 32.75695793942634) rotate(0 0.689453125 143.341796875)"><path d="M0 0 C0.44 91.21, 0.88 182.41, 1.38 286.68 M0 0 C0.49 101, 0.97 201.99, 1.38 286.68" stroke="#e03131" stroke-width="4" fill="none"></path></g></g><mask></mask><g stroke-opacity="0.6" fill-opacity="0.6" transform="translate(757.8180951535525 278.97948398109304) rotate(0 10.0107421875 20.69999999999999)"><text x="0" y="0" font-family="Helvetica, Segoe UI Emoji" font-size="36px" fill="#e03131" text-anchor="start" style="white-space: pre;" direction="ltr" dominant-baseline="text-before-edge">1</text></g></svg>