<svg version="1.1" xmlns="http://www.w3.org/2000/svg" viewBox="0 0 959.0846819196433 362.6072544642857" width="2877.2540457589303" height="1087.821763392857">
  <!-- svg-source:excalidraw -->
  
  <defs>
    <style class="style-fonts">
      @font-face {
        font-family: "Virgil";
        src: url("https://excalidraw.com/Virgil.woff2");
      }
      @font-face {
        font-family: "Cascadia";
        src: url("https://excalidraw.com/Cascadia.woff2");
      }
    </style>
  </defs>
  <g stroke-opacity="0.6" fill-opacity="0.6" stroke-linecap="round" transform="translate(175.56695583062827 118.61909581304099) rotate(0 27 27.5)"><path d="M54 27.5 C54 29.09, 53.86 30.71, 53.59 32.28 C53.32 33.84, 52.91 35.41, 52.37 36.91 C51.84 38.4, 51.16 39.87, 50.38 41.25 C49.6 42.63, 48.69 43.96, 47.68 45.18 C46.68 46.4, 45.55 47.54, 44.36 48.57 C43.16 49.59, 41.85 50.52, 40.5 51.32 C39.15 52.11, 37.7 52.8, 36.23 53.34 C34.77 53.89, 33.23 54.31, 31.69 54.58 C30.15 54.86, 28.56 55, 27 55 C25.44 55, 23.85 54.86, 22.31 54.58 C20.77 54.31, 19.23 53.89, 17.77 53.34 C16.3 52.8, 14.85 52.11, 13.5 51.32 C12.15 50.52, 10.84 49.59, 9.64 48.57 C8.45 47.54, 7.32 46.4, 6.32 45.18 C5.31 43.96, 4.4 42.63, 3.62 41.25 C2.84 39.87, 2.16 38.4, 1.63 36.91 C1.09 35.41, 0.68 33.84, 0.41 32.28 C0.14 30.71, 0 29.09, 0 27.5 C0 25.91, 0.14 24.29, 0.41 22.72 C0.68 21.16, 1.09 19.59, 1.63 18.09 C2.16 16.6, 2.84 15.13, 3.62 13.75 C4.4 12.37, 5.31 11.04, 6.32 9.82 C7.32 8.6, 8.45 7.46, 9.64 6.43 C10.84 5.41, 12.15 4.48, 13.5 3.68 C14.85 2.89, 16.3 2.2, 17.77 1.66 C19.23 1.11, 20.77 0.69, 22.31 0.42 C23.85 0.14, 25.44 0, 27 0 C28.56 0, 30.15 0.14, 31.69 0.42 C33.23 0.69, 34.77 1.11, 36.23 1.66 C37.7 2.2, 39.15 2.89, 40.5 3.68 C41.85 4.48, 43.16 5.41, 44.36 6.43 C45.55 7.46, 46.68 8.6, 47.68 9.82 C48.69 11.04, 49.6 12.37, 50.38 13.75 C51.16 15.13, 51.84 16.6, 52.37 18.09 C52.91 19.59, 53.32 21.16, 53.59 22.72 C53.86 24.29, 53.93 26.7, 54 27.5 C54.07 28.3, 54.07 26.7, 54 27.5" stroke="#6741d9" stroke-width="4" fill="none"></path></g><g stroke-opacity="0.6" fill-opacity="0.6" transform="translate(197.4697016448415 135.82365933041092) rotate(0 5.00537109375 10.350000000000023)"><text x="5.00537109375" y="0" font-family="Helvetica, Segoe UI Emoji" font-size="18.000000000000004px" fill="#1e1e1e" text-anchor="middle" style="white-space: pre;" direction="ltr" dominant-baseline="text-before-edge">4</text></g><g stroke-opacity="0.6" fill-opacity="0.6" stroke-linecap="round" transform="translate(30.440408549784138 104.99158465232676) rotate(0 21.251953125 23.5)"><path d="M42.5 23.5 C42.5 24.86, 42.39 26.24, 42.18 27.58 C41.97 28.92, 41.64 30.26, 41.22 31.54 C40.8 32.82, 40.27 34.07, 39.66 35.25 C39.04 36.43, 38.32 37.56, 37.53 38.61 C36.74 39.65, 35.85 40.63, 34.91 41.5 C33.97 42.38, 32.94 43.17, 31.88 43.85 C30.81 44.53, 29.68 45.12, 28.52 45.58 C27.36 46.05, 26.15 46.41, 24.94 46.64 C23.73 46.88, 22.48 47, 21.25 47 C20.02 47, 18.77 46.88, 17.56 46.64 C16.35 46.41, 15.14 46.05, 13.98 45.58 C12.83 45.12, 11.69 44.53, 10.63 43.85 C9.56 43.17, 8.53 42.38, 7.59 41.5 C6.65 40.63, 5.76 39.65, 4.97 38.61 C4.18 37.56, 3.46 36.43, 2.85 35.25 C2.23 34.07, 1.7 32.82, 1.28 31.54 C0.86 30.26, 0.54 28.92, 0.32 27.58 C0.11 26.24, 0 24.86, 0 23.5 C0 22.14, 0.11 20.76, 0.32 19.42 C0.54 18.08, 0.86 16.74, 1.28 15.46 C1.7 14.18, 2.23 12.93, 2.85 11.75 C3.46 10.57, 4.18 9.44, 4.97 8.39 C5.76 7.35, 6.65 6.37, 7.59 5.5 C8.53 4.62, 9.56 3.83, 10.63 3.15 C11.69 2.47, 12.83 1.88, 13.98 1.42 C15.14 0.95, 16.35 0.59, 17.56 0.36 C18.77 0.12, 20.02 0, 21.25 0 C22.48 0, 23.73 0.12, 24.94 0.36 C26.15 0.59, 27.36 0.95, 28.52 1.42 C29.68 1.88, 30.81 2.47, 31.88 3.15 C32.94 3.83, 33.97 4.62, 34.91 5.5 C35.85 6.37, 36.74 7.35, 37.53 8.39 C38.32 9.44, 39.04 10.57, 39.66 11.75 C40.27 12.93, 40.8 14.18, 41.22 15.46 C41.64 16.74, 41.97 18.08, 42.18 19.42 C42.39 20.76, 42.45 22.82, 42.5 23.5 C42.56 24.18, 42.56 22.82, 42.5 23.5" stroke="#6741d9" stroke-width="4" fill="none"></path></g><g stroke-opacity="0.6" fill-opacity="0.6" transform="translate(44.99503963163801 116.87457529444282) rotate(0 6.669921875 11.5)"><text x="6.669921875" y="0" font-family="Helvetica, Segoe UI Emoji" font-size="20px" fill="#1e1e1e" text-anchor="middle" style="white-space: pre;" direction="ltr" dominant-baseline="text-before-edge">S</text></g><g stroke-opacity="0.6" fill-opacity="0.6" stroke-linecap="round" transform="translate(27.65205627705683 50.76390608089832) rotate(0 21.251953125 21.251953125)"><path d="M42.5 21.25 C42.5 22.48, 42.39 23.73, 42.18 24.94 C41.97 26.15, 41.64 27.36, 41.22 28.52 C40.8 29.68, 40.27 30.81, 39.66 31.88 C39.04 32.94, 38.32 33.97, 37.53 34.91 C36.74 35.85, 35.85 36.74, 34.91 37.53 C33.97 38.32, 32.94 39.04, 31.88 39.66 C30.81 40.27, 29.68 40.8, 28.52 41.22 C27.36 41.64, 26.15 41.97, 24.94 42.18 C23.73 42.39, 22.48 42.5, 21.25 42.5 C20.02 42.5, 18.77 42.39, 17.56 42.18 C16.35 41.97, 15.14 41.64, 13.98 41.22 C12.83 40.8, 11.69 40.27, 10.63 39.66 C9.56 39.04, 8.53 38.32, 7.59 37.53 C6.65 36.74, 5.76 35.85, 4.97 34.91 C4.18 33.97, 3.46 32.94, 2.85 31.88 C2.23 30.81, 1.7 29.68, 1.28 28.52 C0.86 27.36, 0.54 26.15, 0.32 24.94 C0.11 23.73, 0 22.48, 0 21.25 C0 20.02, 0.11 18.77, 0.32 17.56 C0.54 16.35, 0.86 15.14, 1.28 13.98 C1.7 12.83, 2.23 11.69, 2.85 10.63 C3.46 9.56, 4.18 8.53, 4.97 7.59 C5.76 6.65, 6.65 5.76, 7.59 4.97 C8.53 4.18, 9.56 3.46, 10.63 2.85 C11.69 2.23, 12.83 1.7, 13.98 1.28 C15.14 0.86, 16.35 0.54, 17.56 0.32 C18.77 0.11, 20.02 0, 21.25 0 C22.48 0, 23.73 0.11, 24.94 0.32 C26.15 0.54, 27.36 0.86, 28.52 1.28 C29.68 1.7, 30.81 2.23, 31.88 2.85 C32.94 3.46, 33.97 4.18, 34.91 4.97 C35.85 5.76, 36.74 6.65, 37.53 7.59 C38.32 8.53, 39.04 9.56, 39.66 10.63 C40.27 11.69, 40.8 12.83, 41.22 13.98 C41.64 15.14, 41.97 16.35, 42.18 17.56 C42.39 18.77, 42.45 20.64, 42.5 21.25 C42.56 21.87, 42.56 20.64, 42.5 21.25" stroke="#6741d9" stroke-width="4" fill="none"></path></g><g stroke-linecap="round"><g stroke-opacity="0.6" fill-opacity="0.6" transform="translate(77.06221252705683 127.31189715232676) rotate(0 48.70758928571428 10.454799107142776)"><path d="M0 0 C16.24 3.48, 81.18 17.42, 97.42 20.91 M0 0 C16.24 3.48, 81.18 17.42, 97.42 20.91" stroke="#1e1e1e" stroke-width="4" fill="none"></path></g></g><mask></mask><g stroke-linecap="round"><g stroke-opacity="0.6" fill-opacity="0.6" transform="translate(73.81528172348538 185.60326789096302) rotate(0 50.495789366883116 -17.153535917207705)"><path d="M0 0 C16.83 -5.72, 84.16 -28.59, 100.99 -34.31 M0 0 C16.83 -5.72, 84.16 -28.59, 100.99 -34.31" stroke="#1e1e1e" stroke-width="4" fill="none"></path></g></g><mask></mask><g stroke-opacity="0.6" fill-opacity="0.6" stroke-linecap="round" transform="translate(32.027293019480965 159.5733199742965) rotate(0 21.251953125 23.5)"><path d="M42.5 23.5 C42.5 24.86, 42.39 26.24, 42.18 27.58 C41.97 28.92, 41.64 30.26, 41.22 31.54 C40.8 32.82, 40.27 34.07, 39.66 35.25 C39.04 36.43, 38.32 37.56, 37.53 38.61 C36.74 39.65, 35.85 40.63, 34.91 41.5 C33.97 42.38, 32.94 43.17, 31.88 43.85 C30.81 44.53, 29.68 45.12, 28.52 45.58 C27.36 46.05, 26.15 46.41, 24.94 46.64 C23.73 46.88, 22.48 47, 21.25 47 C20.02 47, 18.77 46.88, 17.56 46.64 C16.35 46.41, 15.14 46.05, 13.98 45.58 C12.83 45.12, 11.69 44.53, 10.63 43.85 C9.56 43.17, 8.53 42.38, 7.59 41.5 C6.65 40.63, 5.76 39.65, 4.97 38.61 C4.18 37.56, 3.46 36.43, 2.85 35.25 C2.23 34.07, 1.7 32.82, 1.28 31.54 C0.86 30.26, 0.54 28.92, 0.32 27.58 C0.11 26.24, 0 24.86, 0 23.5 C0 22.14, 0.11 20.76, 0.32 19.42 C0.54 18.08, 0.86 16.74, 1.28 15.46 C1.7 14.18, 2.23 12.93, 2.85 11.75 C3.46 10.57, 4.18 9.44, 4.97 8.39 C5.76 7.35, 6.65 6.37, 7.59 5.5 C8.53 4.62, 9.56 3.83, 10.63 3.15 C11.69 2.47, 12.83 1.88, 13.98 1.42 C15.14 0.95, 16.35 0.59, 17.56 0.36 C18.77 0.12, 20.02 0, 21.25 0 C22.48 0, 23.73 0.12, 24.94 0.36 C26.15 0.59, 27.36 0.95, 28.52 1.42 C29.68 1.88, 30.81 2.47, 31.88 3.15 C32.94 3.83, 33.97 4.62, 34.91 5.5 C35.85 6.37, 36.74 7.35, 37.53 8.39 C38.32 9.44, 39.04 10.57, 39.66 11.75 C40.27 12.93, 40.8 14.18, 41.22 15.46 C41.64 16.74, 41.97 18.08, 42.18 19.42 C42.39 20.76, 42.45 22.82, 42.5 23.5 C42.56 24.18, 42.56 22.82, 42.5 23.5" stroke="#6741d9" stroke-width="4" fill="none"></path></g><g stroke-opacity="0.6" fill-opacity="0.6" transform="translate(47.143447538834835 171.45631061641257) rotate(0 6.1083984375 11.5)"><text x="6.1083984375" y="0" font-family="Helvetica, Segoe UI Emoji" font-size="20px" fill="#1e1e1e" text-anchor="middle" style="white-space: pre;" direction="ltr" dominant-baseline="text-before-edge">T</text></g><g stroke-linecap="round"><g stroke-opacity="0.6" fill-opacity="0.6" transform="translate(70.88504464285774 75.17077330221855) rotate(0 51.913529829545496 31.72991071428578)"><path d="M0 0 C17.3 10.58, 86.52 52.88, 103.83 63.46" stroke="#ced4da" stroke-width="4.5" fill="none" stroke-dasharray="1.5 10"></path></g></g><mask></mask><g stroke-linecap="round"><g stroke-opacity="0.6" fill-opacity="0.6" transform="translate(71.4466314935072 243.84056835091974) rotate(0 52.41347909902595 -42.58421266233768)"><path d="M0 0 C17.47 -14.19, 87.36 -70.97, 104.83 -85.17" stroke="#ced4da" stroke-width="4.5" fill="none" stroke-dasharray="1.5 10"></path></g></g><mask></mask><g stroke-opacity="0.6" fill-opacity="0.6" stroke-linecap="round" transform="translate(30.002185639881475 220.51629464285702) rotate(0 21.251953125 21.251953125)"><path d="M42.5 21.25 C42.5 22.48, 42.39 23.73, 42.18 24.94 C41.97 26.15, 41.64 27.36, 41.22 28.52 C40.8 29.68, 40.27 30.81, 39.66 31.88 C39.04 32.94, 38.32 33.97, 37.53 34.91 C36.74 35.85, 35.85 36.74, 34.91 37.53 C33.97 38.32, 32.94 39.04, 31.88 39.66 C30.81 40.27, 29.68 40.8, 28.52 41.22 C27.36 41.64, 26.15 41.97, 24.94 42.18 C23.73 42.39, 22.48 42.5, 21.25 42.5 C20.02 42.5, 18.77 42.39, 17.56 42.18 C16.35 41.97, 15.14 41.64, 13.98 41.22 C12.83 40.8, 11.69 40.27, 10.63 39.66 C9.56 39.04, 8.53 38.32, 7.59 37.53 C6.65 36.74, 5.76 35.85, 4.97 34.91 C4.18 33.97, 3.46 32.94, 2.85 31.88 C2.23 30.81, 1.7 29.68, 1.28 28.52 C0.86 27.36, 0.54 26.15, 0.32 24.94 C0.11 23.73, 0 22.48, 0 21.25 C0 20.02, 0.11 18.77, 0.32 17.56 C0.54 16.35, 0.86 15.14, 1.28 13.98 C1.7 12.83, 2.23 11.69, 2.85 10.63 C3.46 9.56, 4.18 8.53, 4.97 7.59 C5.76 6.65, 6.65 5.76, 7.59 4.97 C8.53 4.18, 9.56 3.46, 10.63 2.85 C11.69 2.23, 12.83 1.7, 13.98 1.28 C15.14 0.86, 16.35 0.54, 17.56 0.32 C18.77 0.11, 20.02 0, 21.25 0 C22.48 0, 23.73 0.11, 24.94 0.32 C26.15 0.54, 27.36 0.86, 28.52 1.28 C29.68 1.7, 30.81 2.23, 31.88 2.85 C32.94 3.46, 33.97 4.18, 34.91 4.97 C35.85 5.76, 36.74 6.65, 37.53 7.59 C38.32 8.53, 39.04 9.56, 39.66 10.63 C40.27 11.69, 40.8 12.83, 41.22 13.98 C41.64 15.14, 41.97 16.35, 42.18 17.56 C42.39 18.77, 42.45 20.64, 42.5 21.25 C42.56 21.87, 42.56 20.64, 42.5 21.25" stroke="#6741d9" stroke-width="4" fill="none"></path></g><g stroke-opacity="0.6" fill-opacity="0.6" stroke-linecap="round" transform="translate(10 18.22109374999991) rotate(0 117.30189732142857 167.1930803571429)"><path d="M0 0 C55.47 0, 110.95 0, 234.6 0 M234.6 0 C234.6 105.03, 234.6 210.05, 234.6 334.39 M234.6 334.39 C161.01 334.39, 87.41 334.39, 0 334.39 M0 334.39 C0 219.95, 0 105.52, 0 0" stroke="#ced4da" stroke-width="4.5" fill="none" stroke-dasharray="8 12"></path></g><g stroke-opacity="0.6" fill-opacity="0.6" transform="translate(174.58482142857144 310.2969866071428) rotate(0 29.021484375 20.700000000000045)"><text x="0" y="0" font-family="Helvetica, Segoe UI Emoji" font-size="36px" fill="#4dabf7" text-anchor="start" style="white-space: pre;" direction="ltr" dominant-baseline="text-before-edge">box</text></g><g stroke-opacity="0.6" fill-opacity="0.6" transform="translate(262.44419642857156 115.63236607142835) rotate(0 95.6103515625 34.5)"><text x="0" y="0" font-family="Helvetica, Segoe UI Emoji" font-size="20px" fill="#1e1e1e" text-anchor="start" style="white-space: pre;" direction="ltr" dominant-baseline="text-before-edge">N("4") = {S, T} </text><text x="0" y="23" font-family="Helvetica, Segoe UI Emoji" font-size="20px" fill="#1e1e1e" text-anchor="start" style="white-space: pre;" direction="ltr" dominant-baseline="text-before-edge">S and T on the same </text><text x="0" y="46" font-family="Helvetica, Segoe UI Emoji" font-size="20px" fill="#1e1e1e" text-anchor="start" style="white-space: pre;" direction="ltr" dominant-baseline="text-before-edge">row/column</text></g><g stroke-opacity="0.6" fill-opacity="0.6" stroke-linecap="round" transform="translate(564.2370256696433 11.05078125) rotate(0 111.541015625 91.33984375)"><path d="M0 0 C46.91 0, 93.81 0, 223.08 0 M0 0 C55.73 0, 111.46 0, 223.08 0 M223.08 0 C223.08 47.88, 223.08 95.77, 223.08 182.68 M223.08 0 C223.08 45.39, 223.08 90.78, 223.08 182.68 M223.08 182.68 C169.33 182.68, 115.59 182.68, 0 182.68 M223.08 182.68 C142.66 182.68, 62.25 182.68, 0 182.68 M0 182.68 C0 110.41, 0 38.14, 0 0 M0 182.68 C0 138.29, 0 93.9, 0 0" stroke="#1e1e1e" stroke-width="4" fill="none"></path></g><g stroke-opacity="0.6" fill-opacity="0.6" transform="translate(665.7672991071433 81.69062499999995) rotate(0 10.0107421875 20.700000000000045)"><text x="10.0107421875" y="0" font-family="Helvetica, Segoe UI Emoji" font-size="36px" fill="#1e1e1e" text-anchor="middle" style="white-space: pre;" direction="ltr" dominant-baseline="text-before-edge">3</text></g><g stroke-linecap="round"><g stroke-opacity="0.6" fill-opacity="0.6" transform="translate(638.3893694196433 10) rotate(0 -0.1640625 91.240234375)"><path d="M0 0 C-0.11 58.54, -0.21 117.08, -0.33 182.48 M0 0 C-0.07 37.54, -0.14 75.08, -0.33 182.48" stroke="#1e1e1e" stroke-width="1" fill="none"></path></g></g><mask></mask><g stroke-linecap="round"><g stroke-opacity="0.6" fill-opacity="0.6" transform="translate(711.5065569196433 10.033203125) rotate(0 -0.1640625 91.240234375)"><path d="M0 0 C-0.11 58.63, -0.21 117.27, -0.33 182.48 M0 0 C-0.12 69.47, -0.25 138.94, -0.33 182.48" stroke="#1e1e1e" stroke-width="1" fill="none"></path></g></g><mask></mask><g stroke-linecap="round"><g stroke-opacity="0.6" fill-opacity="0.6" transform="translate(564.4401506696433 70.060546875) rotate(0 112.22265625 0.6328125)"><path d="M0 0 C54.08 0.3, 108.15 0.61, 224.45 1.27 M0 0 C78.62 0.44, 157.24 0.89, 224.45 1.27" stroke="#1e1e1e" stroke-width="1" fill="none"></path></g></g><mask></mask><g stroke-linecap="round"><g stroke-opacity="0.6" fill-opacity="0.6" transform="translate(564.1940569196433 128.6640625) rotate(0 112.22265625 0.6328125)"><path d="M0 0 C57.48 0.32, 114.97 0.65, 224.45 1.27 M0 0 C76.48 0.43, 152.96 0.86, 224.45 1.27" stroke="#1e1e1e" stroke-width="1" fill="none"></path></g></g><mask></mask><g stroke-opacity="0.6" fill-opacity="0.6" transform="translate(666.0885881696433 139.1953125) rotate(0 10.0107421875 20.700000000000045)"><text x="0" y="0" font-family="Helvetica, Segoe UI Emoji" font-size="36px" fill="#1e1e1e" text-anchor="start" style="white-space: pre;" direction="ltr" dominant-baseline="text-before-edge">2</text></g><g stroke-linecap="round"><g stroke-opacity="0.6" fill-opacity="0.6" transform="translate(598.0026506696433 40.65625) rotate(0 175.541015625 1.734375)"><path d="M0 0 C134.76 1.33, 269.52 2.66, 351.08 3.47 M0 0 C101.66 1, 203.32 2.01, 351.08 3.47" stroke="#e03131" stroke-width="4" fill="none"></path></g></g><mask></mask><g stroke-opacity="0.6" fill-opacity="0.6" transform="translate(923.3949497767862 52.078125) rotate(0 10.0107421875 20.700000000000045)"><text x="0" y="0" font-family="Helvetica, Segoe UI Emoji" font-size="36px" fill="#e03131" text-anchor="start" style="white-space: pre;" direction="ltr" dominant-baseline="text-before-edge">4</text></g><g stroke-linecap="round"><g stroke-opacity="0.6" fill-opacity="0.6" transform="translate(745.4577287946433 17.760416666666742) rotate(0 0.689453125 143.341796875)"><path d="M0 0 C0.51 105.12, 1.01 210.24, 1.38 286.68 M0 0 C0.42 87.71, 0.84 175.43, 1.38 286.68" stroke="#e03131" stroke-width="4" fill="none"></path></g></g><mask></mask><g stroke-opacity="0.6" fill-opacity="0.6" transform="translate(715.7407924107147 264.8145089285713) rotate(0 10.0107421875 20.700000000000045)"><text x="0" y="0" font-family="Helvetica, Segoe UI Emoji" font-size="36px" fill="#e03131" text-anchor="start" style="white-space: pre;" direction="ltr" dominant-baseline="text-before-edge">4</text></g><g stroke-opacity="0.6" fill-opacity="0.6" transform="translate(567.5534319196433 71.7677083333333) rotate(0 6.669921875 11.5)"><text x="0" y="0" font-family="Helvetica, Segoe UI Emoji" font-size="20px" fill="#2f9e44" text-anchor="start" style="white-space: pre;" direction="ltr" dominant-baseline="text-before-edge">S</text></g><g stroke-opacity="0.6" fill-opacity="0.6" transform="translate(570.4938616071433 137.3070312499999) rotate(0 6.1083984375 11.5)"><text x="0" y="0" font-family="Helvetica, Segoe UI Emoji" font-size="20px" fill="#2f9e44" text-anchor="start" style="white-space: pre;" direction="ltr" dominant-baseline="text-before-edge">T</text></g><g stroke-opacity="0.6" fill-opacity="0.6" stroke-linecap="round" transform="translate(178.17885044642958 53.75262276785679) rotate(0 21.251953125 21.251953125)"><path d="M42.5 21.25 C42.5 22.48, 42.39 23.73, 42.18 24.94 C41.97 26.15, 41.64 27.36, 41.22 28.52 C40.8 29.68, 40.27 30.81, 39.66 31.88 C39.04 32.94, 38.32 33.97, 37.53 34.91 C36.74 35.85, 35.85 36.74, 34.91 37.53 C33.97 38.32, 32.94 39.04, 31.88 39.66 C30.81 40.27, 29.68 40.8, 28.52 41.22 C27.36 41.64, 26.15 41.97, 24.94 42.18 C23.73 42.39, 22.48 42.5, 21.25 42.5 C20.02 42.5, 18.77 42.39, 17.56 42.18 C16.35 41.97, 15.14 41.64, 13.98 41.22 C12.83 40.8, 11.69 40.27, 10.63 39.66 C9.56 39.04, 8.53 38.32, 7.59 37.53 C6.65 36.74, 5.76 35.85, 4.97 34.91 C4.18 33.97, 3.46 32.94, 2.85 31.88 C2.23 30.81, 1.7 29.68, 1.28 28.52 C0.86 27.36, 0.54 26.15, 0.32 24.94 C0.11 23.73, 0 22.48, 0 21.25 C0 20.02, 0.11 18.77, 0.32 17.56 C0.54 16.35, 0.86 15.14, 1.28 13.98 C1.7 12.83, 2.23 11.69, 2.85 10.63 C3.46 9.56, 4.18 8.53, 4.97 7.59 C5.76 6.65, 6.65 5.76, 7.59 4.97 C8.53 4.18, 9.56 3.46, 10.63 2.85 C11.69 2.23, 12.83 1.7, 13.98 1.28 C15.14 0.86, 16.35 0.54, 17.56 0.32 C18.77 0.11, 20.02 0, 21.25 0 C22.48 0, 23.73 0.11, 24.94 0.32 C26.15 0.54, 27.36 0.86, 28.52 1.28 C29.68 1.7, 30.81 2.23, 31.88 2.85 C32.94 3.46, 33.97 4.18, 34.91 4.97 C35.85 5.76, 36.74 6.65, 37.53 7.59 C38.32 8.53, 39.04 9.56, 39.66 10.63 C40.27 11.69, 40.8 12.83, 41.22 13.98 C41.64 15.14, 41.97 16.35, 42.18 17.56 C42.39 18.77, 42.45 20.64, 42.5 21.25 C42.56 21.87, 42.56 20.64, 42.5 21.25" stroke="#6741d9" stroke-width="4" fill="none"></path></g><g stroke-opacity="0.6" fill-opacity="0.6" stroke-linecap="round" transform="translate(180.50585937500114 208.89213169642858) rotate(0 21.251953125 21.251953125)"><path d="M42.5 21.25 C42.5 22.48, 42.39 23.73, 42.18 24.94 C41.97 26.15, 41.64 27.36, 41.22 28.52 C40.8 29.68, 40.27 30.81, 39.66 31.88 C39.04 32.94, 38.32 33.97, 37.53 34.91 C36.74 35.85, 35.85 36.74, 34.91 37.53 C33.97 38.32, 32.94 39.04, 31.88 39.66 C30.81 40.27, 29.68 40.8, 28.52 41.22 C27.36 41.64, 26.15 41.97, 24.94 42.18 C23.73 42.39, 22.48 42.5, 21.25 42.5 C20.02 42.5, 18.77 42.39, 17.56 42.18 C16.35 41.97, 15.14 41.64, 13.98 41.22 C12.83 40.8, 11.69 40.27, 10.63 39.66 C9.56 39.04, 8.53 38.32, 7.59 37.53 C6.65 36.74, 5.76 35.85, 4.97 34.91 C4.18 33.97, 3.46 32.94, 2.85 31.88 C2.23 30.81, 1.7 29.68, 1.28 28.52 C0.86 27.36, 0.54 26.15, 0.32 24.94 C0.11 23.73, 0 22.48, 0 21.25 C0 20.02, 0.11 18.77, 0.32 17.56 C0.54 16.35, 0.86 15.14, 1.28 13.98 C1.7 12.83, 2.23 11.69, 2.85 10.63 C3.46 9.56, 4.18 8.53, 4.97 7.59 C5.76 6.65, 6.65 5.76, 7.59 4.97 C8.53 4.18, 9.56 3.46, 10.63 2.85 C11.69 2.23, 12.83 1.7, 13.98 1.28 C15.14 0.86, 16.35 0.54, 17.56 0.32 C18.77 0.11, 20.02 0, 21.25 0 C22.48 0, 23.73 0.11, 24.94 0.32 C26.15 0.54, 27.36 0.86, 28.52 1.28 C29.68 1.7, 30.81 2.23, 31.88 2.85 C32.94 3.46, 33.97 4.18, 34.91 4.97 C35.85 5.76, 36.74 6.65, 37.53 7.59 C38.32 8.53, 39.04 9.56, 39.66 10.63 C40.27 11.69, 40.8 12.83, 41.22 13.98 C41.64 15.14, 41.97 16.35, 42.18 17.56 C42.39 18.77, 42.45 20.64, 42.5 21.25 C42.56 21.87, 42.56 20.64, 42.5 21.25" stroke="#6741d9" stroke-width="4" fill="none"></path></g><g stroke-linecap="round"><g stroke-opacity="0.6" fill-opacity="0.6" transform="translate(75.50000000000108 124.30982142857124) rotate(0 49.90457589285711 -22.580915178571445)"><path d="M0 0 C16.63 -7.53, 83.17 -37.63, 99.81 -45.16 M0 0 C16.63 -7.53, 83.17 -37.63, 99.81 -45.16" stroke="#1e1e1e" stroke-width="4" fill="none"></path></g></g><mask></mask><g stroke-linecap="round"><g stroke-opacity="0.6" fill-opacity="0.6" transform="translate(73.69754464285819 186.60892857142835) rotate(0 52.13671875 19.567522321428555)"><path d="M0 0 C17.38 6.52, 86.89 32.61, 104.27 39.14 M0 0 C17.38 6.52, 86.89 32.61, 104.27 39.14" stroke="#1e1e1e" stroke-width="4" fill="none"></path></g></g><mask></mask></svg>